<svg width="71" height="57" viewBox="0 0 71 57" fill="none" xmlns="http://www.w3.org/2000/svg">
<rect x="1.22778" width="67.826" height="56" rx="28" fill="#DFDFDF"/>
<rect x="17.1868" y="22" width="33.913" height="13" rx="6.5" fill="#9A9A9A"/>
<rect width="71" height="57" rx="28.5" fill="#C84031"/>
<path d="M30.71 31.135C30.71 32.075 30.365 32.83 29.675 33.4C28.975 33.96 28.125 34.24 27.125 34.24C26.235 34.24 25.45 33.98 24.77 33.46C24.09 32.94 23.62 32.23 23.36 31.33L24.68 30.79C24.77 31.11 24.895 31.4 25.055 31.66C25.215 31.92 25.4 32.145 25.61 32.335C25.83 32.515 26.07 32.66 26.33 32.77C26.59 32.87 26.865 32.92 27.155 32.92C27.785 32.92 28.3 32.76 28.7 32.44C29.1 32.11 29.3 31.675 29.3 31.135C29.3 30.685 29.135 30.3 28.805 29.98C28.495 29.67 27.915 29.37 27.065 29.08C26.205 28.77 25.67 28.56 25.46 28.45C24.32 27.87 23.75 27.015 23.75 25.885C23.75 25.095 24.065 24.42 24.695 23.86C25.335 23.3 26.12 23.02 27.05 23.02C27.87 23.02 28.58 23.23 29.18 23.65C29.78 24.06 30.18 24.575 30.38 25.195L29.09 25.735C28.97 25.335 28.73 25.005 28.37 24.745C28.02 24.475 27.59 24.34 27.08 24.34C26.54 24.34 26.085 24.49 25.715 24.79C25.345 25.07 25.16 25.435 25.16 25.885C25.16 26.255 25.305 26.575 25.595 26.845C25.915 27.115 26.61 27.435 27.68 27.805C28.77 28.175 29.545 28.63 30.005 29.17C30.475 29.7 30.71 30.355 30.71 31.135ZM34.261 31.75C34.261 32.11 34.411 32.41 34.711 32.65C35.021 32.89 35.381 33.01 35.791 33.01C36.371 33.01 36.886 32.795 37.336 32.365C37.796 31.935 38.026 31.43 38.026 30.85C37.596 30.51 36.996 30.34 36.226 30.34C35.666 30.34 35.196 30.475 34.816 30.745C34.446 31.015 34.261 31.35 34.261 31.75ZM36.046 26.41C37.066 26.41 37.871 26.685 38.461 27.235C39.051 27.775 39.346 28.52 39.346 29.47V34H38.026V32.98H37.966C37.396 33.82 36.636 34.24 35.686 34.24C34.876 34.24 34.196 34 33.646 33.52C33.106 33.04 32.836 32.44 32.836 31.72C32.836 30.96 33.121 30.355 33.691 29.905C34.271 29.455 35.041 29.23 36.001 29.23C36.821 29.23 37.496 29.38 38.026 29.68V29.365C38.026 28.885 37.836 28.48 37.456 28.15C37.076 27.81 36.631 27.64 36.121 27.64C35.351 27.64 34.741 27.965 34.291 28.615L33.076 27.85C33.746 26.89 34.736 26.41 36.046 26.41ZM43.8125 24.115C43.8125 24.385 43.7175 24.615 43.5275 24.805C43.3375 24.995 43.1075 25.09 42.8375 25.09C42.5675 25.09 42.3375 24.995 42.1475 24.805C41.9575 24.615 41.8625 24.385 41.8625 24.115C41.8625 23.845 41.9575 23.615 42.1475 23.425C42.3375 23.235 42.5675 23.14 42.8375 23.14C43.1075 23.14 43.3375 23.235 43.5275 23.425C43.7175 23.615 43.8125 23.845 43.8125 24.115ZM43.5275 26.65V34H42.1475V26.65H43.5275ZM47.8284 34H46.4484V26.65H47.7684V27.85H47.8284C47.9684 27.46 48.2534 27.13 48.6834 26.86C49.1234 26.58 49.5534 26.44 49.9734 26.44C50.3734 26.44 50.7134 26.5 50.9934 26.62L50.5734 27.955C50.4034 27.885 50.1334 27.85 49.7634 27.85C49.2434 27.85 48.7884 28.06 48.3984 28.48C48.0184 28.9 47.8284 29.39 47.8284 29.95V34Z" fill="white"/>
</svg>
