<svg width="147" height="59" viewBox="0 0 147 59" fill="none" xmlns="http://www.w3.org/2000/svg">
<rect x="4.95953" y="1" width="136.649" height="52" rx="26" fill="#F2F2F2"/>
<rect x="50.8419" y="21" width="75.8055" height="13" rx="6.5" fill="#DFDFDF"/>
<rect x="24.9084" y="18" width="19.0511" height="19.1" rx="5" fill="#DFDFDF"/>
<g filter="url(#filter0_d_57_475)">
<rect x="4" y="2" width="139" height="51" rx="25.5" fill="white"/>
<path fill-rule="evenodd" clip-rule="evenodd" d="M30.241 17L37.6387 36.1187L30.3609 33.2933L22.7837 36.0083L30.241 17Z" fill="#3B74E1"/>
<path d="M52.46 22.58V26.36H54.68C55.24 26.36 55.715 26.18 56.105 25.82C56.495 25.45 56.69 24.995 56.69 24.455C56.69 23.955 56.505 23.52 56.135 23.15C55.775 22.77 55.32 22.58 54.77 22.58H52.46ZM52.46 32H51.08V21.26H54.74C55.67 21.26 56.46 21.57 57.11 22.19C57.77 22.8 58.1 23.555 58.1 24.455C58.1 25.195 57.855 25.855 57.365 26.435C56.885 27.005 56.275 27.37 55.535 27.53L55.505 27.575L58.52 31.94V32H56.885L53.99 27.65H52.46V32ZM63.7904 32.24C62.7104 32.24 61.8204 31.87 61.1204 31.13C60.4204 30.39 60.0704 29.455 60.0704 28.325C60.0704 27.205 60.4104 26.275 61.0904 25.535C61.7704 24.785 62.6404 24.41 63.7004 24.41C64.7904 24.41 65.6554 24.765 66.2954 25.475C66.9454 26.175 67.2704 27.16 67.2704 28.43L67.2554 28.58H61.4804C61.5004 29.3 61.7404 29.88 62.2004 30.32C62.6604 30.76 63.2104 30.98 63.8504 30.98C64.7304 30.98 65.4204 30.54 65.9204 29.66L67.1504 30.26C66.8204 30.88 66.3604 31.365 65.7704 31.715C65.1904 32.065 64.5304 32.24 63.7904 32.24ZM61.5854 27.44H65.8004C65.7604 26.93 65.5504 26.51 65.1704 26.18C64.8004 25.84 64.3004 25.67 63.6704 25.67C63.1504 25.67 62.7004 25.83 62.3204 26.15C61.9504 26.47 61.7054 26.9 61.5854 27.44ZM73.0906 32.24C72.0006 32.24 71.0956 31.87 70.3756 31.13C69.6656 30.37 69.3106 29.435 69.3106 28.325C69.3106 27.195 69.6656 26.26 70.3756 25.52C71.0956 24.78 72.0006 24.41 73.0906 24.41C73.8406 24.41 74.4956 24.6 75.0556 24.98C75.6156 25.35 76.0356 25.865 76.3156 26.525L75.0556 27.05C74.6656 26.13 73.9806 25.67 73.0006 25.67C72.3706 25.67 71.8256 25.925 71.3656 26.435C70.9156 26.945 70.6906 27.575 70.6906 28.325C70.6906 29.075 70.9156 29.705 71.3656 30.215C71.8256 30.725 72.3706 30.98 73.0006 30.98C74.0106 30.98 74.7206 30.52 75.1306 29.6L76.3606 30.125C76.0906 30.785 75.6656 31.305 75.0856 31.685C74.5156 32.055 73.8506 32.24 73.0906 32.24ZM81.9193 32.24C80.8393 32.24 79.9493 31.87 79.2493 31.13C78.5493 30.39 78.1993 29.455 78.1993 28.325C78.1993 27.205 78.5393 26.275 79.2193 25.535C79.8993 24.785 80.7693 24.41 81.8293 24.41C82.9193 24.41 83.7843 24.765 84.4243 25.475C85.0743 26.175 85.3993 27.16 85.3993 28.43L85.3843 28.58H79.6093C79.6293 29.3 79.8693 29.88 80.3293 30.32C80.7893 30.76 81.3393 30.98 81.9793 30.98C82.8593 30.98 83.5493 30.54 84.0493 29.66L85.2793 30.26C84.9493 30.88 84.4893 31.365 83.8993 31.715C83.3193 32.065 82.6593 32.24 81.9193 32.24ZM79.7143 27.44H83.9293C83.8893 26.93 83.6793 26.51 83.2993 26.18C82.9293 25.84 82.4293 25.67 81.7993 25.67C81.2793 25.67 80.8293 25.83 80.4493 26.15C80.0793 26.47 79.8343 26.9 79.7143 27.44ZM87.7863 24.65H89.1063V25.67H89.1663C89.3763 25.31 89.6963 25.01 90.1263 24.77C90.5663 24.53 91.0213 24.41 91.4913 24.41C92.3913 24.41 93.0813 24.67 93.5613 25.19C94.0513 25.7 94.2963 26.43 94.2963 27.38V32H92.9163V27.47C92.8863 26.27 92.2813 25.67 91.1013 25.67C90.5513 25.67 90.0913 25.895 89.7213 26.345C89.3513 26.785 89.1663 27.315 89.1663 27.935V32H87.7863V24.65ZM99.5703 32.12C98.9703 32.12 98.4703 31.935 98.0703 31.565C97.6803 31.195 97.4803 30.68 97.4703 30.02V25.91H96.1803V24.65H97.4703V22.4H98.8503V24.65H100.65V25.91H98.8503V29.57C98.8503 30.06 98.9453 30.395 99.1353 30.575C99.3253 30.745 99.5403 30.83 99.7803 30.83C99.8903 30.83 99.9953 30.82 100.095 30.8C100.205 30.77 100.305 30.735 100.395 30.695L100.83 31.925C100.47 32.055 100.05 32.12 99.5703 32.12ZM104.468 32H103.088V24.65H104.408V25.85H104.468C104.608 25.46 104.893 25.13 105.323 24.86C105.763 24.58 106.193 24.44 106.613 24.44C107.013 24.44 107.353 24.5 107.633 24.62L107.213 25.955C107.043 25.885 106.773 25.85 106.403 25.85C105.883 25.85 105.428 26.06 105.038 26.48C104.658 26.9 104.468 27.39 104.468 27.95V32ZM110.374 29.75C110.374 30.11 110.524 30.41 110.824 30.65C111.134 30.89 111.494 31.01 111.904 31.01C112.484 31.01 112.999 30.795 113.449 30.365C113.909 29.935 114.139 29.43 114.139 28.85C113.709 28.51 113.109 28.34 112.339 28.34C111.779 28.34 111.309 28.475 110.929 28.745C110.559 29.015 110.374 29.35 110.374 29.75ZM112.159 24.41C113.179 24.41 113.984 24.685 114.574 25.235C115.164 25.775 115.459 26.52 115.459 27.47V32H114.139V30.98H114.079C113.509 31.82 112.749 32.24 111.799 32.24C110.989 32.24 110.309 32 109.759 31.52C109.219 31.04 108.949 30.44 108.949 29.72C108.949 28.96 109.234 28.355 109.804 27.905C110.384 27.455 111.154 27.23 112.114 27.23C112.934 27.23 113.609 27.38 114.139 27.68V27.365C114.139 26.885 113.949 26.48 113.569 26.15C113.189 25.81 112.744 25.64 112.234 25.64C111.464 25.64 110.854 25.965 110.404 26.615L109.189 25.85C109.859 24.89 110.849 24.41 112.159 24.41ZM119.521 32H118.141V24.65H119.461V25.85H119.521C119.661 25.46 119.946 25.13 120.376 24.86C120.816 24.58 121.246 24.44 121.666 24.44C122.066 24.44 122.406 24.5 122.686 24.62L122.266 25.955C122.096 25.885 121.826 25.85 121.456 25.85C120.936 25.85 120.481 26.06 120.091 26.48C119.711 26.9 119.521 27.39 119.521 27.95V32Z" fill="#3B74E1"/>
</g>
<defs>
<filter id="filter0_d_57_475" x="0" y="0" width="147" height="59" filterUnits="userSpaceOnUse" color-interpolation-filters="sRGB">
<feFlood flood-opacity="0" result="BackgroundImageFix"/>
<feColorMatrix in="SourceAlpha" type="matrix" values="0 0 0 0 0 0 0 0 0 0 0 0 0 0 0 0 0 0 127 0" result="hardAlpha"/>
<feOffset dy="2"/>
<feGaussianBlur stdDeviation="2"/>
<feComposite in2="hardAlpha" operator="out"/>
<feColorMatrix type="matrix" values="0 0 0 0 0 0 0 0 0 0 0 0 0 0 0 0 0 0 0.25 0"/>
<feBlend mode="normal" in2="BackgroundImageFix" result="effect1_dropShadow_57_475"/>
<feBlend mode="normal" in="SourceGraphic" in2="effect1_dropShadow_57_475" result="shape"/>
</filter>
</defs>
</svg>
