<svg width="55" height="57" viewBox="0 0 55 57" fill="none" xmlns="http://www.w3.org/2000/svg">
<g filter="url(#filter0_d_44_1266)">
<path fill-rule="evenodd" clip-rule="evenodd" d="M27.1874 1.6272H27.2297C27.6092 1.6272 27.9884 1.63651 28.3674 1.65513C28.7464 1.67375 29.1248 1.70166 29.5024 1.73885C29.8801 1.77605 30.2566 1.82248 30.632 1.87817C31.0073 1.93385 31.3811 1.9987 31.7533 2.07274C32.1255 2.14677 32.4957 2.22989 32.8638 2.32209C33.2318 2.4143 33.5975 2.51548 33.9606 2.62564C34.3237 2.73579 34.684 2.85479 35.0412 2.98264C35.3985 3.11048 35.7525 3.24701 36.1031 3.39223C36.4537 3.53745 36.8005 3.69119 37.1436 3.85343C37.4866 4.01568 37.8254 4.18625 38.1601 4.36514C38.4948 4.54402 38.8249 4.73101 39.1504 4.9261C39.4759 5.12118 39.7964 5.32415 40.1119 5.53498C40.4274 5.7458 40.7376 5.96424 41.0424 6.1903C41.3472 6.41635 41.6463 6.64975 41.9396 6.89049C42.2329 7.13123 42.5202 7.37901 42.8014 7.63386C43.0825 7.8887 43.3573 8.15029 43.6256 8.41862C43.8939 8.68695 44.1555 8.9617 44.4104 9.24288C44.6652 9.52406 44.913 9.81131 45.1537 10.1046C45.3945 10.398 45.6279 10.6971 45.8539 11.0019C46.08 11.3067 46.2985 11.6168 46.5093 11.9324C46.7201 12.2479 46.923 12.5684 47.1181 12.8939C47.3133 13.2194 47.5002 13.5495 47.6791 13.8841C47.858 14.2188 48.0286 14.5577 48.1908 14.9007C48.3531 15.2437 48.5068 15.5905 48.652 15.9411C48.7972 16.2918 48.9338 16.6457 49.0616 17.003C49.1895 17.3603 49.3085 17.7205 49.4186 18.0836C49.5287 18.4468 49.6299 18.8124 49.7221 19.1805C49.8143 19.5486 49.8975 19.9187 49.9715 20.2909C50.0456 20.6631 50.1104 21.0369 50.166 21.4123C50.2218 21.7877 50.2682 22.1642 50.3054 22.5418C50.3426 22.9195 50.3705 23.2978 50.3891 23.6768C50.4077 24.0558 50.417 24.4351 50.417 24.8146V24.8162C50.417 25.1957 50.4077 25.5749 50.3891 25.954C50.3705 26.3329 50.3426 26.7113 50.3054 27.089C50.2682 27.4666 50.2218 27.8431 50.166 28.2185C50.1104 28.5939 50.0456 28.9676 49.9715 29.3398C49.8975 29.712 49.8143 30.0821 49.7221 30.4503C49.6299 30.8184 49.5287 31.184 49.4186 31.5471C49.3085 31.9103 49.1895 32.2705 49.0616 32.6278C48.9338 32.9851 48.7972 33.339 48.652 33.6896C48.5068 34.0402 48.3531 34.387 48.1908 34.7301C48.0286 35.0731 47.858 35.4119 47.6791 35.7466C47.5002 36.0813 47.3133 36.4114 47.1181 36.7369C46.923 37.0624 46.7201 37.3829 46.5092 37.6984C46.2985 38.0139 46.08 38.3241 45.8539 38.6289C45.6279 38.9337 45.3945 39.2328 45.1537 39.5261C44.913 39.8195 44.6652 40.1067 44.4104 40.3879C44.1555 40.669 43.8939 40.9438 43.6256 41.2121C43.3573 41.4804 43.0825 41.7421 42.8014 41.9969C42.5202 42.2518 42.2329 42.4995 41.9396 42.7403C41.6463 42.981 41.3472 43.2144 41.0424 43.4405C40.7376 43.6665 40.4274 43.885 40.1119 44.0957C39.7964 44.3066 39.4759 44.5096 39.1504 44.7047C38.8249 44.8998 38.4948 45.0868 38.1601 45.2657C37.8254 45.4445 37.4866 45.6151 37.1436 45.7773C36.8005 45.9396 36.4537 46.0933 36.1031 46.2385C35.7525 46.3838 35.3985 46.5203 35.0412 46.6482C34.684 46.776 34.3237 46.895 33.9606 47.0051C33.5975 47.1153 33.2318 47.2164 32.8638 47.3087C32.4957 47.4009 32.1255 47.484 31.7533 47.558C31.3811 47.6321 31.0073 47.6969 30.632 47.7526C30.2566 47.8083 29.8801 47.8547 29.5024 47.8919C29.1248 47.9291 28.7464 47.957 28.3674 47.9757C27.9884 47.9943 27.6092 48.0036 27.2297 48.0036H27.1874C26.8079 48.0036 26.4286 47.9943 26.0496 47.9757C25.6706 47.957 25.2923 47.9291 24.9146 47.8919C24.537 47.8547 24.1605 47.8083 23.7851 47.7526C23.4097 47.6969 23.0359 47.6321 22.6637 47.558C22.2916 47.484 21.9214 47.4009 21.5533 47.3087C21.1852 47.2164 20.8196 47.1153 20.4565 47.0051C20.0933 46.895 19.7331 46.776 19.3758 46.6482C19.0185 46.5203 18.6646 46.3838 18.3139 46.2385C17.9633 46.0933 17.6165 45.9396 17.2735 45.7773C16.9305 45.6151 16.5916 45.4445 16.2569 45.2657C15.9223 45.0868 15.5922 44.8998 15.2667 44.7047C14.9412 44.5096 14.6207 44.3066 14.3052 44.0957C13.9896 43.885 13.6795 43.6665 13.3747 43.4405C13.0699 43.2144 12.7708 42.981 12.4774 42.7403C12.1841 42.4995 11.8969 42.2518 11.6157 41.9969C11.3345 41.7421 11.0598 41.4804 10.7914 41.2121C10.5231 40.9438 10.2615 40.669 10.0067 40.3879C9.75182 40.1067 9.50403 39.8195 9.26329 39.5261C9.02256 39.2328 8.78916 38.9337 8.5631 38.6289C8.33704 38.3241 8.1186 38.0139 7.90778 37.6984C7.69695 37.3829 7.49399 37.0624 7.2989 36.7369C7.10381 36.4114 6.91682 36.0813 6.73794 35.7466C6.55905 35.4119 6.38848 35.0731 6.22624 34.7301C6.06399 34.387 5.91026 34.0402 5.76504 33.6896C5.61982 33.339 5.48328 32.9851 5.35544 32.6278C5.2276 32.2705 5.1086 31.9103 4.99844 31.5471C4.88828 31.184 4.7871 30.8184 4.6949 30.4503C4.60269 30.0821 4.51957 29.712 4.44554 29.3398C4.37151 28.9676 4.30665 28.5939 4.25097 28.2185C4.19529 27.8431 4.14885 27.4666 4.11165 27.089C4.07446 26.7113 4.04655 26.3329 4.02793 25.954C4.00931 25.5749 4 25.1957 4 24.8162V24.8146C4 24.4351 4.00931 24.0558 4.02793 23.6768C4.04655 23.2978 4.07446 22.9195 4.11165 22.5418C4.14885 22.1642 4.19529 21.7877 4.25097 21.4123C4.30665 21.0369 4.37151 20.6631 4.44554 20.2909C4.51957 19.9188 4.60269 19.5486 4.6949 19.1805C4.7871 18.8124 4.88828 18.4468 4.99844 18.0836C5.1086 17.7205 5.2276 17.3603 5.35544 17.003C5.48328 16.6457 5.61982 16.2918 5.76504 15.9411C5.91026 15.5905 6.06399 15.2437 6.22624 14.9007C6.38848 14.5577 6.55905 14.2188 6.73794 13.8841C6.91682 13.5495 7.10381 13.2194 7.2989 12.8939C7.49399 12.5684 7.69695 12.2479 7.90778 11.9324C8.1186 11.6168 8.33704 11.3067 8.5631 11.0019C8.78916 10.6971 9.02256 10.398 9.26329 10.1046C9.50403 9.81131 9.75182 9.52406 10.0067 9.24288C10.2615 8.9617 10.5231 8.68695 10.7914 8.41862C11.0598 8.15029 11.3345 7.8887 11.6157 7.63386C11.8969 7.37901 12.1841 7.13123 12.4774 6.89049C12.7708 6.64975 13.0699 6.41635 13.3747 6.1903C13.6795 5.96424 13.9896 5.7458 14.3052 5.53498C14.6207 5.32415 14.9412 5.12118 15.2667 4.9261C15.5922 4.73101 15.9223 4.54402 16.2569 4.36514C16.5916 4.18625 16.9305 4.01568 17.2735 3.85343C17.6165 3.69119 17.9633 3.53745 18.3139 3.39223C18.6646 3.24701 19.0185 3.11048 19.3758 2.98264C19.7331 2.85479 20.0933 2.73579 20.4565 2.62564C20.8196 2.51548 21.1852 2.4143 21.5533 2.32209C21.9214 2.22989 22.2915 2.14677 22.6637 2.07274C23.0359 1.9987 23.4097 1.93385 23.7851 1.87817C24.1605 1.82248 24.537 1.77605 24.9146 1.73885C25.2923 1.70166 25.6706 1.67375 26.0496 1.65513C26.4286 1.63651 26.8079 1.6272 27.1874 1.6272Z" fill="white"/>
<path d="M20.6247 24.2533L32.5678 19.025L27.3029 30.9714L25.4219 26.7159L25.3088 26.4599L25.0556 26.3406L20.6247 24.2533Z" stroke="#45494B" stroke-width="1.5"/>
</g>
<defs>
<filter id="filter0_d_44_1266" x="0" y="1.6272" width="54.4171" height="54.3763" filterUnits="userSpaceOnUse" color-interpolation-filters="sRGB">
<feFlood flood-opacity="0" result="BackgroundImageFix"/>
<feColorMatrix in="SourceAlpha" type="matrix" values="0 0 0 0 0 0 0 0 0 0 0 0 0 0 0 0 0 0 127 0" result="hardAlpha"/>
<feOffset dy="4"/>
<feGaussianBlur stdDeviation="2"/>
<feColorMatrix type="matrix" values="0 0 0 0 0.392157 0 0 0 0 0.392157 0 0 0 0 0.392157 0 0 0 0.360784 0"/>
<feBlend mode="normal" in2="BackgroundImageFix" result="effect1_dropShadow_44_1266"/>
<feBlend mode="normal" in="SourceGraphic" in2="effect1_dropShadow_44_1266" result="shape"/>
</filter>
</defs>
</svg>
