<svg width="12" height="15" viewBox="0 0 12 15" fill="none" xmlns="http://www.w3.org/2000/svg">
<circle cx="6" cy="5" r="4" fill="white"/>
<path fill-rule="evenodd" clip-rule="evenodd" d="M6.6014 14.4025C9.02493 12.0019 12 9.05512 12 6C12 2.68629 9.31371 0 6 0C2.68629 0 0 2.68629 0 6C0 9.05512 2.97507 12.0019 5.3986 14.4025C5.60373 14.6056 5.80491 14.8049 6 15C6.19509 14.8049 6.39627 14.6056 6.6014 14.4025ZM6.40093 11.6016C8.01662 10.0013 10 8.03675 10 6C10 3.79086 8.20914 2 6 2C3.79086 2 2 3.79086 2 6C2 8.03675 3.98338 10.0013 5.59907 11.6016C5.73582 11.7371 5.86994 11.8699 6 12C6.13006 11.8699 6.26418 11.7371 6.40093 11.6016Z" fill="#C94334"/>
<circle cx="6" cy="6" r="2" fill="#C94334"/>
</svg>
