<svg width="49" height="49" viewBox="0 0 49 49" fill="none" xmlns="http://www.w3.org/2000/svg">
<g filter="url(#filter0_d_93_240)">
<path fill-rule="evenodd" clip-rule="evenodd" d="M23.999 2.89673H25.001C25.3283 2.89673 25.6554 2.90476 25.9823 2.92082C26.3092 2.93688 26.6355 2.96095 26.9612 2.99303C27.2869 3.02511 27.6117 3.06516 27.9355 3.11319C28.2592 3.16121 28.5816 3.21715 28.9026 3.281C29.2236 3.34486 29.5429 3.41655 29.8604 3.49607C30.1779 3.5756 30.4932 3.66287 30.8064 3.75788C31.1196 3.85289 31.4303 3.95552 31.7385 4.06579C32.0466 4.17606 32.3519 4.29381 32.6543 4.41906C32.9567 4.54431 33.2558 4.67691 33.5517 4.81685C33.8476 4.95679 34.1398 5.1039 34.4285 5.25819C34.7171 5.41248 35.0018 5.57375 35.2825 5.74202C35.5632 5.91028 35.8397 6.08533 36.1118 6.26717C36.384 6.449 36.6515 6.63741 36.9144 6.83238C37.1773 7.02735 37.4352 7.22865 37.6882 7.43629C37.9412 7.64393 38.189 7.85765 38.4315 8.07745C38.674 8.29725 38.911 8.52287 39.1424 8.7543C39.3739 8.98573 39.5995 9.22271 39.8193 9.46522C40.0391 9.70773 40.2528 9.95549 40.4604 10.2085C40.6681 10.4615 40.8694 10.7195 41.0643 10.9823C41.2593 11.2452 41.4477 11.5127 41.6296 11.7849C41.8114 12.057 41.9864 12.3335 42.1547 12.6142C42.323 12.8949 42.4842 13.1796 42.6385 13.4682C42.7928 13.7569 42.94 14.0492 43.0799 14.345C43.2198 14.6409 43.3524 14.94 43.4777 15.2424C43.6029 15.5448 43.7206 15.8501 43.8309 16.1582C43.9412 16.4664 44.0438 16.7771 44.1388 17.0903C44.2339 17.4035 44.3211 17.7189 44.4006 18.0363C44.4801 18.3539 44.5518 18.6731 44.6157 18.9941C44.6796 19.3151 44.7355 19.6375 44.7835 19.9612C44.8316 20.285 44.8716 20.6098 44.9037 20.9355C44.9358 21.2612 44.9598 21.5875 44.9759 21.9144C44.992 22.2414 45 22.5685 45 22.8957V22.8977C45 23.225 44.992 23.5521 44.9759 23.879C44.9598 24.206 44.9358 24.5323 44.9037 24.8579C44.8716 25.1837 44.8316 25.5084 44.7835 25.8322C44.7355 26.156 44.6796 26.4783 44.6157 26.7993C44.5518 27.1203 44.4801 27.4396 44.4006 27.7571C44.3211 28.0746 44.2339 28.3899 44.1388 28.7031C44.0438 29.0163 43.9412 29.327 43.8309 29.6352C43.7206 29.9434 43.6029 30.2486 43.4777 30.551C43.3524 30.8534 43.2198 31.1526 43.0799 31.4484C42.94 31.7443 42.7928 32.0366 42.6385 32.3252C42.4842 32.6138 42.323 32.8985 42.1547 33.1792C41.9864 33.46 41.8114 33.7364 41.6296 34.0085C41.4477 34.2807 41.2593 34.5483 41.0643 34.8111C40.8694 35.074 40.6681 35.3319 40.4604 35.5849C40.2528 35.8379 40.0391 36.0857 39.8193 36.3282C39.5995 36.5708 39.3739 36.8077 39.1424 37.0391C38.911 37.2706 38.674 37.4962 38.4315 37.716C38.189 37.9358 37.9412 38.1495 37.6882 38.3571C37.4352 38.5648 37.1773 38.7661 36.9144 38.961C36.6515 39.156 36.384 39.3445 36.1118 39.5263C35.8397 39.7081 35.5632 39.8832 35.2825 40.0514C35.0018 40.2197 34.7171 40.381 34.4285 40.5352C34.1398 40.6896 33.8476 40.8367 33.5517 40.9766C33.2558 41.1166 32.9567 41.2492 32.6543 41.3744C32.3519 41.4996 32.0466 41.6174 31.7385 41.7276C31.4303 41.8379 31.1196 41.9405 30.8064 42.0355C30.4932 42.1306 30.1779 42.2179 29.8604 42.2973C29.5429 42.3769 29.2236 42.4486 28.9026 42.5124C28.5816 42.5763 28.2592 42.6322 27.9355 42.6802C27.6117 42.7283 27.2869 42.7684 26.9612 42.8004C26.6355 42.8325 26.3092 42.8566 25.9823 42.8726C25.6554 42.8887 25.3283 42.8967 25.001 42.8967H23.999C23.6717 42.8967 23.3446 42.8887 23.0177 42.8726C22.6908 42.8566 22.3645 42.8325 22.0388 42.8004C21.7131 42.7684 21.3883 42.7283 21.0645 42.6802C20.7408 42.6322 20.4184 42.5763 20.0974 42.5124C19.7764 42.4486 19.4571 42.3769 19.1396 42.2974C18.8221 42.2179 18.5068 42.1306 18.1936 42.0355C17.8804 41.9405 17.5697 41.8379 17.2615 41.7276C16.9534 41.6174 16.6481 41.4996 16.3457 41.3744C16.0433 41.2492 15.7442 41.1166 15.4483 40.9766C15.1524 40.8367 14.8602 40.6896 14.5715 40.5352C14.2829 40.381 13.9982 40.2197 13.7175 40.0514C13.4367 39.8832 13.1603 39.7081 12.8882 39.5263C12.616 39.3445 12.3485 39.156 12.0856 38.961C11.8227 38.7661 11.5648 38.5648 11.3118 38.3571C11.0588 38.1495 10.811 37.9358 10.5685 37.716C10.326 37.4962 10.089 37.2706 9.85757 37.0391C9.62614 36.8077 9.40052 36.5708 9.18072 36.3282C8.96092 36.0857 8.7472 35.8379 8.53956 35.5849C8.33193 35.3319 8.13062 35.074 7.93565 34.8111C7.74068 34.5483 7.55227 34.2807 7.37044 34.0085C7.1886 33.7364 7.01355 33.46 6.84529 33.1792C6.67702 32.8985 6.51575 32.6138 6.36146 32.3252C6.20717 32.0366 6.06006 31.7443 5.92012 31.4484C5.78018 31.1526 5.64758 30.8534 5.52233 30.551C5.39708 30.2486 5.27933 29.9434 5.16906 29.6352C5.05879 29.327 4.95616 29.0163 4.86115 28.7031C4.76614 28.3899 4.67887 28.0746 4.59935 27.7571C4.51982 27.4396 4.44813 27.1203 4.38427 26.7993C4.32042 26.4783 4.26448 26.156 4.21646 25.8322C4.16843 25.5084 4.12838 25.1837 4.0963 24.8579C4.06422 24.5323 4.04015 24.206 4.02409 23.879C4.00803 23.5521 4 23.225 4 22.8977V22.8957C4 22.5685 4.00803 22.2414 4.02409 21.9144C4.04015 21.5875 4.06422 21.2612 4.0963 20.9355C4.12838 20.6098 4.16843 20.285 4.21646 19.9612C4.26448 19.6375 4.32042 19.3151 4.38427 18.9941C4.44813 18.6731 4.51982 18.3539 4.59935 18.0363C4.67887 17.7189 4.76614 17.4035 4.86115 17.0903C4.95616 16.7771 5.05879 16.4664 5.16906 16.1582C5.27933 15.8501 5.39708 15.5448 5.52233 15.2424C5.64758 14.94 5.78018 14.6409 5.92012 14.345C6.06006 14.0492 6.20717 13.7569 6.36146 13.4682C6.51575 13.1796 6.67702 12.8949 6.84529 12.6142C7.01355 12.3335 7.1886 12.057 7.37044 11.7849C7.55227 11.5127 7.74068 11.2452 7.93565 10.9823C8.13062 10.7195 8.33193 10.4615 8.53956 10.2085C8.7472 9.95549 8.96092 9.70773 9.18072 9.46522C9.40052 9.22271 9.62614 8.98573 9.85757 8.7543C10.089 8.52287 10.326 8.29725 10.5685 8.07745C10.811 7.85765 11.0588 7.64393 11.3118 7.43629C11.5648 7.22865 11.8227 7.02735 12.0856 6.83238C12.3485 6.63741 12.616 6.449 12.8882 6.26717C13.1603 6.08533 13.4367 5.91028 13.7175 5.74202C13.9982 5.57375 14.2829 5.41248 14.5715 5.25819C14.8602 5.1039 15.1524 4.95679 15.4483 4.81685C15.7442 4.67691 16.0433 4.54431 16.3457 4.41906C16.6481 4.29381 16.9534 4.17606 17.2615 4.06579C17.5697 3.95552 17.8804 3.85289 18.1936 3.75788C18.5068 3.66287 18.8221 3.5756 19.1396 3.49607C19.4571 3.41655 19.7764 3.34486 20.0974 3.281C20.4184 3.21715 20.7408 3.16121 21.0645 3.11319C21.3883 3.06516 21.7131 3.02511 22.0388 2.99303C22.3645 2.96095 22.6908 2.93688 23.0177 2.92082C23.3446 2.90476 23.6717 2.89673 23.999 2.89673Z" fill="white"/>
</g>
<path fill-rule="evenodd" clip-rule="evenodd" d="M14.6 25L16.2843 23.3942L23.5726 29.1229L31.1214 23.401L32.6 25L23.6 32L14.6 25Z" fill="#3C4042"/>
<path fill-rule="evenodd" clip-rule="evenodd" d="M16.1517 19.7069L23.5999 25.5L31.0482 19.7069L23.5999 13.5L16.1517 19.7069Z" stroke="#3C4042" stroke-width="2"/>
<defs>
<filter id="filter0_d_93_240" x="0" y="0.896729" width="49" height="48" filterUnits="userSpaceOnUse" color-interpolation-filters="sRGB">
<feFlood flood-opacity="0" result="BackgroundImageFix"/>
<feColorMatrix in="SourceAlpha" type="matrix" values="0 0 0 0 0 0 0 0 0 0 0 0 0 0 0 0 0 0 127 0" result="hardAlpha"/>
<feOffset dy="2"/>
<feGaussianBlur stdDeviation="2"/>
<feColorMatrix type="matrix" values="0 0 0 0 0.392157 0 0 0 0 0.392157 0 0 0 0 0.392157 0 0 0 0.498039 0"/>
<feBlend mode="normal" in2="BackgroundImageFix" result="effect1_dropShadow_93_240"/>
<feBlend mode="normal" in="SourceGraphic" in2="effect1_dropShadow_93_240" result="shape"/>
</filter>
</defs>
</svg>
