<svg width="18" height="15" viewBox="0 0 18 15" fill="none" xmlns="http://www.w3.org/2000/svg">
<circle cx="3.5" cy="11.5" r="3" stroke="black"/>
<circle cx="14.5" cy="11.5" r="3" stroke="black"/>
<path d="M14.5 8.5L13 7H12H14" stroke="black"/>
<path d="M9.5 13H8.5V9H9.5V13Z" stroke="black"/>
<path d="M6.5 11.5H11.5" stroke="black"/>
<path d="M6.5 12.5H11.5" stroke="black"/>
<circle cx="11.5" cy="1.5" r="1.5" fill="black"/>
<path d="M9.00003 9C9.00003 9 7.68932 8.53612 7.00003 8C6.56408 7.66093 6.21759 7.50763 6.00003 7C5.76928 6.46158 5.76928 6.03842 6.00003 5.5C6.21759 4.99237 6.57958 4.85814 7 4.5C7 4.5 8.5 3.5 9.50003 3C10.024 2.73803 11 2.5 11 2.5L11.5 2" stroke="black"/>
<path d="M9.5 9L8.17294 8.2478L7 7.5C7 7.5 5.59817 6.40165 6.49993 5.5C6.99999 5 8.17294 4.26469 8.17294 4.26469L11.5 2H12.6729" stroke="black"/>
<path d="M9 4C9.5 4.66667 10.8 6 12 6C13.2 6 13.8333 6 14 6" stroke="black"/>
<path d="M5.5 9L6.5 7" stroke="black"/>
</svg>
