<svg width="89" height="36" viewBox="0 0 89 36" fill="none" xmlns="http://www.w3.org/2000/svg">
<rect x="33.2334" y="9.45538" width="44.4156" height="17.8148" rx="8" fill="#DFDFDF"/>
<rect x="2.84424" y="5.34448" width="22.3247" height="26.1741" rx="5" fill="#DFDFDF"/>
<rect x="0.5" y="0.5" width="88" height="35" rx="17.5" fill="white" stroke="#E1E3E6"/>
<path d="M19.5 12V19.5H24.5V12M21.5 25V20.5H17.5V19.5H18.5V11.5H25.5V19.5H26.5V20.5H22.5V25H21.5Z" stroke="#3771E0"/>
<rect x="17" y="18" width="1" height="1" fill="#3771E0"/>
<rect x="16" y="19" width="1" height="1" fill="#3771E0"/>
<rect x="16" y="20" width="1" height="1" fill="#3771E0"/>
<rect x="26" y="18" width="1" height="1" fill="#3771E0"/>
<rect x="27" y="19" width="1" height="1" fill="#3771E0"/>
<rect x="27" y="20" width="1" height="1" fill="#3771E0"/>
<rect x="19" y="10" width="1" height="1" fill="#3771E0"/>
<rect x="19" y="10" width="1" height="1" fill="#3771E0"/>
<rect x="20" y="10" width="1" height="1" fill="#3771E0"/>
<rect x="21" y="10" width="1" height="1" fill="#3771E0"/>
<rect x="22" y="10" width="1" height="1" fill="#3771E0"/>
<rect x="23" y="10" width="1" height="1" fill="#3771E0"/>
<rect x="24" y="10" width="1" height="1" fill="#3771E0"/>
<path d="M42.98 13.955L41.225 18.8H44.795L43.04 13.955H42.98ZM39.71 23H38.18L42.23 12.26H43.79L47.84 23H46.31L45.275 20.09H40.76L39.71 23ZM55.8772 13.115C55.8772 13.385 55.7822 13.615 55.5922 13.805C55.4022 13.995 55.1722 14.09 54.9022 14.09C54.6322 14.09 54.4022 13.995 54.2122 13.805C54.0222 13.615 53.9272 13.385 53.9272 13.115C53.9272 12.845 54.0222 12.615 54.2122 12.425C54.4022 12.235 54.6322 12.14 54.9022 12.14C55.1722 12.14 55.4022 12.235 55.5922 12.425C55.7822 12.615 55.8772 12.845 55.8772 13.115ZM50.9122 16.91V23H49.5322V16.91H48.1522V15.65H49.5322V14.585C49.5322 14.225 49.5922 13.895 49.7122 13.595C49.8422 13.295 50.0172 13.04 50.2372 12.83C50.4572 12.61 50.7172 12.44 51.0172 12.32C51.3272 12.2 51.6622 12.14 52.0222 12.14C52.5222 12.14 52.9322 12.225 53.2522 12.395L52.8772 13.61C52.6372 13.49 52.3672 13.43 52.0672 13.43C51.7272 13.43 51.4472 13.55 51.2272 13.79C51.0172 14.02 50.9122 14.33 50.9122 14.72V15.65H55.5922V23H54.2122V16.91H50.9122ZM61.187 19.265L63.812 23H62.192L60.377 20.285L58.592 23H56.972L59.567 19.265L57.032 15.65H58.592L60.407 18.245L62.132 15.65H63.752L61.187 19.265ZM65.9257 20.75C65.9257 21.11 66.0757 21.41 66.3757 21.65C66.6857 21.89 67.0457 22.01 67.4557 22.01C68.0357 22.01 68.5507 21.795 69.0007 21.365C69.4607 20.935 69.6907 20.43 69.6907 19.85C69.2607 19.51 68.6607 19.34 67.8907 19.34C67.3307 19.34 66.8607 19.475 66.4807 19.745C66.1107 20.015 65.9257 20.35 65.9257 20.75ZM67.7107 15.41C68.7307 15.41 69.5357 15.685 70.1257 16.235C70.7157 16.775 71.0107 17.52 71.0107 18.47V23H69.6907V21.98H69.6307C69.0607 22.82 68.3007 23.24 67.3507 23.24C66.5407 23.24 65.8607 23 65.3107 22.52C64.7707 22.04 64.5007 21.44 64.5007 20.72C64.5007 19.96 64.7857 19.355 65.3557 18.905C65.9357 18.455 66.7057 18.23 67.6657 18.23C68.4857 18.23 69.1607 18.38 69.6907 18.68V18.365C69.6907 17.885 69.5007 17.48 69.1207 17.15C68.7407 16.81 68.2957 16.64 67.7857 16.64C67.0157 16.64 66.4057 16.965 65.9557 17.615L64.7407 16.85C65.4107 15.89 66.4007 15.41 67.7107 15.41ZM74.2471 23H72.8671V15.65H74.1871V16.85H74.2471C74.3871 16.46 74.6721 16.13 75.1021 15.86C75.5421 15.58 75.9721 15.44 76.3921 15.44C76.7921 15.44 77.1321 15.5 77.4121 15.62L76.9921 16.955C76.8221 16.885 76.5521 16.85 76.1821 16.85C75.6621 16.85 75.2071 17.06 74.8171 17.48C74.4371 17.9 74.2471 18.39 74.2471 18.95V23Z" fill="#3771E0"/>
</svg>
