<svg width="151" height="38" viewBox="0 0 151 38" fill="none" xmlns="http://www.w3.org/2000/svg">
<rect y="0.266235" width="150" height="37" rx="18.5" fill="#F2F2F2"/>
<rect x="19.4351" y="7.46338" width="27.565" height="24.0519" rx="5" fill="#DFDFDF"/>
<rect x="60.3892" y="11.1017" width="74.026" height="16.2754" rx="8" fill="#DFDFDF"/>
<rect x="0.5" y="1.5" width="150" height="35" rx="17.5" fill="#3771E0" stroke="#3771E0"/>
<path fill-rule="evenodd" clip-rule="evenodd" d="M43.2344 8.99454L50.6322 28.1133L43.3543 25.2879L35.7772 28.0029L43.2344 8.99454Z" fill="white"/>
<path d="M65.135 27.24C63.545 27.24 62.215 26.705 61.145 25.635C60.085 24.565 59.555 23.23 59.555 21.63C59.555 20.03 60.085 18.7 61.145 17.64C62.205 16.56 63.535 16.02 65.135 16.02C66.755 16.02 68.07 16.605 69.08 17.775L68.09 18.735C67.32 17.805 66.335 17.34 65.135 17.34C63.945 17.34 62.95 17.74 62.15 18.54C61.36 19.33 60.965 20.36 60.965 21.63C60.965 22.9 61.36 23.93 62.15 24.72C62.95 25.52 63.945 25.92 65.135 25.92C66.385 25.92 67.47 25.395 68.39 24.345L69.395 25.32C68.885 25.93 68.26 26.405 67.52 26.745C66.78 27.075 65.985 27.24 65.135 27.24ZM70.3548 23.325C70.3548 22.195 70.7098 21.26 71.4198 20.52C72.1398 19.78 73.0448 19.41 74.1348 19.41C75.2248 19.41 76.1248 19.78 76.8348 20.52C77.5548 21.26 77.9148 22.195 77.9148 23.325C77.9148 24.465 77.5548 25.4 76.8348 26.13C76.1248 26.87 75.2248 27.24 74.1348 27.24C73.0448 27.24 72.1398 26.87 71.4198 26.13C70.7098 25.39 70.3548 24.455 70.3548 23.325ZM71.7348 23.325C71.7348 24.115 71.9648 24.755 72.4248 25.245C72.8848 25.735 73.4548 25.98 74.1348 25.98C74.8148 25.98 75.3848 25.735 75.8448 25.245C76.3048 24.755 76.5348 24.115 76.5348 23.325C76.5348 22.545 76.3048 21.91 75.8448 21.42C75.3748 20.92 74.8048 20.67 74.1348 20.67C73.4648 20.67 72.8948 20.92 72.4248 21.42C71.9648 21.91 71.7348 22.545 71.7348 23.325ZM80.7018 27H79.3218V19.65H80.6418V20.67H80.7018C80.9118 20.31 81.2318 20.01 81.6618 19.77C82.1018 19.53 82.5368 19.41 82.9668 19.41C83.5068 19.41 83.9818 19.535 84.3918 19.785C84.8018 20.035 85.1018 20.38 85.2918 20.82C85.9018 19.88 86.7468 19.41 87.8268 19.41C88.6768 19.41 89.3318 19.67 89.7918 20.19C90.2518 20.71 90.4818 21.45 90.4818 22.41V27H89.1018V22.62C89.1018 21.93 88.9768 21.435 88.7268 21.135C88.4768 20.825 88.0568 20.67 87.4668 20.67C86.9368 20.67 86.4918 20.895 86.1318 21.345C85.7718 21.795 85.5918 22.325 85.5918 22.935V27H84.2118V22.62C84.2118 21.93 84.0868 21.435 83.8368 21.135C83.5868 20.825 83.1668 20.67 82.5768 20.67C82.0468 20.67 81.6018 20.895 81.2418 21.345C80.8818 21.795 80.7018 22.325 80.7018 22.935V27ZM95.6953 27.24C94.6153 27.24 93.7253 26.87 93.0253 26.13C92.3253 25.39 91.9753 24.455 91.9753 23.325C91.9753 22.205 92.3153 21.275 92.9953 20.535C93.6753 19.785 94.5453 19.41 95.6053 19.41C96.6953 19.41 97.5603 19.765 98.2003 20.475C98.8503 21.175 99.1753 22.16 99.1753 23.43L99.1603 23.58H93.3853C93.4053 24.3 93.6453 24.88 94.1053 25.32C94.5653 25.76 95.1153 25.98 95.7553 25.98C96.6353 25.98 97.3253 25.54 97.8253 24.66L99.0553 25.26C98.7253 25.88 98.2653 26.365 97.6753 26.715C97.0953 27.065 96.4353 27.24 95.6953 27.24ZM93.4903 22.44H97.7053C97.6653 21.93 97.4553 21.51 97.0753 21.18C96.7053 20.84 96.2053 20.67 95.5753 20.67C95.0553 20.67 94.6053 20.83 94.2253 21.15C93.8553 21.47 93.6103 21.9 93.4903 22.44ZM105.731 29.115C105.731 29.515 105.586 29.855 105.296 30.135C105.006 30.415 104.646 30.555 104.216 30.555C103.906 30.555 103.621 30.46 103.361 30.27C103.101 30.09 102.916 29.85 102.806 29.55L103.586 29.205C103.686 29.545 103.896 29.715 104.216 29.715C104.396 29.715 104.541 29.655 104.651 29.535C104.771 29.425 104.831 29.285 104.831 29.115C104.831 28.935 104.771 28.785 104.651 28.665C104.541 28.545 104.396 28.485 104.216 28.485C104.016 28.485 103.851 28.565 103.721 28.725L103.016 28.395L103.466 27.18C102.546 27.01 101.801 26.575 101.231 25.875C100.671 25.165 100.391 24.315 100.391 23.325C100.391 22.195 100.746 21.26 101.456 20.52C102.176 19.78 103.081 19.41 104.171 19.41C104.921 19.41 105.576 19.6 106.136 19.98C106.696 20.35 107.116 20.865 107.396 21.525L106.136 22.05C105.746 21.13 105.061 20.67 104.081 20.67C103.451 20.67 102.906 20.925 102.446 21.435C101.996 21.945 101.771 22.575 101.771 23.325C101.771 24.075 101.996 24.705 102.446 25.215C102.906 25.725 103.451 25.98 104.081 25.98C105.091 25.98 105.801 25.52 106.211 24.6L107.441 25.125C107.181 25.765 106.776 26.275 106.226 26.655C105.676 27.025 105.026 27.22 104.276 27.24L104.066 27.72L104.366 27.69C104.746 27.69 105.066 27.825 105.326 28.095C105.596 28.365 105.731 28.705 105.731 29.115ZM109.879 24.75C109.879 25.11 110.029 25.41 110.329 25.65C110.639 25.89 110.999 26.01 111.409 26.01C111.989 26.01 112.504 25.795 112.954 25.365C113.414 24.935 113.644 24.43 113.644 23.85C113.214 23.51 112.614 23.34 111.844 23.34C111.284 23.34 110.814 23.475 110.434 23.745C110.064 24.015 109.879 24.35 109.879 24.75ZM111.664 19.41C112.684 19.41 113.489 19.685 114.079 20.235C114.669 20.775 114.964 21.52 114.964 22.47V27H113.644V25.98H113.584C113.014 26.82 112.254 27.24 111.304 27.24C110.494 27.24 109.814 27 109.264 26.52C108.724 26.04 108.454 25.44 108.454 24.72C108.454 23.96 108.739 23.355 109.309 22.905C109.889 22.455 110.659 22.23 111.619 22.23C112.439 22.23 113.114 22.38 113.644 22.68V22.365C113.644 21.885 113.454 21.48 113.074 21.15C112.694 20.81 112.249 20.64 111.739 20.64C110.969 20.64 110.359 20.965 109.909 21.615L108.694 20.85C109.364 19.89 110.354 19.41 111.664 19.41ZM118.201 27H116.821V19.65H118.141V20.85H118.201C118.341 20.46 118.626 20.13 119.056 19.86C119.496 19.58 119.926 19.44 120.346 19.44C120.746 19.44 121.086 19.5 121.366 19.62L120.946 20.955C120.776 20.885 120.506 20.85 120.136 20.85C119.616 20.85 119.161 21.06 118.771 21.48C118.391 21.9 118.201 22.39 118.201 22.95V27Z" fill="white"/>
</svg>
