<svg width="104" height="36" viewBox="0 0 104 36" fill="none" xmlns="http://www.w3.org/2000/svg">
<rect x="0.5" y="0.5" width="103" height="35" rx="17.5" fill="white" stroke="#E1E3E6"/>
<circle cx="18" cy="12" r="2" fill="#5083E4"/>
<circle cx="18" cy="18" r="2" fill="#5083E4"/>
<circle cx="18" cy="24" r="2" fill="#5083E4"/>
<rect x="21" y="11" width="14" height="2" fill="#5083E4"/>
<rect x="21" y="17" width="14" height="2" fill="#5083E4"/>
<rect x="21" y="23" width="14" height="2" fill="#5083E4"/>
<path d="M46.46 19.65V24H45.08V13.26H48.74C49.67 13.26 50.46 13.57 51.11 14.19C51.77 14.81 52.1 15.565 52.1 16.455C52.1 17.365 51.77 18.125 51.11 18.735C50.47 19.345 49.68 19.65 48.74 19.65H46.46ZM46.46 14.58V18.33H48.77C49.32 18.33 49.775 18.145 50.135 17.775C50.505 17.405 50.69 16.965 50.69 16.455C50.69 15.955 50.505 15.52 50.135 15.15C49.775 14.77 49.32 14.58 48.77 14.58H46.46ZM54.3188 21.75C54.3188 22.11 54.4688 22.41 54.7688 22.65C55.0788 22.89 55.4388 23.01 55.8488 23.01C56.4288 23.01 56.9438 22.795 57.3938 22.365C57.8538 21.935 58.0838 21.43 58.0838 20.85C57.6538 20.51 57.0538 20.34 56.2838 20.34C55.7238 20.34 55.2538 20.475 54.8738 20.745C54.5038 21.015 54.3188 21.35 54.3188 21.75ZM56.1038 16.41C57.1238 16.41 57.9288 16.685 58.5188 17.235C59.1088 17.775 59.4038 18.52 59.4038 19.47V24H58.0838V22.98H58.0238C57.4538 23.82 56.6938 24.24 55.7438 24.24C54.9338 24.24 54.2538 24 53.7038 23.52C53.1638 23.04 52.8938 22.44 52.8938 21.72C52.8938 20.96 53.1788 20.355 53.7488 19.905C54.3288 19.455 55.0988 19.23 56.0588 19.23C56.8788 19.23 57.5538 19.38 58.0838 19.68V19.365C58.0838 18.885 57.8938 18.48 57.5138 18.15C57.1338 17.81 56.6888 17.64 56.1788 17.64C55.4088 17.64 54.7988 17.965 54.3488 18.615L53.1338 17.85C53.8038 16.89 54.7938 16.41 56.1038 16.41ZM66.8121 21.96C66.8121 22.6 66.5321 23.14 65.9721 23.58C65.4121 24.02 64.7071 24.24 63.8571 24.24C63.1171 24.24 62.4671 24.05 61.9071 23.67C61.3471 23.28 60.9471 22.77 60.7071 22.14L61.9371 21.615C62.1171 22.055 62.3771 22.4 62.7171 22.65C63.0671 22.89 63.4471 23.01 63.8571 23.01C64.2971 23.01 64.6621 22.915 64.9521 22.725C65.2521 22.535 65.4021 22.31 65.4021 22.05C65.4021 21.58 65.0421 21.235 64.3221 21.015L63.0621 20.7C61.6321 20.34 60.9171 19.65 60.9171 18.63C60.9171 17.96 61.1871 17.425 61.7271 17.025C62.2771 16.615 62.9771 16.41 63.8271 16.41C64.4771 16.41 65.0621 16.565 65.5821 16.875C66.1121 17.185 66.4821 17.6 66.6921 18.12L65.4621 18.63C65.3221 18.32 65.0921 18.08 64.7721 17.91C64.4621 17.73 64.1121 17.64 63.7221 17.64C63.3621 17.64 63.0371 17.73 62.7471 17.91C62.4671 18.09 62.3271 18.31 62.3271 18.57C62.3271 18.99 62.7221 19.29 63.5121 19.47L64.6221 19.755C66.0821 20.115 66.8121 20.85 66.8121 21.96ZM73.9382 21.96C73.9382 22.6 73.6582 23.14 73.0982 23.58C72.5382 24.02 71.8332 24.24 70.9832 24.24C70.2432 24.24 69.5932 24.05 69.0332 23.67C68.4732 23.28 68.0732 22.77 67.8332 22.14L69.0632 21.615C69.2432 22.055 69.5032 22.4 69.8432 22.65C70.1932 22.89 70.5732 23.01 70.9832 23.01C71.4232 23.01 71.7882 22.915 72.0782 22.725C72.3782 22.535 72.5282 22.31 72.5282 22.05C72.5282 21.58 72.1682 21.235 71.4482 21.015L70.1882 20.7C68.7582 20.34 68.0432 19.65 68.0432 18.63C68.0432 17.96 68.3132 17.425 68.8532 17.025C69.4032 16.615 70.1032 16.41 70.9532 16.41C71.6032 16.41 72.1882 16.565 72.7082 16.875C73.2382 17.185 73.6082 17.6 73.8182 18.12L72.5882 18.63C72.4482 18.32 72.2182 18.08 71.8982 17.91C71.5882 17.73 71.2382 17.64 70.8482 17.64C70.4882 17.64 70.1632 17.73 69.8732 17.91C69.5932 18.09 69.4532 18.31 69.4532 18.57C69.4532 18.99 69.8482 19.29 70.6382 19.47L71.7482 19.755C73.2082 20.115 73.9382 20.85 73.9382 21.96ZM75.0927 20.325C75.0927 19.195 75.4477 18.26 76.1577 17.52C76.8777 16.78 77.7827 16.41 78.8727 16.41C79.9627 16.41 80.8627 16.78 81.5727 17.52C82.2927 18.26 82.6527 19.195 82.6527 20.325C82.6527 21.465 82.2927 22.4 81.5727 23.13C80.8627 23.87 79.9627 24.24 78.8727 24.24C77.7827 24.24 76.8777 23.87 76.1577 23.13C75.4477 22.39 75.0927 21.455 75.0927 20.325ZM76.4727 20.325C76.4727 21.115 76.7027 21.755 77.1627 22.245C77.6227 22.735 78.1927 22.98 78.8727 22.98C79.5527 22.98 80.1227 22.735 80.5827 22.245C81.0427 21.755 81.2727 21.115 81.2727 20.325C81.2727 19.545 81.0427 18.91 80.5827 18.42C80.1127 17.92 79.5427 17.67 78.8727 17.67C78.2027 17.67 77.6327 17.92 77.1627 18.42C76.7027 18.91 76.4727 19.545 76.4727 20.325ZM89.758 21.96C89.758 22.6 89.478 23.14 88.918 23.58C88.358 24.02 87.653 24.24 86.803 24.24C86.063 24.24 85.413 24.05 84.853 23.67C84.293 23.28 83.893 22.77 83.653 22.14L84.883 21.615C85.063 22.055 85.323 22.4 85.663 22.65C86.013 22.89 86.393 23.01 86.803 23.01C87.243 23.01 87.608 22.915 87.898 22.725C88.198 22.535 88.348 22.31 88.348 22.05C88.348 21.58 87.988 21.235 87.268 21.015L86.008 20.7C84.578 20.34 83.863 19.65 83.863 18.63C83.863 17.96 84.133 17.425 84.673 17.025C85.223 16.615 85.923 16.41 86.773 16.41C87.423 16.41 88.008 16.565 88.528 16.875C89.058 17.185 89.428 17.6 89.638 18.12L88.408 18.63C88.268 18.32 88.038 18.08 87.718 17.91C87.408 17.73 87.058 17.64 86.668 17.64C86.308 17.64 85.983 17.73 85.693 17.91C85.413 18.09 85.273 18.31 85.273 18.57C85.273 18.99 85.668 19.29 86.458 19.47L87.568 19.755C89.028 20.115 89.758 20.85 89.758 21.96Z" fill="#5083E4"/>
</svg>
