<svg width="79" height="28" viewBox="0 0 79 28" fill="none" xmlns="http://www.w3.org/2000/svg">
<rect width="79" height="28" rx="14" fill="#5383EC" fill-opacity="0.3"/>
<rect x="0.25" y="0.25" width="78.5" height="27.5" rx="13.75" stroke="#5383EC" stroke-opacity="0.3" stroke-width="0.5"/>
<path fill-rule="evenodd" clip-rule="evenodd" d="M11 14.3437C11.4883 10.9607 12.6748 9.00976 13.0039 9C13.9302 9 15.027 9.00004 16.1474 9.00008C18.462 9.00016 20.8773 9.00024 22.0976 9C22.4742 9.00702 23.6648 10.915 24.3203 14.3437C24.3203 17.5812 24.3291 20.9961 24.3291 20.9961H23.9805V21.3633L22.3204 21.3399L22.3243 21.0078L21.9766 21.0039L21.9805 19.3359H13.3399L13.3321 21H13.0039L12.9961 21.3438L11.3125 21.3282L11.3047 20.6291H11V14.3437ZM22.0187 12.9997H13.0976C13.1132 11.5256 13.7309 10.7034 13.7309 10.7034L21.3307 10.6747C21.3307 10.6747 22.0187 11.4172 22.0187 12.9997ZM12.6094 14.6482L12.5976 17.9997L22.6679 18.0193V14.6872L12.6094 14.6482ZM13.4976 15.9997C13.4976 16.552 13.9454 16.9997 14.4976 16.9997C15.0499 16.9997 15.4976 16.552 15.4976 15.9997C15.4976 15.4474 15.0499 14.9997 14.4976 14.9997C13.9454 14.9997 13.4976 15.4474 13.4976 15.9997ZM20.0976 15.9999C20.0976 16.5521 20.5454 16.9999 21.0976 16.9999C21.6499 16.9999 22.0976 16.5521 22.0976 15.9999C22.0976 15.4476 21.6499 14.9999 21.0976 14.9999C20.5454 14.9999 20.0976 15.4476 20.0976 15.9999Z" fill="#527DD3"/>
<path d="M39.855 17.84V20H38.475V17.84H33.6V16.79L38.355 9.74H39.855V16.55H41.175V17.84H39.855ZM35.16 16.55H38.475V11.765H38.415L35.16 16.55ZM47.9489 20H46.5689V12.65H47.8889V13.67H47.9489C48.1589 13.31 48.4789 13.01 48.9089 12.77C49.3489 12.53 49.7839 12.41 50.2139 12.41C50.7539 12.41 51.2289 12.535 51.6389 12.785C52.0489 13.035 52.3489 13.38 52.5389 13.82C53.1489 12.88 53.9939 12.41 55.0739 12.41C55.9239 12.41 56.5789 12.67 57.0389 13.19C57.4989 13.71 57.7289 14.45 57.7289 15.41V20H56.3489V15.62C56.3489 14.93 56.2239 14.435 55.9739 14.135C55.7239 13.825 55.3039 13.67 54.7139 13.67C54.1839 13.67 53.7389 13.895 53.3789 14.345C53.0189 14.795 52.8389 15.325 52.8389 15.935V20H51.4589V15.62C51.4589 14.93 51.3339 14.435 51.0839 14.135C50.8339 13.825 50.4139 13.67 49.8239 13.67C49.2939 13.67 48.8489 13.895 48.4889 14.345C48.1289 14.795 47.9489 15.325 47.9489 15.935V20ZM61.4273 10.115C61.4273 10.385 61.3323 10.615 61.1423 10.805C60.9523 10.995 60.7223 11.09 60.4523 11.09C60.1823 11.09 59.9523 10.995 59.7623 10.805C59.5723 10.615 59.4773 10.385 59.4773 10.115C59.4773 9.845 59.5723 9.615 59.7623 9.425C59.9523 9.235 60.1823 9.14 60.4523 9.14C60.7223 9.14 60.9523 9.235 61.1423 9.425C61.3323 9.615 61.4273 9.845 61.4273 10.115ZM61.1423 12.65V20H59.7623V12.65H61.1423ZM63.2382 12.65H64.5582V13.67H64.6182C64.8282 13.31 65.1482 13.01 65.5782 12.77C66.0182 12.53 66.4732 12.41 66.9432 12.41C67.8432 12.41 68.5332 12.67 69.0132 13.19C69.5032 13.7 69.7482 14.43 69.7482 15.38V20H68.3682V15.47C68.3382 14.27 67.7332 13.67 66.5532 13.67C66.0032 13.67 65.5432 13.895 65.1732 14.345C64.8032 14.785 64.6182 15.315 64.6182 15.935V20H63.2382V12.65Z" fill="#527DD3"/>
</svg>
