<svg width="13" height="16" viewBox="0 0 13 16" fill="none" xmlns="http://www.w3.org/2000/svg">
<path d="M1 8C1 8 1 10.5 1 11.5C1 12.5 1.5 14 3.5 14C5.5 14 8 14 9.5 14C11 14 12 12.5 12 11.5C12 10.5 12 8 12 8M1 8H6M1 8C1 8 1 5.22992 1 4C1 2.77008 1.5 2 2.5 2C3.5 2 6 2 6 2M12 8C12 8 12 4.27563 12 3.5C12 2.72437 11.5 2 10.5 2C9.5 2 7 2 7 2M12 8H7M6 8V2M6 8H7M6 2H7M7 8V2M4 9.5V11.5" stroke="black"/>
<path d="M9 9.5V11.5" stroke="black"/>
<path d="M2.5 15H10.5" stroke="black" stroke-opacity="0.83"/>
<path d="M2.5 14H10.5" stroke="black"/>
<path d="M1.5 3H5.5H7.5H11.5" stroke="black"/>
<path d="M1.5 7H5.5H7.5H11.5" stroke="black" stroke-opacity="0.5"/>
<path d="M1.5 4H5.5" stroke="black" stroke-opacity="0.5"/>
<path d="M7.5 4H11.5" stroke="black" stroke-opacity="0.5"/>
<path d="M3.5 1H9.5" stroke="black" stroke-opacity="0.78"/>
</svg>
