<svg width="109" height="38" viewBox="0 0 109 38" fill="none" xmlns="http://www.w3.org/2000/svg">
<g filter="url(#filter0_d_42_603)">
<path fill-rule="evenodd" clip-rule="evenodd" d="M19.4427 2H89.5573C89.81 2 90.0626 2.00602 90.315 2.01807C90.5674 2.03011 90.8194 2.04816 91.071 2.07222C91.3224 2.09629 91.5732 2.12632 91.8232 2.16234C92.0732 2.19836 92.3221 2.24031 92.57 2.2882C92.8179 2.33609 93.0644 2.38986 93.3096 2.4495C93.5547 2.50915 93.7982 2.5746 94.0401 2.64586C94.2819 2.71711 94.5218 2.79409 94.7597 2.87679C94.9977 2.95949 95.2335 3.0478 95.4669 3.14174C95.7004 3.23567 95.9314 3.33512 96.1599 3.44008C96.3884 3.54503 96.614 3.65536 96.8369 3.77107C97.0598 3.88679 97.2797 4.00774 97.4965 4.13395C97.7132 4.26014 97.9266 4.39143 98.1368 4.52781C98.3469 4.66418 98.5536 4.80548 98.7569 4.95171C98.9595 5.09794 99.1587 5.24891 99.3544 5.40463C99.5495 5.56036 99.7408 5.72065 99.9283 5.8855C100.115 6.05035 100.298 6.21956 100.477 6.39314C100.655 6.56671 100.83 6.74443 101 6.92632C101.17 7.1082 101.334 7.29402 101.494 7.48377C101.655 7.67352 101.81 7.86698 101.961 8.06414C102.112 8.26131 102.257 8.46194 102.398 8.66604C102.538 8.87014 102.673 9.07747 102.803 9.28802C102.933 9.49856 103.057 9.71208 103.176 9.92857C103.296 10.1451 103.409 10.3642 103.517 10.5862C103.625 10.8081 103.728 11.0324 103.825 11.2592C103.921 11.486 104.012 11.7149 104.098 11.9461C104.183 12.1772 104.262 12.4102 104.335 12.6451C104.408 12.88 104.476 13.1165 104.537 13.3546C104.599 13.5927 104.654 13.8322 104.704 14.0729C104.753 14.3137 104.796 14.5555 104.833 14.7983C104.87 15.0411 104.901 15.2847 104.925 15.5289C104.951 15.7732 104.969 16.0179 104.981 16.2632C104.994 16.5083 105 16.7536 105 16.9991V17.0009C105 17.2464 104.994 17.4917 104.981 17.7369C104.969 17.9821 104.951 18.2268 104.925 18.4711C104.901 18.7154 104.87 18.9589 104.833 19.2017C104.796 19.4445 104.753 19.6863 104.704 19.9271C104.654 20.1679 104.599 20.4073 104.537 20.6454C104.476 20.8835 104.408 21.12 104.335 21.3549C104.262 21.5898 104.183 21.8228 104.098 22.054C104.012 22.2851 103.921 22.5141 103.825 22.7409C103.728 22.9676 103.625 23.192 103.517 23.4139C103.409 23.6358 103.296 23.8549 103.176 24.0714C103.057 24.2879 102.933 24.5015 102.803 24.712C102.673 24.9226 102.538 25.1299 102.398 25.334C102.257 25.5381 102.112 25.7387 101.961 25.9359C101.81 26.133 101.655 26.3265 101.494 26.5163C101.334 26.706 101.17 26.8918 101 27.0737C100.83 27.2556 100.655 27.4333 100.477 27.6069C100.298 27.7805 100.115 27.9497 99.9283 28.1146C99.7408 28.2794 99.5495 28.4397 99.3544 28.5953C99.1587 28.7511 98.9595 28.9021 98.7569 29.0483C98.5536 29.1945 98.3469 29.3358 98.1368 29.4722C97.9266 29.6086 97.7132 29.7399 97.4965 29.866C97.2797 29.9923 97.0598 30.1132 96.8369 30.2289C96.614 30.3447 96.3884 30.455 96.1599 30.56C95.9314 30.6649 95.7004 30.7644 95.4669 30.8583C95.2335 30.9522 94.9977 31.0406 94.7597 31.1233C94.5218 31.206 94.2819 31.2829 94.0401 31.3542C93.7982 31.4254 93.5547 31.4908 93.3096 31.5505C93.0644 31.6101 92.8179 31.6639 92.57 31.7119C92.3221 31.7597 92.0732 31.8017 91.8232 31.8377C91.5732 31.8737 91.3224 31.9037 91.071 31.9278C90.8194 31.9518 90.5674 31.9699 90.315 31.9819C90.0626 31.994 89.81 32 89.5573 32H19.4427C19.19 32 18.9374 31.994 18.685 31.9819C18.4326 31.9699 18.1806 31.9518 17.929 31.9278C17.6776 31.9037 17.4268 31.8737 17.1768 31.8377C16.9268 31.8017 16.6779 31.7597 16.43 31.7119C16.1821 31.6639 15.9356 31.6101 15.6904 31.5505C15.4453 31.4908 15.2017 31.4254 14.9599 31.3542C14.7181 31.2829 14.4782 31.206 14.2403 31.1233C14.0023 31.0406 13.7665 30.9522 13.5331 30.8583C13.2996 30.7644 13.0686 30.6649 12.8401 30.56C12.6116 30.455 12.386 30.3447 12.1631 30.2289C11.9402 30.1132 11.7203 29.9923 11.5036 29.866C11.2868 29.7399 11.0733 29.6086 10.8632 29.4722C10.6531 29.3358 10.4465 29.1945 10.2435 29.0483C10.0405 28.9021 9.84133 28.7511 9.64597 28.5953C9.4506 28.4397 9.25928 28.2794 9.07202 28.1146C8.88476 27.9497 8.70178 27.7805 8.52307 27.6069C8.34436 27.4333 8.17015 27.2556 8.00042 27.0737C7.8307 26.8918 7.66567 26.706 7.50533 26.5163C7.345 26.3265 7.18956 26.133 7.03901 25.9359C6.88846 25.7387 6.74298 25.5381 6.60257 25.334C6.46216 25.1299 6.32699 24.9226 6.19706 24.712C6.06713 24.5015 5.94259 24.2879 5.82346 24.0714C5.70432 23.8549 5.59072 23.6358 5.48267 23.4139C5.37461 23.192 5.27222 22.9676 5.17551 22.7409C5.07879 22.5141 4.98786 22.2851 4.90272 22.054C4.81758 21.8228 4.73832 21.5898 4.66496 21.3549C4.59159 21.12 4.52421 20.8835 4.4628 20.6454C4.40139 20.4073 4.34603 20.1679 4.29673 19.9271C4.24742 19.6863 4.20423 19.4445 4.16714 19.2017C4.13006 18.9589 4.09913 18.7154 4.07436 18.4711C4.04959 18.2268 4.031 17.9821 4.0186 17.7369C4.0062 17.4917 4 17.2464 4 17.0009V16.9991C4 16.7536 4.0062 16.5083 4.0186 16.2632C4.031 16.0179 4.04959 15.7732 4.07436 15.5289C4.09913 15.2847 4.13006 15.0411 4.16714 14.7983C4.20423 14.5555 4.24742 14.3137 4.29673 14.0729C4.34603 13.8322 4.40139 13.5927 4.4628 13.3546C4.52421 13.1165 4.59159 12.88 4.66496 12.6451C4.73832 12.4102 4.81758 12.1772 4.90272 11.9461C4.98786 11.7149 5.07879 11.486 5.17551 11.2592C5.27222 11.0324 5.37461 10.8081 5.48267 10.5862C5.59072 10.3642 5.70432 10.1451 5.82346 9.92857C5.94259 9.71208 6.06713 9.49856 6.19706 9.28802C6.32699 9.07747 6.46216 8.87014 6.60257 8.66604C6.74298 8.46194 6.88846 8.26131 7.03901 8.06414C7.18956 7.86698 7.345 7.67352 7.50533 7.48377C7.66567 7.29402 7.8307 7.1082 8.00042 6.92632C8.17015 6.74443 8.34436 6.56671 8.52307 6.39314C8.70178 6.21956 8.88476 6.05035 9.07202 5.8855C9.25928 5.72065 9.4506 5.56036 9.64597 5.40463C9.84133 5.24891 10.0405 5.09794 10.2435 4.95171C10.4465 4.80548 10.6531 4.66418 10.8632 4.52781C11.0733 4.39143 11.2868 4.26014 11.5036 4.13395C11.7203 4.00774 11.9402 3.88679 12.1631 3.77107C12.386 3.65536 12.6116 3.54503 12.8401 3.44008C13.0686 3.33512 13.2996 3.23567 13.5331 3.14174C13.7665 3.0478 14.0023 2.95949 14.2403 2.87679C14.4782 2.79409 14.7181 2.71711 14.9599 2.64586C15.2017 2.5746 15.4453 2.50915 15.6904 2.4495C15.9356 2.38986 16.1821 2.33609 16.43 2.2882C16.6779 2.24031 16.9268 2.19836 17.1768 2.16234C17.4268 2.12632 17.6776 2.09629 17.929 2.07222C18.1806 2.04816 18.4326 2.03011 18.685 2.01807C18.9374 2.00602 19.19 2 19.4427 2Z" fill="white"/>
</g>
<path d="M87.27 12.91C87.27 13.162 87.1813 13.3767 87.004 13.554C86.8267 13.7313 86.612 13.82 86.36 13.82C86.108 13.82 85.8933 13.7313 85.716 13.554C85.5387 13.3767 85.45 13.162 85.45 12.91C85.45 12.658 85.5387 12.4433 85.716 12.266C85.8933 12.0887 86.108 12 86.36 12C86.612 12 86.8267 12.0887 87.004 12.266C87.1813 12.4433 87.27 12.658 87.27 12.91ZM38.872 22.136H37.528L34 12.112H35.428L38.172 20.246H38.228L41.084 12.112H42.512L38.872 22.136ZM76.596 12.112L75.588 13.904H74.468L75.196 12.112H76.596ZM61.554 22.248C60.994 22.248 60.5297 22.0753 60.161 21.73C59.7923 21.3847 59.6033 20.904 59.594 20.288V16.452H58.39V15.276H59.594V13.176H60.882V15.276H62.562V16.452H60.882V19.868C60.882 20.3253 60.9707 20.6357 61.148 20.799C61.3253 20.9623 61.526 21.044 61.75 21.044C61.8527 21.044 61.953 21.0323 62.051 21.009C62.149 20.9857 62.24 20.9553 62.324 20.918L62.73 22.066C62.394 22.1873 62.002 22.248 61.554 22.248ZM47.044 22.36C46.036 22.36 45.2053 22.0147 44.552 21.324C43.8987 20.6333 43.572 19.7607 43.572 18.706C43.572 17.6607 43.8893 16.7903 44.524 16.095C45.1587 15.3997 45.9707 15.052 46.96 15.052C47.9773 15.052 48.787 15.381 49.389 16.039C49.991 16.697 50.292 17.6187 50.292 18.804L50.278 18.944H44.888C44.9067 19.616 45.1307 20.1573 45.56 20.568C45.9893 20.9787 46.5027 21.184 47.1 21.184C47.9213 21.184 48.5653 20.7733 49.032 19.952L50.18 20.512C49.872 21.0907 49.445 21.5433 48.899 21.87C48.353 22.1967 47.7347 22.36 47.044 22.36ZM56.434 21.744C56.9567 21.3333 57.218 20.8293 57.218 20.232C57.218 19.196 56.5367 18.51 55.174 18.174L54.138 17.908C53.4007 17.74 53.032 17.46 53.032 17.068C53.032 16.8253 53.165 16.62 53.431 16.452C53.697 16.284 53.998 16.2 54.334 16.2C54.698 16.2 55.027 16.2817 55.321 16.445C55.615 16.6083 55.8273 16.8347 55.958 17.124L57.106 16.648C56.91 16.1627 56.567 15.7753 56.077 15.486C55.587 15.1967 55.0387 15.052 54.432 15.052C53.6387 15.052 52.9877 15.241 52.479 15.619C51.9703 15.997 51.716 16.4987 51.716 17.124C51.716 18.076 52.3833 18.72 53.718 19.056L54.894 19.35C55.566 19.5553 55.902 19.8773 55.902 20.316C55.902 20.5587 55.7643 20.7687 55.489 20.946C55.2137 21.1233 54.8707 21.212 54.46 21.212C54.0773 21.212 53.725 21.0977 53.403 20.869C53.081 20.6403 52.836 20.3207 52.668 19.91L51.52 20.4C51.744 20.988 52.1173 21.4617 52.64 21.821C53.1627 22.1803 53.7693 22.36 54.46 22.36C55.2533 22.36 55.9113 22.1547 56.434 21.744ZM74.986 15.052C75.938 15.052 76.6893 15.3063 77.24 15.815C77.7907 16.3237 78.066 17.0213 78.066 17.908V22.136H76.834V21.184H76.778C76.246 21.968 75.5367 22.36 74.65 22.36C73.894 22.36 73.2617 22.136 72.753 21.688C72.2443 21.24 71.99 20.68 71.99 20.008C71.99 19.2987 72.2583 18.734 72.795 18.314C73.3317 17.894 74.048 17.684 74.944 17.684C75.7093 17.684 76.3393 17.824 76.834 18.104V17.81C76.834 17.362 76.6567 16.9817 76.302 16.669C75.9473 16.3563 75.532 16.2 75.056 16.2C74.3373 16.2 73.768 16.5033 73.348 17.11L72.214 16.396C72.8393 15.5 73.7633 15.052 74.986 15.052ZM89.786 16.088C89.1233 16.7787 88.792 17.6513 88.792 18.706C88.792 19.7607 89.1233 20.6333 89.786 21.324C90.458 22.0147 91.3027 22.36 92.32 22.36C93.3373 22.36 94.1773 22.0147 94.84 21.324C95.512 20.6427 95.848 19.77 95.848 18.706C95.848 17.6513 95.512 16.7787 94.84 16.088C94.1773 15.3973 93.3373 15.052 92.32 15.052C91.3027 15.052 90.458 15.3973 89.786 16.088ZM80.022 22.136H81.31V18.356C81.31 17.8333 81.4897 17.376 81.849 16.984C82.2083 16.592 82.6307 16.396 83.116 16.396C83.4613 16.396 83.7133 16.4287 83.872 16.494L84.264 15.248C84.0027 15.136 83.6853 15.08 83.312 15.08C82.92 15.08 82.521 15.2083 82.115 15.465C81.709 15.7217 81.4407 16.032 81.31 16.396H81.254V15.276H80.022V22.136ZM69.082 22.136H70.314V15.276H69.026V19.07C69.026 19.6487 68.8533 20.1457 68.508 20.561C68.1627 20.9763 67.7333 21.184 67.22 21.184C66.1187 21.184 65.554 20.624 65.526 19.504V15.276H64.238V19.588C64.238 20.4747 64.4643 21.1583 64.917 21.639C65.3697 22.1197 66.016 22.36 66.856 22.36C67.2947 22.36 67.717 22.248 68.123 22.024C68.529 21.8 68.83 21.52 69.026 21.184H69.082V22.136ZM87.004 15.276V22.136H85.716V15.276H87.004ZM44.986 17.88H48.92C48.8827 17.404 48.689 17.0097 48.339 16.697C47.989 16.3843 47.52 16.228 46.932 16.228C46.4467 16.228 46.029 16.3773 45.679 16.676C45.329 16.9747 45.098 17.376 44.986 17.88ZM90.724 20.498C90.2947 20.0407 90.08 19.4433 90.08 18.706C90.08 17.978 90.2947 17.3853 90.724 16.928C91.1627 16.4613 91.6947 16.228 92.32 16.228C92.9453 16.228 93.4773 16.4613 93.916 16.928C94.3453 17.3853 94.56 17.978 94.56 18.706C94.56 19.4433 94.3453 20.0407 93.916 20.498C93.4867 20.9553 92.9547 21.184 92.32 21.184C91.6853 21.184 91.1533 20.9553 90.724 20.498ZM73.32 20.036C73.32 20.372 73.4623 20.652 73.747 20.876C74.0317 21.1 74.3653 21.212 74.748 21.212C75.2893 21.212 75.7723 21.0113 76.197 20.61C76.6217 20.2087 76.834 19.7373 76.834 19.196C76.4327 18.8787 75.8727 18.72 75.154 18.72C74.6313 18.72 74.195 18.846 73.845 19.098C73.495 19.35 73.32 19.6627 73.32 20.036Z" fill="#3C4042"/>
<path fill-rule="evenodd" clip-rule="evenodd" d="M11 13.126C11 13.1807 13.0608 16.356 13.0625 16.376C13.0625 16.4162 14.991 14.91 15 14.9385C15.0272 14.967 14.8332 23.4385 15 23.4385C15 23.4158 23.5328 23.4789 23.5001 23.4385C23.5001 23.0714 23.5001 14.9846 23.5001 14.9385C23.5001 14.8924 24.4565 15.873 25.25 16.4385C25.25 16.4878 27.6516 13.2539 27.625 13.251C27.6533 13.2846 22.4375 10.0176 22.4375 10.0634C20.3437 13.3134 18.4375 13.1729 16 10.001C16 9.936 11 13.0713 11 13.126Z" stroke="#3C4042" stroke-width="1.5"/>
<defs>
<filter id="filter0_d_42_603" x="0" y="0" width="109" height="38" filterUnits="userSpaceOnUse" color-interpolation-filters="sRGB">
<feFlood flood-opacity="0" result="BackgroundImageFix"/>
<feColorMatrix in="SourceAlpha" type="matrix" values="0 0 0 0 0 0 0 0 0 0 0 0 0 0 0 0 0 0 127 0" result="hardAlpha"/>
<feOffset dy="2"/>
<feGaussianBlur stdDeviation="2"/>
<feColorMatrix type="matrix" values="0 0 0 0 0.392157 0 0 0 0 0.392157 0 0 0 0 0.392157 0 0 0 0.498039 0"/>
<feBlend mode="normal" in2="BackgroundImageFix" result="effect1_dropShadow_42_603"/>
<feBlend mode="normal" in="SourceGraphic" in2="effect1_dropShadow_42_603" result="shape"/>
</filter>
</defs>
</svg>
