<svg width="20" height="20" viewBox="0 0 20 20" fill="none" xmlns="http://www.w3.org/2000/svg">
<mask id="mask0_42_611" style="mask-type:luminance" maskUnits="userSpaceOnUse" x="0" y="0" width="20" height="20">
<path d="M0 10C0 4.47715 4.47715 0 10 0C15.5228 0 20 4.47715 20 10C20 15.5228 15.5228 20 10 20C4.47715 20 0 15.5228 0 10Z" fill="white"/>
</mask>
<g mask="url(#mask0_42_611)">
<path d="M0 10C0 4.47715 4.47715 0 10 0C15.5228 0 20 4.47715 20 10C20 15.5228 15.5228 20 10 20C4.47715 20 0 15.5228 0 10Z" stroke="#717579" stroke-width="4"/>
</g>
<path fill-rule="evenodd" clip-rule="evenodd" d="M8.99994 4.99994H10.9999V14.9999H8.99994V4.99994Z" fill="#717579"/>
<path fill-rule="evenodd" clip-rule="evenodd" d="M4.99994 10.9999L4.99994 8.99994H14.9999V10.9999H4.99994Z" fill="#717579"/>
</svg>
