<svg width="66" height="67" viewBox="0 0 66 67" fill="none" xmlns="http://www.w3.org/2000/svg">
<g filter="url(#filter0_d_42_606)">
<path fill-rule="evenodd" clip-rule="evenodd" d="M32.499 1.99994H32.551C33.0174 1.99994 33.4835 2.01138 33.9494 2.03427C34.4152 2.05715 34.8802 2.09145 35.3444 2.13717C35.8085 2.18288 36.2713 2.23996 36.7327 2.3084C37.194 2.37683 37.6534 2.45655 38.1109 2.54754C38.5684 2.63853 39.0233 2.74069 39.4757 2.85402C39.9281 2.96735 40.3775 3.09171 40.8238 3.2271C41.2701 3.36249 41.7129 3.50875 42.152 3.66588C42.5911 3.82301 43.0262 3.99081 43.4571 4.1693C43.888 4.34779 44.3143 4.53674 44.7359 4.73615C45.1575 4.93556 45.574 5.1452 45.9853 5.36507C46.3966 5.58493 46.8023 5.81475 47.2024 6.05453C47.6025 6.29431 47.9964 6.54376 48.3842 6.80289C48.772 7.06201 49.1532 7.33049 49.5278 7.60833C49.9025 7.88617 50.2701 8.17303 50.6306 8.46892C50.9911 8.7648 51.3442 9.06935 51.6898 9.38257C52.0353 9.69579 52.373 10.0173 52.7028 10.3471C53.0326 10.6769 53.3541 11.0146 53.6674 11.3602C53.9806 11.7058 54.2851 12.0588 54.581 12.4193C54.8769 12.7799 55.1637 13.1475 55.4416 13.5221C55.7195 13.8967 55.988 14.2779 56.2471 14.6657C56.5062 15.0535 56.7556 15.4475 56.9954 15.8475C57.2352 16.2476 57.465 16.6533 57.6849 17.0646C57.9048 17.476 58.1144 17.8924 58.3138 18.314C58.5132 18.7356 58.7021 19.1619 58.8806 19.5928C59.0591 20.0238 59.227 20.4588 59.3841 20.8979C59.5412 21.3371 59.6875 21.7798 59.8228 22.2261C59.9582 22.6725 60.0826 23.1218 60.1959 23.5742C60.3092 24.0266 60.4114 24.4816 60.5024 24.939C60.5934 25.3965 60.6731 25.8559 60.7415 26.3172C60.81 26.7786 60.8671 27.2414 60.9128 27.7055C60.9585 28.1697 60.9928 28.6347 61.0157 29.1005C61.0386 29.5664 61.05 30.0325 61.05 30.4989V30.5009C61.05 30.9673 61.0386 31.4335 61.0157 31.8993C60.9928 32.3651 60.9585 32.8301 60.9128 33.2943C60.8671 33.7585 60.81 34.2212 60.7415 34.6826C60.6731 35.144 60.5934 35.6034 60.5024 36.0608C60.4114 36.5182 60.3092 36.9732 60.1959 37.4256C60.0826 37.878 59.9582 38.3274 59.8228 38.7737C59.6875 39.2201 59.5412 39.6628 59.3841 40.1019C59.227 40.5411 59.0591 40.9761 58.8806 41.407C58.7021 41.8379 58.5132 42.2642 58.3138 42.6858C58.1144 43.1074 57.9048 43.5239 57.6849 43.9352C57.465 44.3466 57.2352 44.7523 56.9954 45.1523C56.7556 45.5524 56.5061 45.9463 56.247 46.3341C55.9879 46.7219 55.7195 47.1031 55.4416 47.4777C55.1637 47.8524 54.8769 48.22 54.581 48.5805C54.2851 48.9411 53.9806 49.2941 53.6674 49.6397C53.3541 49.9853 53.0326 50.3229 52.7028 50.6527C52.373 50.9825 52.0353 51.3041 51.6898 51.6173C51.3442 51.9305 50.9911 52.2351 50.6306 52.5309C50.2701 52.8269 49.9025 53.1137 49.5278 53.3915C49.1532 53.6694 48.772 53.9379 48.3842 54.1969C47.9964 54.4561 47.6025 54.7055 47.2024 54.9453C46.8023 55.1851 46.3966 55.415 45.9853 55.6348C45.574 55.8547 45.1575 56.0643 44.7359 56.2637C44.3143 56.4631 43.888 56.6521 43.4571 56.8305C43.0262 57.0091 42.5911 57.1769 42.152 57.334C41.7129 57.4912 41.2701 57.6374 40.8238 57.7727C40.3775 57.9081 39.9281 58.0325 39.4757 58.1458C39.0233 58.2592 38.5684 58.3613 38.1109 58.4523C37.6534 58.5433 37.194 58.623 36.7327 58.6914C36.2713 58.7599 35.8085 58.817 35.3444 58.8627C34.8802 58.9084 34.4152 58.9427 33.9494 58.9656C33.4835 58.9885 33.0174 58.9999 32.551 58.9999H32.499C32.0326 58.9999 31.5665 58.9885 31.1006 58.9656C30.6348 58.9427 30.1698 58.9084 29.7056 58.8627C29.2415 58.817 28.7787 58.7599 28.3173 58.6914C27.856 58.623 27.3966 58.5433 26.9391 58.4523C26.4817 58.3613 26.0268 58.2592 25.5743 58.1458C25.1219 58.0325 24.6725 57.9081 24.2262 57.7727C23.7799 57.6374 23.3371 57.4912 22.898 57.334C22.4589 57.1769 22.0238 57.0091 21.5929 56.8305C21.162 56.6521 20.7357 56.4631 20.3141 56.2637C19.8925 56.0643 19.476 55.8547 19.0647 55.6348C18.6534 55.415 18.2477 55.1851 17.8476 54.9453C17.4475 54.7055 17.0536 54.4561 16.6658 54.1969C16.278 53.9379 15.8968 53.6694 15.5222 53.3915C15.1475 53.1137 14.7799 52.8269 14.4194 52.5309C14.0589 52.2351 13.7058 51.9305 13.3602 51.6173C13.0147 51.3041 12.677 50.9825 12.3472 50.6527C12.0174 50.3229 11.6958 49.9853 11.3826 49.6397C11.0694 49.2941 10.7649 48.9411 10.469 48.5805C10.1731 48.22 9.88623 47.8524 9.60839 47.4777C9.33055 47.1031 9.06207 46.7219 8.80295 46.3341C8.54382 45.9463 8.29437 45.5524 8.05459 45.1523C7.81481 44.7523 7.58499 44.3466 7.36513 43.9352C7.14526 43.5239 6.93562 43.1074 6.73621 42.6858C6.5368 42.2642 6.34785 41.8379 6.16936 41.407C5.99087 40.9761 5.82307 40.5411 5.66594 40.1019C5.50881 39.6628 5.36255 39.2201 5.22716 38.7737C5.09177 38.3274 4.96741 37.878 4.85408 37.4256C4.74075 36.9732 4.63859 36.5182 4.5476 36.0608C4.45661 35.6034 4.3769 35.144 4.30846 34.6826C4.24002 34.2212 4.18295 33.7585 4.13723 33.2943C4.09151 32.8301 4.05721 32.3651 4.03433 31.8993C4.01144 31.4335 4 30.9673 4 30.5009V30.4989C4 30.0325 4.01144 29.5664 4.03433 29.1005C4.05721 28.6347 4.09151 28.1697 4.13723 27.7055C4.18295 27.2414 4.24002 26.7786 4.30846 26.3172C4.3769 25.8559 4.45661 25.3965 4.5476 24.939C4.63859 24.4816 4.74075 24.0267 4.85408 23.5742C4.96741 23.1218 5.09177 22.6725 5.22716 22.2261C5.36255 21.7798 5.50881 21.3371 5.66594 20.8979C5.82307 20.4588 5.99087 20.0238 6.16936 19.5928C6.34785 19.1619 6.5368 18.7356 6.73621 18.314C6.93562 17.8924 7.14526 17.476 7.36513 17.0646C7.58499 16.6533 7.81481 16.2476 8.05459 15.8475C8.29437 15.4475 8.54382 15.0535 8.80295 14.6657C9.06207 14.2779 9.33055 13.8967 9.60839 13.5221C9.88623 13.1475 10.1731 12.7799 10.469 12.4193C10.7649 12.0588 11.0694 11.7058 11.3826 11.3602C11.6958 11.0146 12.0174 10.6769 12.3472 10.3471C12.677 10.0173 13.0147 9.69579 13.3602 9.38257C13.7058 9.06935 14.0589 8.7648 14.4194 8.46892C14.7799 8.17303 15.1475 7.88617 15.5222 7.60833C15.8968 7.33049 16.278 7.06201 16.6658 6.80289C17.0536 6.54376 17.4475 6.29431 17.8476 6.05453C18.2477 5.81475 18.6534 5.58493 19.0647 5.36507C19.476 5.1452 19.8925 4.93556 20.3141 4.73615C20.7357 4.53674 21.162 4.34779 21.5929 4.1693C22.0238 3.99081 22.4589 3.82301 22.898 3.66588C23.3371 3.50875 23.7799 3.36249 24.2262 3.2271C24.6725 3.09171 25.1219 2.96735 25.5743 2.85402C26.0267 2.74069 26.4816 2.63853 26.9391 2.54754C27.3966 2.45655 27.856 2.37683 28.3173 2.3084C28.7787 2.23996 29.2415 2.18288 29.7056 2.13717C30.1698 2.09145 30.6348 2.05715 31.1006 2.03427C31.5665 2.01138 32.0326 1.99994 32.499 1.99994Z" fill="white"/>
<path fill-rule="evenodd" clip-rule="evenodd" d="M40.9096 21.5899L32.6422 40.349L29.486 33.2084L22.2046 29.7783L40.9096 21.5899Z" fill="#3771E0"/>
</g>
<defs>
<filter id="filter0_d_42_606" x="0" y="1.99994" width="65.05" height="65" filterUnits="userSpaceOnUse" color-interpolation-filters="sRGB">
<feFlood flood-opacity="0" result="BackgroundImageFix"/>
<feColorMatrix in="SourceAlpha" type="matrix" values="0 0 0 0 0 0 0 0 0 0 0 0 0 0 0 0 0 0 127 0" result="hardAlpha"/>
<feOffset dy="4"/>
<feGaussianBlur stdDeviation="2"/>
<feColorMatrix type="matrix" values="0 0 0 0 0.392157 0 0 0 0 0.392157 0 0 0 0 0.392157 0 0 0 0.360784 0"/>
<feBlend mode="normal" in2="BackgroundImageFix" result="effect1_dropShadow_42_606"/>
<feBlend mode="normal" in="SourceGraphic" in2="effect1_dropShadow_42_606" result="shape"/>
</filter>
</defs>
</svg>
