<svg width="66" height="71" viewBox="0 0 66 71" fill="none" xmlns="http://www.w3.org/2000/svg">
<g filter="url(#filter0_d_42_607)">
<path fill-rule="evenodd" clip-rule="evenodd" d="M33.4491 2H33.5011C33.9675 2 34.4336 2.01144 34.8995 2.03433C35.3653 2.05721 35.8303 2.09151 36.2945 2.13723C36.7586 2.18295 37.2214 2.24002 37.6828 2.30846C38.1441 2.3769 38.6035 2.45661 39.061 2.5476C39.5184 2.63859 39.9734 2.74075 40.4258 2.85408C40.8782 2.96741 41.3275 3.09177 41.7739 3.22716C42.2202 3.36255 42.6629 3.50881 43.1021 3.66594C43.5412 3.82307 43.9762 3.99087 44.4072 4.16936C44.8381 4.34785 45.2644 4.5368 45.686 4.73621C46.1076 4.93562 46.524 5.14526 46.9354 5.36513C47.3467 5.58499 47.7524 5.81481 48.1525 6.05459C48.5525 6.29437 48.9465 6.54382 49.3343 6.80295C49.7221 7.06207 50.1033 7.33055 50.4779 7.60839C50.8525 7.88623 51.2201 8.17309 51.5807 8.46898C51.9412 8.76486 52.2943 9.06941 52.6399 9.38263C52.9854 9.69585 53.3231 10.0174 53.6529 10.3472C53.9827 10.677 54.3042 11.0147 54.6175 11.3602C54.9307 11.7058 55.2352 12.0589 55.5311 12.4194C55.8269 12.7799 56.1138 13.1475 56.3917 13.5222C56.6695 13.8968 56.938 14.278 57.1972 14.6658C57.4562 15.0536 57.7057 15.4475 57.9455 15.8476C58.1853 16.2477 58.4151 16.6534 58.635 17.0647C58.8548 17.476 59.0645 17.8925 59.2639 18.3141C59.4633 18.7357 59.6522 19.162 59.8307 19.5929C60.0092 20.0238 60.177 20.4589 60.3342 20.898C60.4913 21.3371 60.6375 21.7799 60.7729 22.2262C60.9083 22.6725 61.0326 23.1219 61.146 23.5743C61.2593 24.0267 61.3615 24.4816 61.4525 24.9391C61.5435 25.3966 61.6232 25.856 61.6916 26.3173C61.76 26.7787 61.8171 27.2415 61.8629 27.7056C61.9085 28.1698 61.9428 28.6348 61.9658 29.1006C61.9886 29.5665 62.0001 30.0326 62.0001 30.499V30.501C62.0001 30.9674 61.9886 31.4335 61.9658 31.8994C61.9428 32.3652 61.9085 32.8302 61.8629 33.2944C61.8171 33.7585 61.76 34.2213 61.6916 34.6827C61.6232 35.144 61.5435 35.6034 61.4525 36.0609C61.3615 36.5183 61.2593 36.9732 61.146 37.4257C61.0326 37.8781 60.9083 38.3275 60.7729 38.7738C60.6375 39.2201 60.4913 39.6629 60.3342 40.102C60.177 40.5411 60.0092 40.9762 59.8307 41.4071C59.6522 41.838 59.4633 42.2642 59.2639 42.6859C59.0645 43.1075 58.8548 43.524 58.635 43.9353C58.4151 44.3466 58.1853 44.7523 57.9455 45.1524C57.7057 45.5525 57.4562 45.9464 57.1971 46.3342C56.938 46.722 56.6695 47.1032 56.3917 47.4778C56.1139 47.8525 55.827 48.2201 55.5311 48.5806C55.2352 48.9411 54.9307 49.2942 54.6175 49.6398C54.3042 49.9853 53.9827 50.323 53.6529 50.6528C53.3231 50.9826 52.9854 51.3041 52.6399 51.6174C52.2943 51.9306 51.9412 52.2351 51.5807 52.531C51.2201 52.8269 50.8525 53.1137 50.4779 53.3916C50.1033 53.6695 49.7221 53.9379 49.3343 54.197C48.9465 54.4561 48.5525 54.7056 48.1525 54.9454C47.7524 55.1852 47.3467 55.415 46.9354 55.6349C46.524 55.8548 46.1076 56.0644 45.686 56.2638C45.2644 56.4632 44.8381 56.6521 44.4072 56.8306C43.9762 57.0091 43.5412 57.177 43.1021 57.3341C42.6629 57.4912 42.2202 57.6375 41.7739 57.7728C41.3275 57.9082 40.8782 58.0326 40.4258 58.1459C39.9734 58.2592 39.5184 58.3614 39.061 58.4524C38.6035 58.5434 38.1441 58.6231 37.6828 58.6915C37.2214 58.76 36.7586 58.8171 36.2945 58.8628C35.8303 58.9085 35.3653 58.9428 34.8995 58.9657C34.4336 58.9886 33.9675 59 33.5011 59H33.4491C32.9827 59 32.5165 58.9886 32.0507 58.9657C31.5848 58.9428 31.1198 58.9085 30.6557 58.8628C30.1915 58.8171 29.7288 58.76 29.2674 58.6915C28.806 58.6231 28.3466 58.5434 27.8892 58.4524C27.4317 58.3614 26.9768 58.2592 26.5244 58.1459C26.072 58.0326 25.6226 57.9082 25.1763 57.7728C24.7299 57.6375 24.2872 57.4912 23.8481 57.3341C23.4089 57.177 22.9739 57.0091 22.543 56.8306C22.112 56.6521 21.6858 56.4632 21.2642 56.2638C20.8426 56.0644 20.4261 55.8548 20.0148 55.6349C19.6034 55.415 19.1977 55.1852 18.7977 54.9454C18.3976 54.7056 18.0037 54.4561 17.6159 54.197C17.2281 53.9379 16.8469 53.6695 16.4723 53.3916C16.0976 53.1137 15.73 52.8269 15.3695 52.531C15.009 52.2351 14.6559 51.9306 14.3103 51.6174C13.9647 51.3041 13.627 50.9826 13.2972 50.6528C12.9674 50.323 12.6459 49.9853 12.3327 49.6398C12.0195 49.2942 11.7149 48.9411 11.4191 48.5806C11.1232 48.2201 10.8363 47.8525 10.5585 47.4778C10.2806 47.1032 10.0121 46.722 9.75302 46.3342C9.4939 45.9464 9.24444 45.5525 9.00466 45.1524C8.76488 44.7523 8.53506 44.3466 8.3152 43.9353C8.09534 43.524 7.8857 43.1075 7.68628 42.6859C7.48687 42.2642 7.29792 41.838 7.11943 41.4071C6.94095 40.9762 6.77314 40.5411 6.61601 40.102C6.45888 39.6629 6.31262 39.2201 6.17723 38.7738C6.04184 38.3275 5.91748 37.8781 5.80415 37.4257C5.69082 36.9732 5.58867 36.5183 5.49767 36.0609C5.40668 35.6034 5.32697 35.144 5.25853 34.6827C5.1901 34.2213 5.13302 33.7585 5.0873 33.2944C5.04159 32.8302 5.00729 32.3652 4.9844 31.8994C4.96152 31.4335 4.95007 30.9674 4.95007 30.501V30.499C4.95007 30.0326 4.96152 29.5665 4.9844 29.1006C5.00729 28.6347 5.04159 28.1697 5.0873 27.7056C5.13302 27.2415 5.1901 26.7787 5.25853 26.3173C5.32697 25.856 5.40668 25.3966 5.49767 24.9391C5.58867 24.4816 5.69082 24.0267 5.80415 23.5743C5.91748 23.1219 6.04184 22.6725 6.17723 22.2262C6.31262 21.7799 6.45888 21.3371 6.61601 20.898C6.77314 20.4589 6.94095 20.0238 7.11943 19.5929C7.29792 19.162 7.48687 18.7357 7.68628 18.3141C7.8857 17.8925 8.09534 17.476 8.3152 17.0647C8.53506 16.6534 8.76488 16.2477 9.00466 15.8476C9.24444 15.4475 9.4939 15.0536 9.75302 14.6658C10.0121 14.278 10.2806 13.8968 10.5585 13.5222C10.8363 13.1475 11.1232 12.7799 11.4191 12.4194C11.7149 12.0589 12.0195 11.7058 12.3327 11.3602C12.6459 11.0147 12.9674 10.677 13.2972 10.3472C13.627 10.0174 13.9647 9.69585 14.3103 9.38263C14.6559 9.06941 15.009 8.76486 15.3695 8.46898C15.73 8.17309 16.0976 7.88623 16.4723 7.60839C16.8469 7.33055 17.2281 7.06207 17.6159 6.80295C18.0037 6.54382 18.3976 6.29437 18.7977 6.05459C19.1977 5.81481 19.6034 5.58499 20.0148 5.36513C20.4261 5.14526 20.8426 4.93562 21.2642 4.73621C21.6858 4.5368 22.112 4.34785 22.543 4.16936C22.9739 3.99087 23.4089 3.82307 23.8481 3.66594C24.2872 3.50881 24.7299 3.36255 25.1763 3.22716C25.6226 3.09177 26.072 2.96741 26.5244 2.85408C26.9768 2.74075 27.4317 2.63859 27.8892 2.5476C28.3466 2.45661 28.806 2.3769 29.2674 2.30846C29.7288 2.24002 30.1915 2.18295 30.6557 2.13723C31.1199 2.09151 31.5849 2.05721 32.0507 2.03433C32.5165 2.01144 32.9827 2 33.4491 2Z" fill="#3771E0"/>
<path fill-rule="evenodd" clip-rule="evenodd" d="M22.2565 29.2936L32.1574 19.3927C32.2038 19.3463 32.2542 19.3049 32.3088 19.2684C32.3633 19.232 32.4209 19.2012 32.4815 19.1761C32.5421 19.151 32.6045 19.1321 32.6689 19.1193C32.7332 19.1065 32.7982 19.1001 32.8638 19.1001C32.9294 19.1001 32.9943 19.1065 33.0587 19.1193C33.123 19.1321 33.1855 19.151 33.2461 19.1761C33.3067 19.2012 33.3642 19.232 33.4188 19.2685C33.4733 19.3049 33.5238 19.3463 33.5702 19.3927L43.4711 29.2936C43.5175 29.34 43.5589 29.3905 43.5954 29.445C43.6318 29.4995 43.6625 29.5571 43.6877 29.6177C43.7127 29.6783 43.7317 29.7408 43.7445 29.8051C43.7573 29.8694 43.7637 29.9344 43.7637 30C43.7637 30.0656 43.7573 30.1306 43.7445 30.1949C43.7317 30.2592 43.7127 30.3217 43.6877 30.3823C43.6625 30.4429 43.6318 30.5005 43.5954 30.555C43.5589 30.6095 43.5175 30.66 43.4711 30.7064L33.5702 40.6073C33.5238 40.6537 33.4733 40.6951 33.4188 40.7315C33.3642 40.768 33.3067 40.7988 33.2461 40.8239C33.1855 40.849 33.123 40.8679 33.0587 40.8807C32.9943 40.8935 32.9294 40.8999 32.8638 40.8999C32.7982 40.8999 32.7332 40.8935 32.6689 40.8807C32.6045 40.8679 32.5421 40.849 32.4815 40.8239C32.4209 40.7988 32.3633 40.768 32.3088 40.7315C32.2542 40.6951 32.2038 40.6537 32.1574 40.6073L22.2565 30.7064C22.2101 30.66 22.1687 30.6095 22.1323 30.555C22.0958 30.5005 22.065 30.4429 22.0399 30.3823C22.0148 30.3217 21.9959 30.2592 21.9831 30.1949C21.9703 30.1306 21.9639 30.0656 21.9639 30C21.9639 29.9344 21.9703 29.8694 21.9831 29.8051C21.9959 29.7408 22.0148 29.6783 22.0399 29.6177C22.065 29.5571 22.0958 29.4995 22.1323 29.445C22.1687 29.3905 22.2101 29.34 22.2565 29.2936Z" fill="white"/>
<path fill-rule="evenodd" clip-rule="evenodd" d="M28.0501 33.3596H30.0501V30.3128H34.0501C34.0501 30.3128 34.0501 32.7553 34.0501 32.8128C34.0501 32.8241 37.5501 29.3599 37.5501 29.3754C37.5501 29.391 34.0501 25.9573 34.0501 26.0004C34.0501 26.3038 34.0501 28.3127 34.0501 28.3127C34.0501 28.3127 29.0773 28.3127 28.5501 28.3127C28.0229 28.3127 28.0501 28.8398 28.0501 28.8128C28.0501 30.0403 28.0501 33.3596 28.0501 33.3596Z" fill="#3771E0"/>
</g>
<defs>
<filter id="filter0_d_42_607" x="0.950073" y="2" width="65.05" height="69" filterUnits="userSpaceOnUse" color-interpolation-filters="sRGB">
<feFlood flood-opacity="0" result="BackgroundImageFix"/>
<feColorMatrix in="SourceAlpha" type="matrix" values="0 0 0 0 0 0 0 0 0 0 0 0 0 0 0 0 0 0 127 0" result="hardAlpha"/>
<feOffset dy="8"/>
<feGaussianBlur stdDeviation="2"/>
<feColorMatrix type="matrix" values="0 0 0 0 0.392157 0 0 0 0 0.392157 0 0 0 0 0.392157 0 0 0 0.411765 0"/>
<feBlend mode="normal" in2="BackgroundImageFix" result="effect1_dropShadow_42_607"/>
<feBlend mode="normal" in="SourceGraphic" in2="effect1_dropShadow_42_607" result="shape"/>
</filter>
</defs>
</svg>
