<svg width="20" height="27" viewBox="0 0 20 27" fill="none" xmlns="http://www.w3.org/2000/svg">
<mask id="mask0_93_250" style="mask-type:alpha" maskUnits="userSpaceOnUse" x="0" y="0" width="20" height="27">
<path fill-rule="evenodd" clip-rule="evenodd" d="M10.1 0.512146C4.85329 0.512146 0.599998 4.76544 0.599998 10.0121C0.599998 15.2588 6.08374 18.2183 10.1 26.9765C14.1525 18.2184 19.6 15.2588 19.6 10.0121C19.6 4.76544 15.3467 0.512146 10.1 0.512146ZM10.1 5.94097C7.8514 5.94097 6.02856 7.76381 6.02856 10.0124C6.02856 12.2609 7.8514 14.0838 10.1 14.0838C12.3486 14.0838 14.1714 12.2609 14.1714 10.0124C14.1714 7.76381 12.3486 5.94097 10.1 5.94097Z" fill="#3771E0"/>
</mask>
<g mask="url(#mask0_93_250)">
<path fill-rule="evenodd" clip-rule="evenodd" d="M-1.37385 17.8511L7.04558 8.16566L12.3285 12.758L3.90912 22.4435L-1.37385 17.8511Z" fill="#F1BE41"/>
<path fill-rule="evenodd" clip-rule="evenodd" d="M-6.4 13.9765L2.01942 4.29111L7.30239 8.88353L-1.11703 18.5689L-6.4 13.9765Z" fill="#D8503F"/>
<path fill-rule="evenodd" clip-rule="evenodd" d="M7.6 6.97655L16.0194 -2.70889L21.3024 1.88353L12.883 11.5689L7.6 6.97655Z" fill="#5383EC"/>
<path fill-rule="evenodd" clip-rule="evenodd" d="M0.599998 5.19759L9.0194 -4.48785L14.3024 0.104566L5.883 9.78999L0.599998 5.19759Z" fill="#3771E0"/>
<path fill-rule="evenodd" clip-rule="evenodd" d="M3.6 22.0674L19.3454 3.95443L27.5786 11.1115L11.8332 29.2244L3.6 22.0674Z" fill="#58A55C"/>
</g>
</svg>
