<svg width="50" height="49" viewBox="0 0 50 49" fill="none" xmlns="http://www.w3.org/2000/svg">
<g filter="url(#filter0_d_42_605)">
<path fill-rule="evenodd" clip-rule="evenodd" d="M24.399 2.89674H25.401C25.7283 2.89674 26.0554 2.90477 26.3823 2.92083C26.7093 2.93689 27.0356 2.96096 27.3612 2.99304C27.687 3.02513 28.0117 3.06518 28.3355 3.1132C28.6593 3.16123 28.9816 3.21717 29.3026 3.28102C29.6236 3.34487 29.9429 3.41656 30.2604 3.49609C30.5779 3.57562 30.8932 3.66288 31.2064 3.75789C31.5196 3.8529 31.8303 3.95554 32.1385 4.0658C32.4467 4.17607 32.7519 4.29383 33.0543 4.41907C33.3567 4.54433 33.6559 4.67692 33.9517 4.81686C34.2476 4.9568 34.5399 5.10392 34.8285 5.2582C35.1171 5.41249 35.4018 5.57377 35.6825 5.74203C35.9633 5.91029 36.2397 6.08534 36.5118 6.26718C36.784 6.44902 37.0516 6.63742 37.3144 6.83239C37.5773 7.02737 37.8352 7.22867 38.0882 7.4363C38.3412 7.64394 38.589 7.85766 38.8315 8.07746C39.0741 8.29726 39.311 8.52288 39.5424 8.75431C39.7739 8.98575 39.9995 9.22272 40.2193 9.46523C40.4391 9.70775 40.6528 9.95551 40.8604 10.2085C41.0681 10.4615 41.2694 10.7195 41.4643 10.9824C41.6593 11.2452 41.8478 11.5128 42.0296 11.7849C42.2114 12.057 42.3865 12.3335 42.5547 12.6142C42.723 12.895 42.8843 13.1796 43.0385 13.4682C43.1929 13.7569 43.34 14.0492 43.4799 14.345C43.6199 14.6409 43.7525 14.94 43.8777 15.2424C44.0029 15.5448 44.1207 15.8501 44.2309 16.1582C44.3412 16.4664 44.4438 16.7771 44.5388 17.0903C44.6339 17.4035 44.7212 17.7189 44.8006 18.0363C44.8802 18.3539 44.9519 18.6731 45.0157 18.9941C45.0796 19.3151 45.1355 19.6375 45.1835 19.9612C45.2316 20.285 45.2717 20.6098 45.3037 20.9355C45.3358 21.2612 45.3599 21.5875 45.3759 21.9144C45.392 22.2414 45.4 22.5685 45.4 22.8957V22.8977C45.4 23.225 45.392 23.5521 45.3759 23.879C45.3599 24.206 45.3358 24.5323 45.3037 24.8579C45.2717 25.1837 45.2316 25.5084 45.1835 25.8322C45.1355 26.156 45.0796 26.4783 45.0157 26.7993C44.9519 27.1203 44.8802 27.4396 44.8006 27.7571C44.7212 28.0746 44.6339 28.3899 44.5388 28.7031C44.4438 29.0163 44.3412 29.327 44.2309 29.6352C44.1207 29.9434 44.0029 30.2486 43.8777 30.551C43.7525 30.8534 43.6199 31.1526 43.4799 31.4484C43.34 31.7443 43.1929 32.0366 43.0385 32.3252C42.8843 32.6138 42.723 32.8985 42.5547 33.1792C42.3865 33.46 42.2114 33.7364 42.0296 34.0085C41.8478 34.2807 41.6593 34.5483 41.4643 34.8111C41.2694 35.074 41.0681 35.3319 40.8604 35.5849C40.6528 35.8379 40.4391 36.0857 40.2193 36.3282C39.9995 36.5708 39.7739 36.8077 39.5424 37.0391C39.311 37.2706 39.0741 37.4962 38.8315 37.716C38.589 37.9358 38.3412 38.1495 38.0882 38.3571C37.8352 38.5648 37.5773 38.7661 37.3144 38.961C37.0516 39.156 36.784 39.3445 36.5118 39.5263C36.2397 39.7081 35.9633 39.8832 35.6825 40.0514C35.4018 40.2197 35.1171 40.381 34.8285 40.5352C34.5399 40.6896 34.2476 40.8367 33.9517 40.9766C33.6559 41.1166 33.3567 41.2492 33.0543 41.3744C32.7519 41.4996 32.4467 41.6174 32.1385 41.7276C31.8303 41.8379 31.5196 41.9405 31.2064 42.0355C30.8932 42.1306 30.5779 42.2179 30.2604 42.2973C29.9429 42.3769 29.6236 42.4486 29.3026 42.5124C28.9816 42.5763 28.6593 42.6322 28.3355 42.6802C28.0117 42.7283 27.687 42.7684 27.3612 42.8004C27.0356 42.8325 26.7093 42.8566 26.3823 42.8726C26.0554 42.8887 25.7283 42.8967 25.401 42.8967H24.399C24.0718 42.8967 23.7447 42.8887 23.4177 42.8726C23.0908 42.8566 22.7645 42.8325 22.4388 42.8004C22.1131 42.7684 21.7883 42.7283 21.4645 42.6802C21.1408 42.6322 20.8184 42.5763 20.4974 42.5124C20.1764 42.4486 19.8572 42.3769 19.5396 42.2974C19.2222 42.2179 18.9068 42.1306 18.5936 42.0355C18.2804 41.9405 17.9697 41.8379 17.6615 41.7276C17.3534 41.6174 17.0481 41.4996 16.7457 41.3744C16.4433 41.2492 16.1442 41.1166 15.8483 40.9766C15.5525 40.8367 15.2602 40.6896 14.9715 40.5352C14.6829 40.381 14.3982 40.2197 14.1175 40.0514C13.8368 39.8832 13.5603 39.7081 13.2882 39.5263C13.016 39.3445 12.7485 39.156 12.4856 38.961C12.2227 38.7661 11.9648 38.5648 11.7118 38.3571C11.4588 38.1495 11.211 37.9358 10.9685 37.716C10.726 37.4962 10.489 37.2706 10.2576 37.0391C10.0262 36.8077 9.80054 36.5708 9.58074 36.3282C9.36094 36.0857 9.14722 35.8379 8.93958 35.5849C8.73195 35.3319 8.53065 35.074 8.33567 34.8111C8.1407 34.5483 7.9523 34.2807 7.77046 34.0085C7.58862 33.7364 7.41357 33.46 7.24531 33.1792C7.07705 32.8985 6.91577 32.6138 6.76148 32.3252C6.6072 32.0366 6.46008 31.7443 6.32014 31.4484C6.1802 31.1526 6.04761 30.8534 5.92235 30.551C5.79711 30.2486 5.67935 29.9434 5.56908 29.6352C5.45882 29.327 5.35618 29.0163 5.26117 28.7031C5.16616 28.3899 5.0789 28.0746 4.99937 27.7571C4.91984 27.4396 4.84815 27.1203 4.7843 26.7993C4.72045 26.4783 4.66451 26.156 4.61648 25.8322C4.56846 25.5084 4.52841 25.1837 4.49633 24.8579C4.46424 24.5323 4.44017 24.206 4.42411 23.879C4.40805 23.5521 4.40002 23.225 4.40002 22.8977V22.8957C4.40002 22.5685 4.40805 22.2414 4.42411 21.9144C4.44017 21.5875 4.46424 21.2612 4.49633 20.9355C4.52841 20.6098 4.56846 20.285 4.61648 19.9612C4.66451 19.6375 4.72045 19.3151 4.7843 18.9941C4.84815 18.6731 4.91984 18.3539 4.99937 18.0363C5.0789 17.7189 5.16616 17.4035 5.26117 17.0903C5.35618 16.7771 5.45882 16.4664 5.56908 16.1582C5.67935 15.8501 5.79711 15.5448 5.92235 15.2424C6.04761 14.94 6.1802 14.6409 6.32014 14.345C6.46008 14.0492 6.6072 13.7569 6.76148 13.4682C6.91577 13.1796 7.07705 12.895 7.24531 12.6142C7.41357 12.3335 7.58862 12.057 7.77046 11.7849C7.9523 11.5128 8.1407 11.2452 8.33567 10.9824C8.53065 10.7195 8.73195 10.4615 8.93958 10.2085C9.14722 9.95551 9.36094 9.70775 9.58074 9.46523C9.80054 9.22272 10.0262 8.98575 10.2576 8.75431C10.489 8.52288 10.726 8.29726 10.9685 8.07746C11.211 7.85766 11.4588 7.64394 11.7118 7.4363C11.9648 7.22867 12.2227 7.02737 12.4856 6.83239C12.7485 6.63742 13.016 6.44902 13.2882 6.26718C13.5603 6.08534 13.8368 5.91029 14.1175 5.74203C14.3982 5.57377 14.6829 5.41249 14.9715 5.2582C15.2602 5.10392 15.5525 4.9568 15.8483 4.81686C16.1442 4.67692 16.4433 4.54433 16.7457 4.41907C17.0481 4.29383 17.3534 4.17607 17.6615 4.0658C17.9697 3.95554 18.2804 3.8529 18.5936 3.75789C18.9068 3.66288 19.2222 3.57562 19.5396 3.49609C19.8572 3.41656 20.1764 3.34487 20.4974 3.28102C20.8184 3.21717 21.1408 3.16123 21.4645 3.1132C21.7883 3.06518 22.1131 3.02513 22.4388 2.99304C22.7645 2.96096 23.0908 2.93689 23.4177 2.92083C23.7447 2.90477 24.0718 2.89674 24.399 2.89674Z" fill="white"/>
</g>
<path fill-rule="evenodd" clip-rule="evenodd" d="M15 25L16.6844 23.3942L23.9727 29.1229L31.5214 23.401L33 25L24 32L15 25Z" fill="#3C4042"/>
<path fill-rule="evenodd" clip-rule="evenodd" d="M16.5517 19.7069L24 25.5L31.4482 19.7069L24 13.5L16.5517 19.7069Z" stroke="#3C4042" stroke-width="2"/>
<defs>
<filter id="filter0_d_42_605" x="0.400024" y="0.896744" width="49" height="48" filterUnits="userSpaceOnUse" color-interpolation-filters="sRGB">
<feFlood flood-opacity="0" result="BackgroundImageFix"/>
<feColorMatrix in="SourceAlpha" type="matrix" values="0 0 0 0 0 0 0 0 0 0 0 0 0 0 0 0 0 0 127 0" result="hardAlpha"/>
<feOffset dy="2"/>
<feGaussianBlur stdDeviation="2"/>
<feColorMatrix type="matrix" values="0 0 0 0 0.392157 0 0 0 0 0.392157 0 0 0 0 0.392157 0 0 0 0.498039 0"/>
<feBlend mode="normal" in2="BackgroundImageFix" result="effect1_dropShadow_42_605"/>
<feBlend mode="normal" in="SourceGraphic" in2="effect1_dropShadow_42_605" result="shape"/>
</filter>
</defs>
</svg>
