<svg width="14" height="19" viewBox="0 0 14 19" fill="none" xmlns="http://www.w3.org/2000/svg">
<path fill-rule="evenodd" clip-rule="evenodd" d="M7.00284 0H7.00485C7.10307 0 7.20105 0.00481367 7.2988 0.014441C7.39654 0.0240683 7.49358 0.038463 7.58992 0.0576249C7.68625 0.0767869 7.78141 0.100624 7.87541 0.129136C7.9694 0.157648 8.06177 0.190698 8.15251 0.228285C8.24325 0.265873 8.33194 0.307817 8.41856 0.354118C8.50518 0.400419 8.58933 0.450854 8.671 0.505423C8.75266 0.559992 8.83146 0.618431 8.90739 0.680742C8.98331 0.743053 9.056 0.808934 9.12545 0.878387C9.19491 0.94784 9.26079 1.02053 9.3231 1.09645C9.38541 1.17238 9.44385 1.25117 9.49841 1.33284C9.55298 1.41451 9.60342 1.49866 9.64972 1.58528C9.69602 1.67191 9.73797 1.76059 9.77556 1.85133C9.81314 1.94208 9.84619 2.03445 9.87471 2.12844C9.90322 2.22243 9.92706 2.31759 9.94622 2.41392C9.96538 2.51025 9.97977 2.6073 9.9894 2.70505C9.99903 2.8028 10.0038 2.90078 10.0038 2.999V9.001C10.0038 9.09922 9.99903 9.1972 9.9894 9.29495C9.97977 9.3927 9.96538 9.48974 9.94622 9.58607C9.92706 9.68241 9.90322 9.77757 9.87471 9.87156C9.84619 9.96559 9.81314 10.058 9.77556 10.1487C9.73797 10.2394 9.69602 10.3281 9.64972 10.4147C9.60342 10.5014 9.55298 10.5855 9.49841 10.6672C9.44385 10.7489 9.38541 10.8276 9.3231 10.9035C9.26079 10.9794 9.19491 11.0521 9.12545 11.1216C9.056 11.1911 8.98331 11.257 8.90739 11.3193C8.83146 11.3816 8.75266 11.44 8.671 11.4946C8.58933 11.5491 8.50518 11.5996 8.41856 11.6459C8.33194 11.6922 8.24325 11.7341 8.15251 11.7717C8.06177 11.8093 7.9694 11.8424 7.87541 11.8709C7.78141 11.8994 7.68625 11.9232 7.58992 11.9424C7.49358 11.9615 7.39654 11.9759 7.2988 11.9856C7.20105 11.9952 7.10307 12 7.00485 12H7.00285C6.90462 12 6.80663 11.9952 6.70889 11.9856C6.61114 11.9759 6.5141 11.9615 6.41777 11.9424C6.32143 11.9232 6.22627 11.8994 6.13228 11.8709C6.03828 11.8424 5.94592 11.8093 5.85518 11.7717C5.76443 11.7341 5.67575 11.6922 5.58913 11.6459C5.5025 11.5996 5.41835 11.5491 5.33669 11.4946C5.25502 11.44 5.17622 11.3816 5.1003 11.3193C5.02437 11.257 4.95168 11.1911 4.88223 11.1216C4.81277 11.0521 4.74689 10.9794 4.68459 10.9035C4.62227 10.8276 4.56383 10.7489 4.50927 10.6672C4.45469 10.5855 4.40426 10.5014 4.35796 10.4147C4.31166 10.3281 4.26971 10.2394 4.23213 10.1487C4.19454 10.058 4.16149 9.96559 4.13298 9.87156C4.10446 9.77757 4.08063 9.68241 4.06147 9.58607C4.04231 9.48974 4.02791 9.3927 4.01829 9.29495C4.00866 9.1972 4.00385 9.09922 4.00385 9.001V2.999C4.00385 2.90078 4.00866 2.8028 4.01829 2.70505C4.02791 2.6073 4.04231 2.51025 4.06147 2.41392C4.08063 2.31759 4.10446 2.22243 4.13298 2.12844C4.16149 2.03445 4.19454 1.94208 4.23213 1.85133C4.26971 1.76059 4.31166 1.67191 4.35796 1.58528C4.40426 1.49866 4.45469 1.41451 4.50927 1.33284C4.56383 1.25117 4.62227 1.17238 4.68459 1.09645C4.74689 1.02053 4.81277 0.94784 4.88223 0.878387C4.95168 0.808934 5.02437 0.743053 5.1003 0.680742C5.17622 0.618431 5.25502 0.559992 5.33669 0.505423C5.41835 0.450854 5.5025 0.400419 5.58913 0.354118C5.67575 0.307817 5.76443 0.265873 5.85518 0.228285C5.94592 0.190698 6.03828 0.157648 6.13228 0.129136C6.22627 0.100624 6.32143 0.0767869 6.41777 0.0576249C6.5141 0.038463 6.61114 0.0240683 6.70889 0.014441C6.80663 0.00481367 6.90461 0 7.00284 0Z" fill="#3C4042"/>
<path d="M1.00445 9.11478C0.732748 15.7914 13 16.9801 13 9.11478" stroke="#3C4042" stroke-width="2"/>
<path d="M7.00391 14V19" stroke="#3C4042" stroke-width="2"/>
</svg>
