<svg width="16" height="19" viewBox="0 0 16 19" fill="none" xmlns="http://www.w3.org/2000/svg">
<path fill-rule="evenodd" clip-rule="evenodd" d="M5.96881 16.0076C7.98926 16.0076 7.96429 16.0076 9.96881 16.0076C9.96881 17.1121 9.07338 18.0076 7.96881 18.0076C6.86424 18.0076 5.96881 17.1121 5.96881 16.0076Z" fill="#717579"/>
<mask id="mask0_42_612" style="mask-type:luminance" maskUnits="userSpaceOnUse" x="0" y="0" width="17" height="16">
<path d="M2.67241 6.41387C2.67238 9.0163 2.67241 12.8276 2.67241 12.8276L0 15.1831V15.5001L16.0005 15.508V15.1831L13.3622 12.8276C13.3622 12.8276 13.3622 9.48663 13.3622 6.41387C13.3622 2.7738 9.08621 2.13795 9.08621 2.13795C9.08621 2.13795 9.08621 1.78141 9.08621 1.08113C9.08621 0.536499 8.46935 0.00785896 7.79422 0.000106616C7.12171 -0.00761573 6.41357 0.404645 6.41357 1.08113C6.41357 1.24795 6.41387 2.13795 6.41387 2.13795C6.41387 2.13795 2.67238 2.389 2.67241 6.41387Z" fill="white"/>
</mask>
<g mask="url(#mask0_42_612)">
<path d="M2.67241 6.41387C2.67238 9.0163 2.67241 12.8276 2.67241 12.8276L0 15.1831V15.5001L16.0005 15.508V15.1831L13.3622 12.8276C13.3622 12.8276 13.3622 9.48663 13.3622 6.41387C13.3622 2.7738 9.08621 2.13795 9.08621 2.13795C9.08621 2.13795 9.08621 1.78141 9.08621 1.08113C9.08621 0.536499 8.46935 0.00785896 7.79422 0.000106616C7.12171 -0.00761573 6.41357 0.404645 6.41357 1.08113C6.41357 1.24795 6.41387 2.13795 6.41387 2.13795C6.41387 2.13795 2.67238 2.389 2.67241 6.41387Z" stroke="#808080" stroke-width="4"/>
</g>
</svg>
