<svg width="132" height="38" viewBox="0 0 132 38" fill="none" xmlns="http://www.w3.org/2000/svg">
<g filter="url(#filter0_d_42_601)">
<path fill-rule="evenodd" clip-rule="evenodd" d="M19.253 2H112.747C112.997 2 113.246 2.00602 113.496 2.01807C113.745 2.03011 113.994 2.04816 114.242 2.07222C114.49 2.09629 114.738 2.12632 114.985 2.16234C115.232 2.19836 115.478 2.24031 115.723 2.2882C115.967 2.33609 116.211 2.38986 116.453 2.4495C116.695 2.50915 116.936 2.5746 117.175 2.64586C117.413 2.71711 117.65 2.79409 117.885 2.87679C118.121 2.95948 118.354 3.0478 118.584 3.14174C118.815 3.23567 119.043 3.33512 119.269 3.44008C119.494 3.54503 119.717 3.65536 119.937 3.77107C120.157 3.88679 120.374 4.00774 120.589 4.13395C120.803 4.26014 121.013 4.39143 121.221 4.52781C121.429 4.66418 121.633 4.80548 121.834 4.95171C122.034 5.09794 122.23 5.24891 122.424 5.40463C122.616 5.56036 122.805 5.72065 122.991 5.8855C123.175 6.05035 123.356 6.21956 123.532 6.39314C123.709 6.56671 123.881 6.74443 124.049 6.92632C124.217 7.1082 124.379 7.29402 124.537 7.48377C124.696 7.67352 124.849 7.86698 124.998 8.06414C125.147 8.26131 125.291 8.46194 125.43 8.66604C125.568 8.87014 125.701 9.07747 125.83 9.28802C125.958 9.49856 126.081 9.71208 126.199 9.92857C126.317 10.1451 126.429 10.3642 126.535 10.5862C126.642 10.8081 126.744 11.0324 126.839 11.2592C126.934 11.486 127.024 11.7149 127.109 11.9461C127.193 12.1772 127.271 12.4102 127.344 12.6451C127.416 12.88 127.482 13.1165 127.543 13.3546C127.603 13.5927 127.658 13.8322 127.707 14.0729C127.756 14.3137 127.798 14.5555 127.835 14.7983C127.872 15.0411 127.902 15.2847 127.926 15.5289C127.951 15.7732 127.97 16.0179 127.981 16.2632C127.994 16.5083 128 16.7536 128 16.9991V17.0009C128 17.2464 127.994 17.4917 127.981 17.7369C127.97 17.9821 127.951 18.2268 127.926 18.4711C127.902 18.7154 127.872 18.9589 127.835 19.2017C127.798 19.4445 127.756 19.6863 127.707 19.9271C127.658 20.1679 127.603 20.4073 127.543 20.6454C127.482 20.8835 127.416 21.12 127.344 21.3549C127.271 21.5898 127.193 21.8228 127.109 22.054C127.024 22.2851 126.934 22.514 126.839 22.7408C126.744 22.9676 126.642 23.192 126.535 23.4139C126.429 23.6358 126.317 23.8549 126.199 24.0714C126.081 24.2879 125.958 24.5015 125.83 24.712C125.701 24.9226 125.568 25.1299 125.43 25.334C125.291 25.5381 125.147 25.7387 124.998 25.9359C124.849 26.133 124.696 26.3265 124.537 26.5163C124.379 26.706 124.217 26.8918 124.049 27.0737C123.881 27.2556 123.709 27.4333 123.532 27.6069C123.356 27.7805 123.175 27.9496 122.991 28.1145C122.805 28.2794 122.616 28.4397 122.424 28.5953C122.23 28.7511 122.034 28.9021 121.834 29.0483C121.633 29.1945 121.429 29.3358 121.221 29.4722C121.013 29.6086 120.803 29.7399 120.589 29.866C120.374 29.9923 120.157 30.1132 119.937 30.2289C119.717 30.3447 119.494 30.455 119.269 30.56C119.043 30.6649 118.815 30.7644 118.584 30.8583C118.354 30.9522 118.121 31.0406 117.885 31.1233C117.65 31.206 117.413 31.2829 117.175 31.3542C116.936 31.4254 116.695 31.4908 116.453 31.5505C116.211 31.6101 115.967 31.6639 115.723 31.7119C115.478 31.7597 115.232 31.8016 114.985 31.8376C114.738 31.8737 114.49 31.9037 114.242 31.9278C113.994 31.9518 113.745 31.9699 113.496 31.9819C113.246 31.994 112.997 32 112.747 32H19.253C19.0034 32 18.7539 31.994 18.5046 31.9819C18.2553 31.9699 18.0064 31.9518 17.7579 31.9278C17.5096 31.9037 17.2619 31.8737 17.015 31.8376C16.768 31.8016 16.5221 31.7597 16.2773 31.7119C16.0325 31.6639 15.789 31.6101 15.5468 31.5505C15.3047 31.4908 15.0642 31.4254 14.8253 31.3542C14.5864 31.2829 14.3495 31.206 14.1145 31.1233C13.8794 31.0406 13.6466 30.9522 13.416 30.8583C13.1853 30.7644 12.9572 30.6649 12.7315 30.56C12.5059 30.455 12.283 30.3447 12.0628 30.2289C11.8427 30.1132 11.6255 29.9923 11.4114 29.866C11.1973 29.7399 10.9865 29.6086 10.7789 29.4722C10.5713 29.3358 10.3673 29.1945 10.1668 29.0483C9.96631 28.9021 9.76958 28.7511 9.57662 28.5953C9.38365 28.4397 9.19468 28.2794 9.00972 28.1145C8.82476 27.9496 8.64402 27.7805 8.46751 27.6069C8.291 27.4333 8.11892 27.2556 7.95128 27.0737C7.78364 26.8918 7.62064 26.706 7.46228 26.5163C7.30392 26.3265 7.15039 26.133 7.00169 25.9359C6.85298 25.7387 6.70929 25.5381 6.5706 25.334C6.43192 25.1299 6.29841 24.9226 6.17007 24.712C6.04174 24.5015 5.91873 24.2879 5.80106 24.0714C5.68339 23.8549 5.57119 23.6358 5.46446 23.4139C5.35773 23.192 5.2566 22.9676 5.16107 22.7409C5.06554 22.5141 4.97573 22.2851 4.89163 22.054C4.80753 21.8228 4.72925 21.5898 4.65679 21.3549C4.58433 21.12 4.51777 20.8835 4.45711 20.6454C4.39646 20.4073 4.34178 20.1679 4.29308 19.9271C4.24438 19.6863 4.20172 19.4445 4.16509 19.2017C4.12846 18.9589 4.09792 18.7154 4.07345 18.4711C4.04898 18.2268 4.03062 17.9821 4.01837 17.7369C4.00612 17.4917 4 17.2464 4 17.0009V16.9991C4 16.7536 4.00612 16.5083 4.01837 16.2632C4.03062 16.0179 4.04898 15.7732 4.07345 15.5289C4.09792 15.2847 4.12846 15.0411 4.16509 14.7983C4.20172 14.5555 4.24438 14.3137 4.29308 14.0729C4.34178 13.8322 4.39646 13.5927 4.45711 13.3546C4.51777 13.1165 4.58433 12.88 4.65679 12.6451C4.72925 12.4102 4.80753 12.1772 4.89163 11.9461C4.97573 11.7149 5.06554 11.486 5.16107 11.2592C5.2566 11.0324 5.35773 10.8081 5.46446 10.5862C5.57119 10.3642 5.68339 10.1451 5.80106 9.92857C5.91873 9.71208 6.04174 9.49856 6.17007 9.28802C6.29841 9.07747 6.43192 8.87014 6.5706 8.66604C6.70929 8.46194 6.85298 8.26131 7.00169 8.06414C7.15039 7.86698 7.30392 7.67352 7.46228 7.48377C7.62064 7.29402 7.78364 7.1082 7.95128 6.92632C8.11892 6.74443 8.291 6.56671 8.46751 6.39314C8.64402 6.21956 8.82476 6.05035 9.00972 5.8855C9.19468 5.72065 9.38365 5.56036 9.57662 5.40463C9.76958 5.24891 9.96631 5.09794 10.1668 4.95171C10.3673 4.80548 10.5713 4.66418 10.7789 4.52781C10.9865 4.39143 11.1973 4.26014 11.4114 4.13395C11.6255 4.00774 11.8427 3.88679 12.0628 3.77107C12.283 3.65536 12.5059 3.54503 12.7315 3.44008C12.9572 3.33512 13.1853 3.23567 13.416 3.14174C13.6466 3.0478 13.8794 2.95948 14.1145 2.87679C14.3495 2.79409 14.5864 2.71711 14.8253 2.64586C15.0642 2.5746 15.3047 2.50915 15.5468 2.4495C15.789 2.38986 16.0325 2.33609 16.2773 2.2882C16.5221 2.24031 16.768 2.19836 17.015 2.16234C17.2619 2.12632 17.5096 2.09629 17.7579 2.07222C18.0064 2.04816 18.2553 2.03011 18.5046 2.01807C18.7539 2.00602 19.0034 2 19.253 2Z" fill="white"/>
</g>
<path d="M43.849 22.8612H45.0499V19.139H46.3812L48.9004 22.8612H50.3231V22.8099L47.6996 19.0748L47.7257 19.0363C48.3696 18.8994 48.9026 18.5849 49.3246 18.0929C49.7467 17.6009 49.9577 17.0382 49.9577 16.405C49.9577 15.6349 49.6727 14.9867 49.1027 14.4605C48.5328 13.9342 47.8431 13.6711 47.0339 13.6711H43.849V22.8612ZM66.7517 22.489C67.0955 22.8056 67.5284 22.9639 68.0505 22.9639C68.4682 22.9639 68.8336 22.9083 69.1469 22.797L68.7684 21.7445C68.6901 21.7788 68.6052 21.8066 68.5138 21.828C68.4225 21.8494 68.3289 21.86 68.2332 21.86C68.0244 21.86 67.8373 21.7852 67.672 21.6354C67.5066 21.4857 67.424 21.2012 67.424 20.7819V17.6501H68.9903V16.5719H67.424V14.6466H66.2231V16.5719H65.1006V17.6501H66.2231V21.1669C66.2318 21.7317 66.408 22.1724 66.7517 22.489ZM106.37 22.489C106.714 22.8056 107.147 22.9639 107.669 22.9639C108.087 22.9639 108.452 22.9083 108.765 22.797L108.387 21.7445C108.309 21.7788 108.224 21.8066 108.132 21.828C108.041 21.8494 107.947 21.86 107.852 21.86C107.643 21.86 107.456 21.7852 107.29 21.6354C107.125 21.4857 107.042 21.2012 107.042 20.7819V17.6501H108.609V16.5719H107.042V14.6466H105.842V16.5719H104.719V17.6501H105.842V21.1669C105.85 21.7317 106.026 22.1724 106.37 22.489ZM45.0499 18.0351V14.8006H47.06C47.5386 14.8006 47.9367 14.9611 48.2543 15.2819C48.5719 15.6028 48.7307 15.9772 48.7307 16.405C48.7307 16.8671 48.561 17.2543 48.2217 17.5666C47.8823 17.879 47.469 18.0351 46.9817 18.0351H45.0499ZM52.199 22.1168C52.8081 22.75 53.5826 23.0666 54.5224 23.0666C55.1663 23.0666 55.7428 22.9168 56.2518 22.6173C56.7609 22.3178 57.159 21.9028 57.4461 21.3723L56.3758 20.8589C55.9407 21.6119 55.3403 21.9884 54.5746 21.9884C54.0177 21.9884 53.5391 21.8002 53.1388 21.4236C52.7385 21.0471 52.5297 20.5508 52.5123 19.9348H57.5375L57.5506 19.8064C57.5506 18.7197 57.2699 17.8747 56.7087 17.2714C56.1474 16.6682 55.3925 16.3665 54.444 16.3665C53.5217 16.3665 52.7646 16.6853 52.1729 17.3228C51.5812 17.9602 51.2853 18.7582 51.2853 19.7165C51.2853 20.6835 51.5899 21.4835 52.199 22.1168ZM64.0079 21.1156C64.0079 21.6632 63.7642 22.1253 63.2769 22.5018C62.7896 22.8783 62.1762 23.0666 61.4365 23.0666C60.7926 23.0666 60.227 22.9018 59.7397 22.5724C59.2524 22.243 58.9043 21.8087 58.6955 21.2696L59.7658 20.8204C59.9224 21.1969 60.1508 21.49 60.4511 21.6996C60.7513 21.9093 61.0798 22.0141 61.4365 22.0141C61.8194 22.0141 62.1392 21.9328 62.3959 21.7702C62.6526 21.6076 62.7809 21.4151 62.7809 21.1926C62.7809 20.7904 62.4677 20.4952 61.8412 20.307L60.7447 20.0374C59.5004 19.7294 58.8782 19.139 58.8782 18.2662C58.8782 17.6928 59.1153 17.2329 59.5896 16.8864C60.0638 16.5398 60.6708 16.3665 61.4104 16.3665C61.976 16.3665 62.4873 16.4992 62.9441 16.7644C63.4009 17.0297 63.7207 17.3848 63.9035 17.8298L62.8332 18.2662C62.7113 18.0009 62.5134 17.7934 62.2393 17.6436C61.9652 17.4939 61.6584 17.419 61.3191 17.419C61.0058 17.419 60.7252 17.496 60.4772 17.6501C60.2292 17.8041 60.1052 17.9923 60.1052 18.2148C60.1052 18.5742 60.4489 18.8309 61.1363 18.9849L62.1022 19.2288C63.3727 19.5369 64.0079 20.1658 64.0079 21.1156ZM73.0329 16.3665C73.9204 16.3665 74.6209 16.5997 75.1343 17.0661C75.6477 17.5324 75.9044 18.172 75.9044 18.9849V22.8612H74.7558V21.9884H74.7036C74.2076 22.7072 73.5463 23.0666 72.7196 23.0666C72.0148 23.0666 71.4252 22.8612 70.951 22.4505C70.4767 22.0397 70.2396 21.5263 70.2396 20.9102C70.2396 20.2599 70.4898 19.7422 70.9901 19.3572C71.4905 18.9721 72.1583 18.7796 72.9937 18.7796C73.7072 18.7796 74.2946 18.9079 74.7558 19.1646V18.8951C74.7558 18.4844 74.5905 18.1357 74.2598 17.849C73.9291 17.5624 73.5419 17.419 73.0981 17.419C72.4281 17.419 71.8973 17.6971 71.5057 18.2533L70.4484 17.5987C71.0315 16.7773 71.8929 16.3665 73.0329 16.3665ZM95.0023 17.0661C94.4889 16.5997 93.7884 16.3665 92.9008 16.3665C91.7609 16.3665 90.8994 16.7773 90.3164 17.5987L91.3737 18.2533C91.7652 17.6971 92.2961 17.419 92.9661 17.419C93.4099 17.419 93.7971 17.5624 94.1278 17.849C94.4584 18.1357 94.6238 18.4844 94.6238 18.8951V19.1646C94.1626 18.9079 93.5752 18.7796 92.8617 18.7796C92.0263 18.7796 91.3584 18.9721 90.8581 19.3572C90.3577 19.7422 90.1076 20.2599 90.1076 20.9102C90.1076 21.5263 90.3447 22.0397 90.8189 22.4505C91.2932 22.8612 91.8827 23.0666 92.5876 23.0666C93.4142 23.0666 94.0756 22.7072 94.5716 21.9884H94.6238V22.8612H95.7724V18.9849C95.7724 18.172 95.5157 17.5324 95.0023 17.0661ZM97.596 16.5719H98.7447V17.4447H98.7969C98.9796 17.1366 99.2603 16.8799 99.6388 16.6746C100.017 16.4692 100.411 16.3665 100.82 16.3665C101.603 16.3665 102.206 16.5869 102.628 17.0275C103.05 17.4682 103.261 18.095 103.261 18.9079V22.8612H102.06V18.9849C102.034 17.9581 101.507 17.4447 100.481 17.4447C100.002 17.4447 99.6018 17.6351 99.2798 18.0159C98.9579 18.3967 98.7969 18.8523 98.7969 19.3828V22.8612H97.596V16.5719ZM113.095 23.0666C112.155 23.0666 111.381 22.75 110.772 22.1168C110.163 21.4835 109.858 20.6835 109.858 19.7165C109.858 18.7582 110.154 17.9602 110.746 17.3228C111.337 16.6853 112.094 16.3665 113.017 16.3665C113.965 16.3665 114.72 16.6682 115.281 17.2714C115.843 17.8747 116.123 18.7197 116.123 19.8064L116.11 19.9348H111.085C111.102 20.5508 111.311 21.0471 111.712 21.4236C112.112 21.8002 112.59 21.9884 113.147 21.9884C113.913 21.9884 114.513 21.6119 114.949 20.8589L116.019 21.3723C115.732 21.9028 115.334 22.3178 114.825 22.6173C114.316 22.9168 113.739 23.0666 113.095 23.0666ZM121.85 22.5018C122.337 22.1253 122.581 21.6632 122.581 21.1156C122.581 20.1658 121.945 19.5369 120.675 19.2288L119.709 18.9849C119.022 18.8309 118.678 18.5742 118.678 18.2148C118.678 17.9923 118.802 17.8041 119.05 17.6501C119.298 17.496 119.579 17.419 119.892 17.419C120.231 17.419 120.538 17.4939 120.812 17.6436C121.086 17.7934 121.284 18.0009 121.406 18.2662L122.476 17.8298C122.293 17.3848 121.974 17.0297 121.517 16.7644C121.06 16.4992 120.549 16.3665 119.983 16.3665C119.244 16.3665 118.637 16.5398 118.162 16.8864C117.688 17.2329 117.451 17.6928 117.451 18.2662C117.451 19.139 118.073 19.7294 119.317 20.0374L120.414 20.307C121.04 20.4952 121.354 20.7904 121.354 21.1926C121.354 21.4151 121.225 21.6076 120.969 21.7702C120.712 21.9328 120.392 22.0141 120.009 22.0141C119.652 22.0141 119.324 21.9093 119.024 21.6996C118.724 21.49 118.495 21.1969 118.339 20.8204L117.268 21.2696C117.477 21.8087 117.825 22.243 118.312 22.5724C118.8 22.9018 119.365 23.0666 120.009 23.0666C120.749 23.0666 121.362 22.8783 121.85 22.5018ZM86.4696 22.8612H85.2688V16.5719H86.4174V17.5987H86.4696C86.5914 17.265 86.8416 16.9805 87.2201 16.7452C87.5987 16.5099 87.9707 16.3922 88.3361 16.3922C88.6842 16.3922 88.9801 16.4435 89.2237 16.5462L88.8582 17.6886C88.7103 17.6287 88.4754 17.5987 88.1534 17.5987C87.7009 17.5987 87.3072 17.7784 86.9721 18.1378C86.6371 18.4972 86.4696 18.9165 86.4696 19.3957V22.8612ZM82.1921 22.8612H83.3407V16.5719H82.1399V20.0503C82.1399 20.5808 81.9789 21.0364 81.6569 21.4172C81.335 21.798 80.9347 21.9884 80.4561 21.9884C79.4293 21.9884 78.9028 21.475 78.8767 20.4482V16.5719H77.6759V20.5252C77.6759 21.3381 77.8869 21.9649 78.3089 22.4056C78.731 22.8462 79.3335 23.0666 80.1167 23.0666C80.5257 23.0666 80.9194 22.9639 81.298 22.7585C81.6765 22.5532 81.9571 22.2964 82.1399 21.9884H82.1921V22.8612ZM56.2714 18.9593H52.6036C52.708 18.4972 52.9234 18.1292 53.2497 17.8554C53.576 17.5816 53.9654 17.4447 54.4179 17.4447C54.9661 17.4447 55.4034 17.588 55.7297 17.8747C56.056 18.1613 56.2366 18.5229 56.2714 18.9593ZM111.176 18.9593H114.844C114.809 18.5229 114.629 18.1613 114.302 17.8747C113.976 17.588 113.539 17.4447 112.991 17.4447C112.538 17.4447 112.149 17.5816 111.822 17.8554C111.496 18.1292 111.281 18.4972 111.176 18.9593ZM71.4796 20.9359C71.4796 21.244 71.6123 21.5007 71.8777 21.706C72.1431 21.9114 72.4542 22.0141 72.811 22.0141C73.3157 22.0141 73.766 21.8301 74.1619 21.4622C74.5578 21.0942 74.7558 20.6621 74.7558 20.1658C74.3816 19.8749 73.8595 19.7294 73.1895 19.7294C72.7022 19.7294 72.2954 19.8449 71.9691 20.0759C71.6428 20.307 71.4796 20.5936 71.4796 20.9359ZM91.7457 21.706C91.4803 21.5007 91.3476 21.244 91.3476 20.9359C91.3476 20.5936 91.5107 20.307 91.837 20.0759C92.1634 19.8449 92.5702 19.7294 93.0575 19.7294C93.7275 19.7294 94.2496 19.8749 94.6238 20.1658C94.6238 20.6621 94.4258 21.0942 94.0299 21.4622C93.6339 21.8301 93.1836 22.0141 92.6789 22.0141C92.3222 22.0141 92.0111 21.9114 91.7457 21.706Z" fill="#3C4042"/>
<path fill-rule="evenodd" clip-rule="evenodd" d="M25.7511 27.3555H26.9386C26.9386 27.3555 27.0011 15.3499 27.0011 12.1136C27.0011 12.1192 24.1035 12.1064 23.4239 14.8067C23.4239 14.8247 23.4239 21.1957 23.4239 21.1957L25.7511 21.1957V27.3555Z" fill="#3C4042"/>
<path fill-rule="evenodd" clip-rule="evenodd" d="M13.0011 12.1136L15.0324 12.0849V17.2706L16.3761 17.242V12.0849H18.3449V17.242H19.7199V12.0849H21.4506C21.4506 12.0849 21.4506 12.695 21.4506 18.1587C21.4663 18.1516 21.3289 20.2846 18.3136 20.3075C18.3136 22.7799 18.3136 27.3555 18.3136 27.3555H16.3761C16.3761 27.3555 16.3761 22.0705 16.3761 20.3075C13.1289 20.3075 12.9839 18.1903 13.0011 18.1588C13.0011 12.7408 13.0011 12.1136 13.0011 12.1136Z" fill="#3C4042"/>
<defs>
<filter id="filter0_d_42_601" x="0" y="0" width="132" height="38" filterUnits="userSpaceOnUse" color-interpolation-filters="sRGB">
<feFlood flood-opacity="0" result="BackgroundImageFix"/>
<feColorMatrix in="SourceAlpha" type="matrix" values="0 0 0 0 0 0 0 0 0 0 0 0 0 0 0 0 0 0 127 0" result="hardAlpha"/>
<feOffset dy="2"/>
<feGaussianBlur stdDeviation="2"/>
<feColorMatrix type="matrix" values="0 0 0 0 0.392157 0 0 0 0 0.392157 0 0 0 0 0.392157 0 0 0 0.498039 0"/>
<feBlend mode="normal" in2="BackgroundImageFix" result="effect1_dropShadow_42_601"/>
<feBlend mode="normal" in="SourceGraphic" in2="effect1_dropShadow_42_601" result="shape"/>
</filter>
</defs>
</svg>
