<svg width="14" height="18" viewBox="0 0 14 18" fill="none" xmlns="http://www.w3.org/2000/svg">
<mask id="mask0_42_610" style="mask-type:luminance" maskUnits="userSpaceOnUse" x="0" y="0" width="15" height="18">
<path d="M0.000927968 17.5C0.000927968 17.5 0.000927968 5.929 0.000927968 1.5C-0.028072 1.017 0.625928 0 1.50093 0C4.62493 0 9.21893 0 12.5009 0C13.5939 0 14.0009 1.018 14.0009 1.5C14.0009 6.023 14.0009 17.5 14.0009 17.5L7.00093 15L0.000927968 17.5Z" fill="white"/>
</mask>
<g mask="url(#mask0_42_610)">
<path d="M0.000927968 17.5C0.000927968 17.5 0.000927968 5.929 0.000927968 1.5C-0.028072 1.017 0.625928 0 1.50093 0C4.62493 0 9.21893 0 12.5009 0C13.5939 0 14.0009 1.018 14.0009 1.5C14.0009 6.023 14.0009 17.5 14.0009 17.5L7.00093 15L0.000927968 17.5Z" stroke="#717579" stroke-width="4"/>
</g>
</svg>
