<svg width="376" height="57" viewBox="0 0 376 57" fill="none" xmlns="http://www.w3.org/2000/svg">
<g filter="url(#filter0_d_93_252)">
<path fill-rule="evenodd" clip-rule="evenodd" d="M28.499 2H347.501C347.902 2 348.302 2.00984 348.703 2.02951C349.104 2.04918 349.503 2.07867 349.902 2.11797C350.301 2.15727 350.699 2.20633 351.096 2.26517C351.493 2.324 351.887 2.39252 352.28 2.47074C352.673 2.54896 353.065 2.63678 353.454 2.7342C353.843 2.83163 354.229 2.93853 354.613 3.05492C354.996 3.17131 355.377 3.29704 355.754 3.43211C356.132 3.56718 356.506 3.71144 356.876 3.86488C357.247 4.01831 357.613 4.18074 357.976 4.35217C358.338 4.52359 358.696 4.7038 359.05 4.89281C359.403 5.08182 359.752 5.27938 360.096 5.48551C360.44 5.69164 360.779 5.90608 361.112 6.12883C361.445 6.35158 361.773 6.58237 362.095 6.82122C362.417 7.06006 362.733 7.30666 363.043 7.56102C363.353 7.81537 363.657 8.07718 363.954 8.34644C364.251 8.61569 364.541 8.89208 364.824 9.17559C365.108 9.4591 365.385 9.7494 365.654 10.0465C365.923 10.3436 366.184 10.6471 366.439 10.957C366.693 11.2669 366.94 11.5829 367.179 11.905C367.418 12.227 367.648 12.5547 367.871 12.8881C368.094 13.2214 368.308 13.5601 368.514 13.904C368.721 14.2479 368.918 14.5966 369.107 14.9503C369.296 15.3039 369.477 15.6619 369.648 16.0243C369.819 16.3868 369.982 16.7532 370.135 17.1236C370.288 17.4941 370.433 17.868 370.568 18.2455C370.703 18.623 370.829 19.0036 370.945 19.3873C371.062 19.771 371.169 20.1573 371.266 20.5462C371.363 20.9351 371.451 21.3262 371.529 21.7195C371.608 22.1127 371.676 22.5076 371.735 22.9042C371.794 23.3009 371.843 23.6987 371.882 24.0977C371.921 24.4967 371.951 24.8964 371.97 25.2969C371.99 25.6974 372 26.0981 372 26.499V26.501C372 26.9019 371.99 27.3026 371.971 27.7031C371.951 28.1036 371.921 28.5033 371.882 28.9023C371.843 29.3013 371.794 29.6991 371.735 30.0958C371.676 30.4924 371.608 30.8873 371.529 31.2805C371.451 31.6738 371.363 32.0649 371.266 32.4538C371.169 32.8427 371.062 33.229 370.945 33.6127C370.829 33.9964 370.703 34.377 370.568 34.7545C370.433 35.132 370.288 35.5059 370.135 35.8764C369.982 36.2468 369.819 36.6132 369.648 36.9757C369.477 37.3381 369.296 37.6961 369.107 38.0497C368.918 38.4033 368.721 38.7521 368.514 39.096C368.308 39.4399 368.094 39.7786 367.871 40.1119C367.648 40.4453 367.418 40.773 367.179 41.095C366.94 41.4171 366.693 41.7331 366.439 42.043C366.184 42.3529 365.923 42.6564 365.654 42.9535C365.385 43.2506 365.108 43.5409 364.824 43.8244C364.541 44.1079 364.251 44.3843 363.954 44.6536C363.657 44.9228 363.353 45.1846 363.043 45.439C362.733 45.6933 362.417 45.9399 362.095 46.1788C361.773 46.4176 361.445 46.6484 361.112 46.8712C360.779 47.0939 360.44 47.3084 360.096 47.5145C359.752 47.7206 359.403 47.9182 359.05 48.1072C358.696 48.2962 358.338 48.4764 357.976 48.6478C357.613 48.8193 357.247 48.9817 356.876 49.1351C356.506 49.2886 356.132 49.4328 355.754 49.5679C355.377 49.703 354.996 49.8287 354.613 49.9451C354.229 50.0615 353.843 50.1684 353.454 50.2658C353.065 50.3632 352.673 50.451 352.28 50.5293C351.887 50.6075 351.493 50.676 351.096 50.7348C350.699 50.7937 350.301 50.8427 349.902 50.882C349.503 50.9213 349.104 50.9508 348.703 50.9705C348.302 50.9902 347.902 51 347.501 51H28.499C28.0981 51 27.6974 50.9902 27.2969 50.9705C26.8964 50.9508 26.4967 50.9213 26.0977 50.882C25.6987 50.8427 25.3009 50.7937 24.9042 50.7348C24.5076 50.676 24.1127 50.6075 23.7195 50.5293C23.3262 50.451 22.9351 50.3632 22.5462 50.2658C22.1573 50.1684 21.771 50.0615 21.3873 49.9451C21.0036 49.8287 20.623 49.703 20.2455 49.5679C19.868 49.4328 19.4941 49.2886 19.1236 49.1351C18.7532 48.9817 18.3868 48.8193 18.0243 48.6478C17.6619 48.4764 17.3039 48.2962 16.9503 48.1072C16.5966 47.9182 16.2479 47.7206 15.904 47.5145C15.5601 47.3084 15.2214 47.0939 14.8881 46.8712C14.5547 46.6484 14.227 46.4176 13.905 46.1788C13.5829 45.9399 13.2669 45.6933 12.957 45.439C12.6471 45.1846 12.3436 44.9228 12.0465 44.6536C11.7494 44.3843 11.4591 44.1079 11.1756 43.8244C10.8921 43.5409 10.6157 43.2506 10.3464 42.9535C10.0772 42.6564 9.81537 42.3529 9.56101 42.043C9.30665 41.7331 9.06005 41.4171 8.82121 41.095C8.58237 40.773 8.35157 40.4453 8.12882 40.1119C7.90607 39.7786 7.69163 39.4399 7.4855 39.096C7.27938 38.7521 7.08181 38.4033 6.8928 38.0497C6.7038 37.6961 6.52358 37.3381 6.35216 36.9757C6.18074 36.6132 6.01831 36.2468 5.86487 35.8764C5.71143 35.5059 5.56718 35.132 5.4321 34.7545C5.29703 34.377 5.1713 33.9964 5.05491 33.6127C4.93852 33.229 4.83162 32.8427 4.7342 32.4538C4.63678 32.0649 4.54895 31.6738 4.47073 31.2805C4.39251 30.8873 4.32399 30.4924 4.26516 30.0957C4.20633 29.6991 4.15726 29.3013 4.11796 28.9023C4.07866 28.5033 4.04918 28.1036 4.0295 27.7031C4.00983 27.3026 3.99999 26.9019 3.99999 26.501V26.499C3.99999 26.0981 4.00983 25.6974 4.0295 25.2969C4.04918 24.8964 4.07866 24.4967 4.11796 24.0977C4.15726 23.6987 4.20633 23.3009 4.26516 22.9042C4.32399 22.5076 4.39251 22.1127 4.47073 21.7195C4.54895 21.3262 4.63678 20.9351 4.7342 20.5462C4.83162 20.1573 4.93852 19.771 5.05491 19.3873C5.1713 19.0036 5.29703 18.623 5.4321 18.2455C5.56718 17.868 5.71143 17.4941 5.86487 17.1236C6.01831 16.7532 6.18074 16.3868 6.35216 16.0243C6.52358 15.6619 6.7038 15.3039 6.8928 14.9503C7.08181 14.5966 7.27938 14.2479 7.4855 13.904C7.69163 13.5601 7.90607 13.2214 8.12882 12.8881C8.35157 12.5547 8.58237 12.227 8.82121 11.905C9.06005 11.5829 9.30665 11.2669 9.56101 10.957C9.81537 10.6471 10.0772 10.3436 10.3464 10.0465C10.6157 9.7494 10.8921 9.4591 11.1756 9.17559C11.4591 8.89208 11.7494 8.61569 12.0465 8.34644C12.3436 8.07718 12.6471 7.81537 12.957 7.56102C13.2669 7.30666 13.5829 7.06006 13.905 6.82122C14.227 6.58237 14.5547 6.35158 14.8881 6.12883C15.2214 5.90608 15.5601 5.69164 15.904 5.48551C16.2479 5.27938 16.5966 5.08182 16.9503 4.89281C17.3039 4.7038 17.6619 4.52359 18.0243 4.35217C18.3868 4.18074 18.7532 4.01831 19.1236 3.86488C19.4941 3.71144 19.868 3.56718 20.2455 3.43211C20.623 3.29704 21.0036 3.17131 21.3873 3.05492C21.771 2.93853 22.1573 2.83163 22.5462 2.7342C22.9351 2.63678 23.3262 2.54896 23.7195 2.47074C24.1127 2.39252 24.5076 2.324 24.9042 2.26517C25.3009 2.20633 25.6987 2.15727 26.0977 2.11797C26.4967 2.07867 26.8964 2.04918 27.2969 2.02951C27.6974 2.00984 28.0981 2 28.499 2Z" fill="white"/>
</g>
<defs>
<filter id="filter0_d_93_252" x="-7.62939e-06" y="0" width="376" height="57" filterUnits="userSpaceOnUse" color-interpolation-filters="sRGB">
<feFlood flood-opacity="0" result="BackgroundImageFix"/>
<feColorMatrix in="SourceAlpha" type="matrix" values="0 0 0 0 0 0 0 0 0 0 0 0 0 0 0 0 0 0 127 0" result="hardAlpha"/>
<feOffset dy="2"/>
<feGaussianBlur stdDeviation="2"/>
<feColorMatrix type="matrix" values="0 0 0 0 0.392157 0 0 0 0 0.392157 0 0 0 0 0.392157 0 0 0 0.498039 0"/>
<feBlend mode="normal" in2="BackgroundImageFix" result="effect1_dropShadow_93_252"/>
<feBlend mode="normal" in="SourceGraphic" in2="effect1_dropShadow_93_252" result="shape"/>
</filter>
</defs>
</svg>
