<svg width="104" height="38" viewBox="0 0 104 38" fill="none" xmlns="http://www.w3.org/2000/svg">
<g filter="url(#filter0_d_42_602)">
<path fill-rule="evenodd" clip-rule="evenodd" d="M18.9578 2H85.0422C85.287 2 85.5316 2.00602 85.7761 2.01807C86.0206 2.03011 86.2647 2.04816 86.5083 2.07222C86.7519 2.09629 86.9948 2.12632 87.2369 2.16234C87.4791 2.19836 87.7202 2.24031 87.9603 2.2882C88.2004 2.33609 88.4392 2.38986 88.6767 2.4495C88.9141 2.50915 89.1499 2.5746 89.3842 2.64586C89.6185 2.71711 89.8508 2.79409 90.0813 2.87679C90.3118 2.95949 90.5401 3.0478 90.7663 3.14174C90.9925 3.23567 91.2162 3.33512 91.4374 3.44008C91.6588 3.54503 91.8774 3.65536 92.0933 3.77107C92.3092 3.88679 92.5221 4.00774 92.7321 4.13395C92.942 4.26014 93.1487 4.39143 93.3523 4.52781C93.5558 4.66418 93.7559 4.80548 93.9525 4.95171C94.1492 5.09794 94.3421 5.24891 94.5313 5.40463C94.7206 5.56036 94.9059 5.72065 95.0873 5.8855C95.2686 6.05035 95.4458 6.21956 95.6187 6.39314C95.7918 6.56671 95.9607 6.74443 96.1253 6.92632C96.2898 7.1082 96.4495 7.29402 96.6043 7.48377C96.7598 7.67352 96.9103 7.86698 97.056 8.06414C97.2023 8.26131 97.3434 8.46194 97.4793 8.66604C97.6152 8.87014 97.746 9.07747 97.8715 9.28802C97.9977 9.49856 98.1184 9.71208 98.2336 9.92857C98.3494 10.1451 98.4594 10.3642 98.5637 10.5862C98.6685 10.8081 98.7678 11.0324 98.8617 11.2592C98.955 11.486 99.043 11.7149 99.1259 11.9461C99.2082 12.1772 99.285 12.4102 99.3563 12.6451C99.427 12.88 99.4923 13.1165 99.552 13.3546C99.6111 13.5927 99.6648 13.8322 99.7129 14.0729C99.7605 14.3137 99.8022 14.5555 99.8382 14.7983C99.8741 15.0411 99.904 15.2847 99.9278 15.5289C99.9521 15.7732 99.9701 16.0179 99.9817 16.2632C99.9939 16.5083 100 16.7536 100 16.9991V17.0009C100 17.2464 99.9939 17.4917 99.9817 17.7369C99.9701 17.9821 99.9521 18.2268 99.9278 18.4711C99.904 18.7154 99.8741 18.9589 99.8382 19.2017C99.8022 19.4445 99.7605 19.6863 99.7129 19.9271C99.6648 20.1679 99.6111 20.4073 99.552 20.6454C99.4923 20.8835 99.427 21.12 99.3563 21.3549C99.285 21.5898 99.2082 21.8228 99.1259 22.054C99.043 22.2851 98.955 22.5141 98.8617 22.7409C98.7678 22.9676 98.6685 23.192 98.5637 23.4139C98.4594 23.6358 98.3494 23.8549 98.2336 24.0714C98.1184 24.2879 97.9977 24.5015 97.8715 24.712C97.746 24.9226 97.6152 25.1299 97.4793 25.334C97.3434 25.5381 97.2023 25.7387 97.056 25.9359C96.9103 26.133 96.7598 26.3265 96.6043 26.5163C96.4495 26.706 96.2898 26.8918 96.1253 27.0737C95.9607 27.2556 95.7918 27.4333 95.6187 27.6069C95.4458 27.7805 95.2686 27.9497 95.0873 28.1146C94.9059 28.2794 94.7206 28.4397 94.5313 28.5953C94.3421 28.7511 94.1492 28.9021 93.9525 29.0483C93.7559 29.1945 93.5558 29.3358 93.3523 29.4722C93.1487 29.6086 92.942 29.7399 92.7321 29.866C92.5221 29.9923 92.3092 30.1132 92.0933 30.2289C91.8774 30.3447 91.6588 30.455 91.4374 30.56C91.2162 30.6649 90.9925 30.7644 90.7663 30.8583C90.5401 30.9522 90.3118 31.0406 90.0813 31.1233C89.8508 31.206 89.6185 31.2829 89.3842 31.3542C89.1499 31.4254 88.9141 31.4908 88.6767 31.5505C88.4392 31.6101 88.2004 31.6639 87.9603 31.7119C87.7202 31.7597 87.4791 31.8017 87.2369 31.8377C86.9948 31.8737 86.7519 31.9037 86.5083 31.9278C86.2647 31.9518 86.0206 31.9699 85.7761 31.9819C85.5316 31.994 85.287 32 85.0422 32H18.9578C18.713 32 18.4684 31.994 18.2239 31.9819C17.9794 31.9699 17.7353 31.9518 17.4917 31.9278C17.2481 31.9037 17.0052 31.8737 16.7631 31.8377C16.5209 31.8017 16.2798 31.7597 16.0397 31.7119C15.7996 31.6639 15.5608 31.6101 15.3233 31.5505C15.0859 31.4908 14.85 31.4254 14.6158 31.3542C14.3815 31.2829 14.1492 31.206 13.9187 31.1233C13.6882 31.0406 13.4599 30.9522 13.2337 30.8583C13.0076 30.7644 12.7838 30.6649 12.5625 30.56C12.3412 30.455 12.1226 30.3447 11.9068 30.2289C11.6909 30.1132 11.4779 29.9923 11.268 29.866C11.058 29.7399 10.8512 29.6086 10.6477 29.4722C10.4442 29.3358 10.2441 29.1945 10.0475 29.0483C9.85083 28.9021 9.65791 28.7511 9.46868 28.5953C9.27945 28.4397 9.09414 28.2794 8.91276 28.1146C8.73138 27.9497 8.55414 27.7805 8.38105 27.6069C8.20795 27.4333 8.0392 27.2556 7.87481 27.0737C7.71041 26.8918 7.55056 26.706 7.39526 26.5163C7.23997 26.3265 7.08941 26.133 6.94359 25.9359C6.79776 25.7387 6.65685 25.5381 6.52085 25.334C6.38485 25.1299 6.25392 24.9226 6.12807 24.712C6.00222 24.5015 5.88159 24.2879 5.7662 24.0714C5.6508 23.8549 5.54078 23.6358 5.43611 23.4139C5.33145 23.192 5.23227 22.9676 5.1386 22.7409C5.04492 22.5141 4.95684 22.2851 4.87437 22.054C4.7919 21.8228 4.71514 21.5898 4.64408 21.3549C4.57302 21.12 4.50775 20.8835 4.44827 20.6454C4.38879 20.4073 4.33517 20.1679 4.28741 19.9271C4.23965 19.6863 4.19781 19.4445 4.1619 19.2017C4.12598 18.9589 4.09602 18.7154 4.07203 18.4711C4.04803 18.2268 4.03003 17.9821 4.01802 17.7369C4.00601 17.4917 4 17.2464 4 17.0009V16.9991C4 16.7536 4.00601 16.5083 4.01802 16.2632C4.03003 16.0179 4.04803 15.7732 4.07203 15.5289C4.09602 15.2847 4.12598 15.0411 4.1619 14.7983C4.19781 14.5555 4.23965 14.3137 4.28741 14.0729C4.33517 13.8322 4.38879 13.5927 4.44827 13.3546C4.50775 13.1165 4.57302 12.88 4.64408 12.6451C4.71514 12.4102 4.7919 12.1772 4.87437 11.9461C4.95684 11.7149 5.04492 11.486 5.1386 11.2592C5.23227 11.0324 5.33145 10.8081 5.43611 10.5862C5.54078 10.3642 5.6508 10.1451 5.7662 9.92857C5.88159 9.71208 6.00222 9.49856 6.12807 9.28802C6.25392 9.07747 6.38485 8.87014 6.52085 8.66604C6.65685 8.46194 6.79776 8.26131 6.94359 8.06414C7.08941 7.86698 7.23997 7.67352 7.39526 7.48377C7.55056 7.29402 7.71041 7.1082 7.87481 6.92632C8.0392 6.74443 8.20795 6.56671 8.38105 6.39314C8.55414 6.21956 8.73138 6.05035 8.91276 5.8855C9.09414 5.72065 9.27945 5.56036 9.46868 5.40463C9.65791 5.24891 9.85083 5.09794 10.0475 4.95171C10.2441 4.80548 10.4442 4.66418 10.6477 4.52781C10.8512 4.39143 11.058 4.26014 11.268 4.13395C11.4779 4.00774 11.6909 3.88679 11.9068 3.77107C12.1226 3.65536 12.3412 3.54503 12.5625 3.44008C12.7838 3.33512 13.0076 3.23567 13.2337 3.14174C13.4599 3.0478 13.6882 2.95949 13.9187 2.87679C14.1492 2.79409 14.3815 2.71711 14.6158 2.64586C14.85 2.5746 15.0859 2.50915 15.3233 2.4495C15.5608 2.38986 15.7996 2.33609 16.0397 2.2882C16.2798 2.24031 16.5209 2.19836 16.7631 2.16234C17.0052 2.12632 17.2481 2.09629 17.4917 2.07222C17.7353 2.04816 17.9794 2.03011 18.2239 2.01807C18.4684 2.00602 18.713 2 18.9578 2Z" fill="white"/>
</g>
<path d="M42.5902 21.472C41.2334 21.472 40.0984 20.9727 39.1854 19.974C38.2808 18.9753 37.8286 17.7293 37.8286 16.236C37.8286 14.7427 38.2808 13.5013 39.1854 12.512C40.0899 11.504 41.2248 11 42.5902 11C43.9726 11 45.0947 11.546 45.9566 12.638L45.1118 13.534C44.4547 12.666 43.6142 12.232 42.5902 12.232C41.5747 12.232 40.7256 12.6053 40.043 13.352C39.3688 14.0893 39.0318 15.0507 39.0318 16.236C39.0318 17.4213 39.3688 18.3827 40.043 19.12C40.7256 19.8667 41.5747 20.24 42.5902 20.24C43.6568 20.24 44.5827 19.75 45.3678 18.77L46.2254 19.68C45.7902 20.2493 45.2568 20.6903 44.6254 21.003C43.9939 21.3157 43.3155 21.472 42.5902 21.472ZM47.5017 17.818C47.5017 16.7633 47.8046 15.8907 48.4105 15.2C49.0249 14.5093 49.7972 14.164 50.7273 14.164C51.6574 14.164 52.4254 14.5093 53.0313 15.2C53.6457 15.8907 53.9529 16.7633 53.9529 17.818C53.9529 18.882 53.6457 19.7547 53.0313 20.436C52.4254 21.1267 51.6574 21.472 50.7273 21.472C49.7972 21.472 49.0249 21.1267 48.4105 20.436C47.8046 19.7453 47.5017 18.8727 47.5017 17.818ZM55.4853 21.248H56.6629V17.454C56.6629 16.8847 56.8165 16.39 57.1237 15.97C57.4309 15.55 57.8106 15.34 58.2629 15.34C58.7663 15.34 59.1247 15.4823 59.3381 15.767C59.5514 16.0517 59.6581 16.516 59.6581 17.16V21.248H60.8357V17.454C60.8357 16.8847 60.9893 16.39 61.2965 15.97C61.6037 15.55 61.9834 15.34 62.4357 15.34C62.9391 15.34 63.2975 15.4823 63.5109 15.767C63.7242 16.0517 63.8309 16.516 63.8309 17.16V21.248H65.0085V16.964C65.0085 16.068 64.8122 15.3773 64.4197 14.892C64.0271 14.4067 63.4682 14.164 62.7429 14.164C61.8213 14.164 61.1002 14.6027 60.5797 15.48C60.4175 15.0693 60.1615 14.7473 59.8117 14.514C59.4618 14.2807 59.0565 14.164 58.5957 14.164C58.2287 14.164 57.8597 14.276 57.4885 14.5C57.1173 14.724 56.8421 15.004 56.6629 15.34H56.6117V14.388H55.4853V21.248ZM70.112 21.472C69.6512 21.472 69.2309 21.3647 68.8512 21.15C68.4715 20.9353 68.1792 20.6507 67.9744 20.296H67.9232L67.9744 21.248V24.272H66.7968V14.388H67.9232V15.34H67.9744C68.1792 14.9853 68.4715 14.7007 68.8512 14.486C69.2309 14.2713 69.6512 14.164 70.112 14.164C70.9397 14.164 71.6395 14.5187 72.2112 15.228C72.8 15.9467 73.0944 16.81 73.0944 17.818C73.0944 18.8353 72.8 19.6987 72.2112 20.408C71.6395 21.1173 70.9397 21.472 70.112 21.472ZM82.1111 14.164C82.9815 14.164 83.6684 14.4183 84.1719 14.927C84.6754 15.4357 84.9271 16.1333 84.9271 17.02V21.248H83.8007V20.296H83.7495C83.2631 21.08 82.6145 21.472 81.8039 21.472C81.1127 21.472 80.5345 21.248 80.0695 20.8C79.6044 20.352 79.3719 19.792 79.3719 19.12C79.3719 18.4107 79.6172 17.846 80.1079 17.426C80.5985 17.006 81.2535 16.796 82.0727 16.796C82.7724 16.796 83.3484 16.936 83.8007 17.216V16.922C83.8007 16.474 83.6385 16.0937 83.3143 15.781C82.99 15.4683 82.6103 15.312 82.1751 15.312C81.518 15.312 80.9975 15.6153 80.6135 16.222L79.5767 15.508C80.1484 14.612 80.9932 14.164 82.1111 14.164ZM90.7986 20.856C91.2765 20.4453 91.5154 19.9413 91.5154 19.344C91.5154 18.308 90.8925 17.622 89.6466 17.286L88.6994 17.02C88.0253 16.852 87.6882 16.572 87.6882 16.18C87.6882 15.9373 87.8098 15.732 88.053 15.564C88.2962 15.396 88.5714 15.312 88.8786 15.312C89.2114 15.312 89.5122 15.3937 89.781 15.557C90.0498 15.7203 90.244 15.9467 90.3634 16.236L91.413 15.76C91.2338 15.2747 90.9202 14.8873 90.4722 14.598C90.0242 14.3087 89.5229 14.164 88.9682 14.164C88.2429 14.164 87.6477 14.353 87.1826 14.731C86.7176 15.109 86.485 15.6107 86.485 16.236C86.485 17.188 87.0952 17.832 88.3154 18.168L89.3906 18.462C90.005 18.6673 90.3122 18.9893 90.3122 19.428C90.3122 19.6707 90.1864 19.8807 89.9346 20.058C89.6829 20.2353 89.3693 20.324 88.9938 20.324C88.644 20.324 88.3218 20.2097 88.0274 19.981C87.733 19.7523 87.509 19.4327 87.3554 19.022L86.3058 19.512C86.5106 20.1 86.852 20.5737 87.3298 20.933C87.8077 21.2923 88.3624 21.472 88.9938 21.472C89.7192 21.472 90.3208 21.2667 90.7986 20.856ZM74.6267 21.248H75.8043V17.468C75.8043 16.9453 75.9686 16.488 76.2971 16.096C76.6257 15.704 77.0118 15.508 77.4555 15.508C77.7713 15.508 78.0017 15.5407 78.1467 15.606L78.5051 14.36C78.2662 14.248 77.9761 14.192 77.6347 14.192C77.2763 14.192 76.9115 14.3203 76.5403 14.577C76.1691 14.8337 75.9238 15.144 75.8043 15.508H75.7531V14.388H74.6267V21.248ZM48.6793 17.818C48.6793 18.5553 48.8756 19.1527 49.2681 19.61C49.6606 20.0673 50.147 20.296 50.7273 20.296C51.3076 20.296 51.794 20.0673 52.1865 19.61C52.579 19.1527 52.7753 18.5553 52.7753 17.818C52.7753 17.09 52.579 16.4973 52.1865 16.04C51.7854 15.5733 51.299 15.34 50.7273 15.34C50.1556 15.34 49.6692 15.5733 49.2681 16.04C48.8756 16.4973 48.6793 17.09 48.6793 17.818ZM69.92 20.296C70.4832 20.296 70.9568 20.0627 71.3408 19.596C71.7248 19.1387 71.9168 18.546 71.9168 17.818C71.9168 17.0993 71.7248 16.5067 71.3408 16.04C70.9568 15.5733 70.4832 15.34 69.92 15.34C69.3483 15.34 68.8704 15.5733 68.4864 16.04C68.1109 16.5067 67.9232 17.0993 67.9232 17.818C67.9232 18.546 68.1109 19.1433 68.4864 19.61C68.8704 20.0673 69.3483 20.296 69.92 20.296ZM80.5879 19.148C80.5879 19.484 80.718 19.764 80.9783 19.988C81.2385 20.212 81.5436 20.324 81.8935 20.324C82.3884 20.324 82.83 20.1233 83.2183 19.722C83.6065 19.3207 83.8007 18.8493 83.8007 18.308C83.4337 17.9907 82.9217 17.832 82.2647 17.832C81.7868 17.832 81.3879 17.958 81.0679 18.21C80.7479 18.462 80.5879 18.7747 80.5879 19.148Z" fill="#3C4042"/>
<mask id="mask0_42_602" style="mask-type:luminance" maskUnits="userSpaceOnUse" x="17" y="7" width="9" height="6">
<path d="M17 12.975C17 9.67509 18.7041 7 21.5 7C24.2959 7 26 9.69366 26 12.9935C22.9456 12.9935 17 13.0168 17 12.975Z" fill="white"/>
</mask>
<g mask="url(#mask0_42_602)">
<path d="M17 12.975C17 9.67509 18.7041 7 21.5 7C24.2959 7 26 9.69366 26 12.9935C22.9456 12.9935 17 13.0168 17 12.975Z" stroke="#3C4042" stroke-width="3"/>
</g>
<mask id="mask1_42_602" style="mask-type:luminance" maskUnits="userSpaceOnUse" x="14" y="11" width="15" height="14">
<path d="M15.999 11.875H27.001C27.0665 11.875 27.1318 11.8782 27.1969 11.8846C27.2621 11.8911 27.3268 11.9007 27.391 11.9134C27.4552 11.9262 27.5186 11.9421 27.5813 11.9611C27.644 11.9801 27.7055 12.0021 27.766 12.0272C27.8265 12.0522 27.8856 12.0802 27.9433 12.1111C28.001 12.1419 28.0571 12.1755 28.1116 12.2119C28.166 12.2483 28.2185 12.2872 28.2692 12.3288C28.3198 12.3703 28.3682 12.4142 28.4145 12.4605C28.4608 12.5068 28.5047 12.5553 28.5462 12.6059C28.5877 12.6565 28.6267 12.709 28.6631 12.7634C28.6995 12.8179 28.7331 12.874 28.764 12.9317C28.7949 12.9894 28.8228 13.0485 28.8478 13.109C28.8729 13.1695 28.8949 13.2311 28.9139 13.2937C28.9329 13.3564 28.9488 13.4198 28.9616 13.484C28.9743 13.5482 28.9839 13.6129 28.9904 13.6781C28.9968 13.7432 29 13.8085 29 13.874V23.001C29 23.0665 28.9968 23.1318 28.9904 23.1969C28.9839 23.2621 28.9743 23.3268 28.9616 23.391C28.9488 23.4552 28.9329 23.5186 28.9139 23.5813C28.8949 23.644 28.8729 23.7055 28.8478 23.766C28.8228 23.8265 28.7949 23.8856 28.764 23.9433C28.7331 24.001 28.6995 24.0571 28.6631 24.1116C28.6267 24.166 28.5877 24.2185 28.5462 24.2692C28.5047 24.3198 28.4608 24.3682 28.4145 24.4145C28.3682 24.4608 28.3198 24.5048 28.2692 24.5463C28.2185 24.5878 28.166 24.6268 28.1116 24.6631C28.0571 24.6995 28.001 24.7331 27.9433 24.764C27.8856 24.7949 27.8265 24.8228 27.766 24.8478C27.7055 24.8729 27.644 24.8949 27.5813 24.9139C27.5186 24.9329 27.4552 24.9488 27.391 24.9616C27.3268 24.9744 27.2621 24.984 27.1969 24.9904C27.1318 24.9968 27.0665 25 27.001 25H15.999C15.9335 25 15.8682 24.9968 15.8031 24.9904C15.7379 24.984 15.6732 24.9744 15.609 24.9616C15.5448 24.9488 15.4814 24.9329 15.4187 24.9139C15.3561 24.8949 15.2945 24.8729 15.234 24.8478C15.1735 24.8228 15.1144 24.7949 15.0567 24.764C14.9989 24.7331 14.9429 24.6995 14.8884 24.6631C14.834 24.6268 14.7815 24.5878 14.7308 24.5463C14.6802 24.5048 14.6318 24.4608 14.5855 24.4145C14.5392 24.3682 14.4953 24.3198 14.4538 24.2692C14.4122 24.2185 14.3733 24.166 14.3369 24.1116C14.3005 24.0571 14.2669 24.001 14.236 23.9433C14.2052 23.8856 14.1772 23.8265 14.1522 23.766C14.1271 23.7055 14.1051 23.644 14.0861 23.5813C14.0671 23.5186 14.0512 23.4552 14.0384 23.391C14.0256 23.3268 14.016 23.2621 14.0096 23.1969C14.0032 23.1318 14 23.0665 14 23.001V13.874C14 13.8085 14.0032 13.7432 14.0096 13.6781C14.016 13.6129 14.0256 13.5482 14.0384 13.484C14.0512 13.4198 14.0671 13.3564 14.0861 13.2937C14.1051 13.2311 14.1271 13.1695 14.1522 13.109C14.1772 13.0485 14.2052 12.9894 14.236 12.9317C14.2669 12.874 14.3005 12.8179 14.3369 12.7634C14.3733 12.709 14.4122 12.6565 14.4538 12.6059C14.4953 12.5553 14.5392 12.5068 14.5855 12.4605C14.6318 12.4142 14.6802 12.3703 14.7308 12.3288C14.7815 12.2872 14.834 12.2483 14.8884 12.2119C14.9429 12.1755 14.9989 12.1419 15.0567 12.1111C15.1144 12.0802 15.1735 12.0522 15.234 12.0272C15.2945 12.0021 15.3561 11.9801 15.4187 11.9611C15.4814 11.9421 15.5448 11.9262 15.609 11.9134C15.6732 11.9007 15.7379 11.8911 15.8031 11.8846C15.8682 11.8782 15.9335 11.875 15.999 11.875Z" fill="white"/>
</mask>
<g mask="url(#mask1_42_602)">
<path d="M15.999 11.875H27.001C27.0665 11.875 27.1318 11.8782 27.1969 11.8846C27.2621 11.8911 27.3268 11.9007 27.391 11.9134C27.4552 11.9262 27.5186 11.9421 27.5813 11.9611C27.644 11.9801 27.7055 12.0021 27.766 12.0272C27.8265 12.0522 27.8856 12.0802 27.9433 12.1111C28.001 12.1419 28.0571 12.1755 28.1116 12.2119C28.166 12.2483 28.2185 12.2872 28.2692 12.3288C28.3198 12.3703 28.3682 12.4142 28.4145 12.4605C28.4608 12.5068 28.5047 12.5553 28.5462 12.6059C28.5877 12.6565 28.6267 12.709 28.6631 12.7634C28.6995 12.8179 28.7331 12.874 28.764 12.9317C28.7949 12.9894 28.8228 13.0485 28.8478 13.109C28.8729 13.1695 28.8949 13.2311 28.9139 13.2937C28.9329 13.3564 28.9488 13.4198 28.9616 13.484C28.9743 13.5482 28.9839 13.6129 28.9904 13.6781C28.9968 13.7432 29 13.8085 29 13.874V23.001C29 23.0665 28.9968 23.1318 28.9904 23.1969C28.9839 23.2621 28.9743 23.3268 28.9616 23.391C28.9488 23.4552 28.9329 23.5186 28.9139 23.5813C28.8949 23.644 28.8729 23.7055 28.8478 23.766C28.8228 23.8265 28.7949 23.8856 28.764 23.9433C28.7331 24.001 28.6995 24.0571 28.6631 24.1116C28.6267 24.166 28.5877 24.2185 28.5462 24.2692C28.5047 24.3198 28.4608 24.3682 28.4145 24.4145C28.3682 24.4608 28.3198 24.5048 28.2692 24.5463C28.2185 24.5878 28.166 24.6268 28.1116 24.6631C28.0571 24.6995 28.001 24.7331 27.9433 24.764C27.8856 24.7949 27.8265 24.8228 27.766 24.8478C27.7055 24.8729 27.644 24.8949 27.5813 24.9139C27.5186 24.9329 27.4552 24.9488 27.391 24.9616C27.3268 24.9744 27.2621 24.984 27.1969 24.9904C27.1318 24.9968 27.0665 25 27.001 25H15.999C15.9335 25 15.8682 24.9968 15.8031 24.9904C15.7379 24.984 15.6732 24.9744 15.609 24.9616C15.5448 24.9488 15.4814 24.9329 15.4187 24.9139C15.3561 24.8949 15.2945 24.8729 15.234 24.8478C15.1735 24.8228 15.1144 24.7949 15.0567 24.764C14.9989 24.7331 14.9429 24.6995 14.8884 24.6631C14.834 24.6268 14.7815 24.5878 14.7308 24.5463C14.6802 24.5048 14.6318 24.4608 14.5855 24.4145C14.5392 24.3682 14.4953 24.3198 14.4538 24.2692C14.4122 24.2185 14.3733 24.166 14.3369 24.1116C14.3005 24.0571 14.2669 24.001 14.236 23.9433C14.2052 23.8856 14.1772 23.8265 14.1522 23.766C14.1271 23.7055 14.1051 23.644 14.0861 23.5813C14.0671 23.5186 14.0512 23.4552 14.0384 23.391C14.0256 23.3268 14.016 23.2621 14.0096 23.1969C14.0032 23.1318 14 23.0665 14 23.001V13.874C14 13.8085 14.0032 13.7432 14.0096 13.6781C14.016 13.6129 14.0256 13.5482 14.0384 13.484C14.0512 13.4198 14.0671 13.3564 14.0861 13.2937C14.1051 13.2311 14.1271 13.1695 14.1522 13.109C14.1772 13.0485 14.2052 12.9894 14.236 12.9317C14.2669 12.874 14.3005 12.8179 14.3369 12.7634C14.3733 12.709 14.4122 12.6565 14.4538 12.6059C14.4953 12.5553 14.5392 12.5068 14.5855 12.4605C14.6318 12.4142 14.6802 12.3703 14.7308 12.3288C14.7815 12.2872 14.834 12.2483 14.8884 12.2119C14.9429 12.1755 14.9989 12.1419 15.0567 12.1111C15.1144 12.0802 15.1735 12.0522 15.234 12.0272C15.2945 12.0021 15.3561 11.9801 15.4187 11.9611C15.4814 11.9421 15.5448 11.9262 15.609 11.9134C15.6732 11.9007 15.7379 11.8911 15.8031 11.8846C15.8682 11.8782 15.9335 11.875 15.999 11.875Z" stroke="#3C4042" stroke-width="2.8"/>
</g>
<path d="M18.5 14.9531C18.5 19.0501 25 18.981 25 14.9531" stroke="#3C4042" stroke-width="1.4" stroke-linecap="square"/>
<defs>
<filter id="filter0_d_42_602" x="0" y="0" width="104" height="38" filterUnits="userSpaceOnUse" color-interpolation-filters="sRGB">
<feFlood flood-opacity="0" result="BackgroundImageFix"/>
<feColorMatrix in="SourceAlpha" type="matrix" values="0 0 0 0 0 0 0 0 0 0 0 0 0 0 0 0 0 0 127 0" result="hardAlpha"/>
<feOffset dy="2"/>
<feGaussianBlur stdDeviation="2"/>
<feColorMatrix type="matrix" values="0 0 0 0 0.392157 0 0 0 0 0.392157 0 0 0 0 0.392157 0 0 0 0.498039 0"/>
<feBlend mode="normal" in2="BackgroundImageFix" result="effect1_dropShadow_42_602"/>
<feBlend mode="normal" in="SourceGraphic" in2="effect1_dropShadow_42_602" result="shape"/>
</filter>
</defs>
</svg>
