<svg width="22" height="18" viewBox="0 0 22 18" fill="none" xmlns="http://www.w3.org/2000/svg">
<path fill-rule="evenodd" clip-rule="evenodd" d="M8.64447 7.5L1.7577 7.50001L1.7327 2.48749L13.2578 2.5V4.5H15.0074C15.0074 4.5 15.0074 4.00458 15.0074 2.99994C15.0074 1.54205 13.0017 2.24454e-08 11.2577 2.24454e-08C8.37673 2.24454e-08 6.13134 -2.80568e-08 3.75771 2.24454e-08C-0.114696 0 0.000362001 2.39191 0.000362001 2.5C0.000362001 5.7359 0.000385524 13.3168 0.000385524 13.5303C0.000385524 14.5468 0.948486 15.8405 2.01144 15.8835C3.24796 15.8833 2.77689 15.8835 3.24802 15.8835C3.24802 16.1595 3.24802 16.2109 3.24802 16.2109H2.98392V16.4999L2.65613 16.5L2.65442 16.8437H2.01157V17.1779H1.70688V17.8516L7.65616 17.8746L7.6637 14.1406H2.75772C2.75772 14.1406 1.75771 13.811 1.75771 12.9999C1.75773 12.8245 1.75772 9.18726 1.75772 9.18726H8.01407V8.49994L8.25774 8.5L8.25772 8.17505V7.80048H8.64447V7.5Z" fill="#717579"/>
<path fill-rule="evenodd" clip-rule="evenodd" d="M2.75766 11.9999C2.75766 11.1715 3.42923 10.4999 4.25766 10.4999C5.08609 10.4999 5.75766 11.1715 5.75766 11.9999C5.75766 12.8284 5.08609 13.4999 4.25766 13.4999C3.42923 13.4999 2.75766 12.8284 2.75766 11.9999Z" fill="#717579"/>
<path fill-rule="evenodd" clip-rule="evenodd" d="M8.42859 10.8436C8.91687 7.46057 10.1034 5.50964 10.4325 5.49988C11.3588 5.49988 12.4556 5.49992 13.576 5.49996C15.8906 5.50004 18.3059 5.50012 19.5262 5.49988C19.9028 5.5069 21.0934 7.41492 21.7489 10.8436C21.7489 14.0811 21.7577 17.496 21.7577 17.496H21.4091V17.8632L19.749 17.8398L19.7529 17.5077L19.4052 17.5038L19.4091 15.8358H10.7685L10.7607 17.4999H10.4325L10.4247 17.8437L8.74109 17.8281L8.73328 17.129H8.42859V10.8436ZM19.4473 9.49957H10.5262C10.5418 8.02545 11.1595 7.20331 11.1595 7.20331L18.7593 7.17462C18.7593 7.17462 19.4473 7.91705 19.4473 9.49957ZM10.038 11.1481L10.0262 14.4996L20.0965 14.5192V11.1871L10.038 11.1481ZM10.9262 12.4996C10.9262 13.0519 11.374 13.4996 11.9262 13.4996C12.4785 13.4996 12.9262 13.0519 12.9262 12.4996C12.9262 11.9473 12.4785 11.4996 11.9262 11.4996C11.374 11.4996 10.9262 11.9473 10.9262 12.4996ZM17.5262 12.4998C17.5262 13.052 17.974 13.4998 18.5262 13.4998C19.0785 13.4998 19.5262 13.052 19.5262 12.4998C19.5262 11.9475 19.0785 11.4998 18.5262 11.4998C17.974 11.4998 17.5262 11.9475 17.5262 12.4998Z" fill="#717579"/>
</svg>
