<svg width="78" height="49" viewBox="0 0 78 49" fill="none" xmlns="http://www.w3.org/2000/svg">
<g filter="url(#filter0_d_42_604)">
<path fill-rule="evenodd" clip-rule="evenodd" d="M24.399 2.89674H53.401C53.7283 2.89674 54.0554 2.90477 54.3823 2.92083C54.7092 2.93689 55.0355 2.96096 55.3612 2.99304C55.6869 3.02513 56.0117 3.06518 56.3355 3.1132C56.6592 3.16123 56.9816 3.21717 57.3026 3.28102C57.6236 3.34487 57.9429 3.41656 58.2604 3.49609C58.5779 3.57562 58.8932 3.66288 59.2064 3.75789C59.5196 3.8529 59.8303 3.95554 60.1385 4.0658C60.4466 4.17607 60.7519 4.29383 61.0543 4.41907C61.3567 4.54433 61.6558 4.67692 61.9517 4.81686C62.2476 4.9568 62.5398 5.10392 62.8285 5.2582C63.1171 5.41249 63.4018 5.57377 63.6825 5.74203C63.9632 5.91029 64.2397 6.08534 64.5118 6.26718C64.784 6.44902 65.0515 6.63742 65.3144 6.83239C65.5773 7.02737 65.8352 7.22867 66.0882 7.4363C66.3412 7.64394 66.589 7.85766 66.8315 8.07746C67.074 8.29726 67.311 8.52288 67.5424 8.75431C67.7739 8.98575 67.9995 9.22272 68.2193 9.46523C68.4391 9.70775 68.6528 9.95551 68.8604 10.2085C69.0681 10.4615 69.2694 10.7195 69.4643 10.9824C69.6593 11.2452 69.8477 11.5128 70.0295 11.7849C70.2114 12.057 70.3864 12.3335 70.5547 12.6142C70.723 12.895 70.8842 13.1796 71.0385 13.4682C71.1928 13.7569 71.34 14.0492 71.4799 14.345C71.6198 14.6409 71.7524 14.94 71.8777 15.2424C72.0029 15.5448 72.1206 15.8501 72.2309 16.1582C72.3412 16.4664 72.4438 16.7771 72.5388 17.0903C72.6339 17.4035 72.7211 17.7189 72.8006 18.0363C72.8801 18.3539 72.9518 18.6731 73.0157 18.9941C73.0796 19.3151 73.1355 19.6375 73.1835 19.9612C73.2316 20.285 73.2716 20.6098 73.3037 20.9355C73.3358 21.2612 73.3598 21.5875 73.3759 21.9144C73.392 22.2414 73.4 22.5685 73.4 22.8957V22.8977C73.4 23.225 73.392 23.5521 73.3759 23.879C73.3598 24.206 73.3358 24.5323 73.3037 24.8579C73.2716 25.1837 73.2316 25.5084 73.1835 25.8322C73.1355 26.156 73.0796 26.4783 73.0157 26.7993C72.9518 27.1203 72.8801 27.4396 72.8006 27.7571C72.7211 28.0746 72.6339 28.3899 72.5388 28.7031C72.4438 29.0163 72.3412 29.327 72.2309 29.6352C72.1206 29.9434 72.0029 30.2486 71.8777 30.551C71.7524 30.8534 71.6198 31.1526 71.4799 31.4484C71.34 31.7443 71.1928 32.0366 71.0385 32.3252C70.8842 32.6138 70.723 32.8985 70.5547 33.1792C70.3864 33.46 70.2114 33.7364 70.0295 34.0085C69.8477 34.2807 69.6593 34.5483 69.4643 34.8111C69.2694 35.074 69.0681 35.3319 68.8604 35.5849C68.6528 35.8379 68.4391 36.0857 68.2193 36.3282C67.9995 36.5708 67.7739 36.8077 67.5424 37.0391C67.311 37.2706 67.074 37.4962 66.8315 37.716C66.589 37.9358 66.3412 38.1495 66.0882 38.3571C65.8352 38.5648 65.5773 38.7661 65.3144 38.961C65.0515 39.156 64.784 39.3445 64.5118 39.5263C64.2397 39.7081 63.9632 39.8832 63.6825 40.0514C63.4018 40.2197 63.1171 40.381 62.8285 40.5352C62.5398 40.6896 62.2476 40.8367 61.9517 40.9766C61.6558 41.1166 61.3567 41.2492 61.0543 41.3744C60.7519 41.4996 60.4466 41.6174 60.1385 41.7276C59.8303 41.8379 59.5196 41.9405 59.2064 42.0355C58.8932 42.1306 58.5779 42.2179 58.2604 42.2973C57.9429 42.3769 57.6236 42.4486 57.3026 42.5124C56.9816 42.5763 56.6592 42.6322 56.3355 42.6802C56.0117 42.7283 55.6869 42.7684 55.3612 42.8004C55.0355 42.8325 54.7092 42.8566 54.3823 42.8726C54.0554 42.8887 53.7283 42.8967 53.401 42.8967H24.399C24.0717 42.8967 23.7446 42.8887 23.4177 42.8726C23.0908 42.8566 22.7645 42.8325 22.4388 42.8004C22.1131 42.7684 21.7883 42.7283 21.4645 42.6802C21.1408 42.6322 20.8184 42.5763 20.4974 42.5124C20.1764 42.4486 19.8571 42.3769 19.5396 42.2974C19.2221 42.2179 18.9068 42.1306 18.5936 42.0355C18.2804 41.9405 17.9697 41.8379 17.6615 41.7276C17.3534 41.6174 17.0481 41.4996 16.7457 41.3744C16.4433 41.2492 16.1442 41.1166 15.8483 40.9766C15.5524 40.8367 15.2602 40.6896 14.9715 40.5352C14.6829 40.381 14.3982 40.2197 14.1174 40.0514C13.8367 39.8832 13.5603 39.7081 13.2881 39.5263C13.016 39.3445 12.7485 39.156 12.4856 38.961C12.2227 38.7661 11.9648 38.5648 11.7118 38.3571C11.4587 38.1495 11.211 37.9358 10.9685 37.716C10.726 37.4962 10.489 37.2706 10.2576 37.0391C10.0261 36.8077 9.80051 36.5708 9.58071 36.3282C9.36091 36.0857 9.14719 35.8379 8.93955 35.5849C8.73191 35.3319 8.53061 35.074 8.33564 34.8111C8.14066 34.5483 7.95226 34.2807 7.77043 34.0085C7.58859 33.7364 7.41354 33.46 7.24528 33.1792C7.07701 32.8985 6.91573 32.6138 6.76145 32.3252C6.60716 32.0366 6.46005 31.7443 6.32011 31.4484C6.18017 31.1526 6.04757 30.8534 5.92232 30.551C5.79707 30.2486 5.67931 29.9434 5.56905 29.6352C5.45878 29.327 5.35614 29.0163 5.26114 28.7031C5.16613 28.3899 5.07886 28.0746 4.99933 27.7571C4.9198 27.4396 4.84811 27.1203 4.78426 26.7993C4.72041 26.4783 4.66447 26.156 4.61645 25.8322C4.56842 25.5084 4.52837 25.1837 4.49629 24.8579C4.46421 24.5323 4.44014 24.206 4.42408 23.879C4.40802 23.5521 4.39999 23.225 4.39999 22.8977V22.8957C4.39999 22.5685 4.40802 22.2414 4.42408 21.9144C4.44014 21.5875 4.46421 21.2612 4.49629 20.9355C4.52837 20.6098 4.56842 20.285 4.61645 19.9612C4.66447 19.6375 4.72041 19.3151 4.78426 18.9941C4.84811 18.6731 4.9198 18.3539 4.99933 18.0363C5.07886 17.7189 5.16613 17.4035 5.26114 17.0903C5.35614 16.7771 5.45878 16.4664 5.56905 16.1582C5.67931 15.8501 5.79707 15.5448 5.92232 15.2424C6.04757 14.94 6.18017 14.6409 6.32011 14.345C6.46005 14.0492 6.60716 13.7569 6.76145 13.4682C6.91573 13.1796 7.07701 12.895 7.24528 12.6142C7.41354 12.3335 7.58859 12.057 7.77043 11.7849C7.95226 11.5128 8.14066 11.2452 8.33564 10.9824C8.53061 10.7195 8.73191 10.4615 8.93955 10.2085C9.14719 9.95551 9.36091 9.70775 9.58071 9.46523C9.80051 9.22272 10.0261 8.98575 10.2576 8.75431C10.489 8.52288 10.726 8.29726 10.9685 8.07746C11.211 7.85766 11.4587 7.64394 11.7118 7.4363C11.9648 7.22867 12.2227 7.02737 12.4856 6.83239C12.7485 6.63742 13.016 6.44902 13.2881 6.26718C13.5603 6.08534 13.8367 5.91029 14.1174 5.74203C14.3982 5.57377 14.6829 5.41249 14.9715 5.2582C15.2602 5.10392 15.5524 4.9568 15.8483 4.81686C16.1442 4.67692 16.4433 4.54433 16.7457 4.41907C17.0481 4.29383 17.3534 4.17607 17.6615 4.0658C17.9697 3.95554 18.2804 3.8529 18.5936 3.75789C18.9068 3.66288 19.2221 3.57562 19.5396 3.49609C19.8571 3.41656 20.1764 3.34487 20.4974 3.28102C20.8184 3.21717 21.1408 3.16123 21.4645 3.1132C21.7883 3.06518 22.1131 3.02513 22.4388 2.99304C22.7645 2.96096 23.0908 2.93689 23.4177 2.92083C23.7446 2.90477 24.0717 2.89674 24.399 2.89674Z" fill="white"/>
</g>
<path fill-rule="evenodd" clip-rule="evenodd" d="M11 22.1999C11 17.2294 15.0294 13.2 20 13.2C24.9706 13.2 29 17.2294 29 22.1999C29 27.1705 24.9706 31.1999 20 31.1999C15.0294 31.1999 11 27.1705 11 22.1999Z" fill="#FAE27B"/>
<path d="M50.1768 27.6037C49.6548 27.6002 49.1452 27.5087 48.6481 27.3294C48.1509 27.1501 47.7035 26.858 47.3057 26.4531C46.908 26.0483 46.5929 25.5068 46.3603 24.8285C46.1277 24.1502 46.0114 23.3104 46.0114 22.3089C46.0114 21.066 46.1862 20.0034 46.536 19.1209C46.8858 18.2385 47.3803 17.5637 48.0195 17.0968C48.6587 16.6298 49.4151 16.3963 50.2887 16.3963C50.9776 16.3963 51.5867 16.5312 52.1158 16.8011C52.6449 17.071 53.0728 17.4386 53.3995 17.9038C53.7262 18.369 53.9286 18.8963 54.0067 19.4858H52.0625C51.9631 19.0668 51.7598 18.7321 51.4526 18.4817C51.1454 18.2313 50.7574 18.1062 50.2887 18.1062C49.5323 18.1062 48.9508 18.4347 48.5442 19.0916C48.1376 19.7486 47.9325 20.6506 47.929 21.7976H48.0036C48.2663 21.3288 48.6401 20.9604 49.1248 20.6923C49.6095 20.4242 50.1449 20.2901 50.7308 20.2901C51.37 20.2901 51.9444 20.4428 52.454 20.7482C52.9636 21.0536 53.3675 21.4735 53.6658 22.008C53.9641 22.5424 54.1115 23.1541 54.108 23.843C54.1115 24.5603 53.9491 25.204 53.6206 25.774C53.2921 26.3439 52.8322 26.7923 52.2409 27.119C51.6496 27.4457 50.9616 27.6072 50.1768 27.6037ZM43.4066 16.5454V27.4545H41.4304V18.4684H41.3665L38.815 20.0984V18.2873L41.5263 16.5454H43.4066ZM55.8924 19.2408V19.8054C55.8924 20.5618 56.1259 21.1823 56.5929 21.6671C57.0598 22.1518 57.6964 22.3942 58.5025 22.3942C59.298 22.3942 59.9238 22.1518 60.3801 21.6671C60.8364 21.1823 61.0646 20.5618 61.0646 19.8054V19.2408C61.0646 18.4773 60.8338 17.8514 60.3722 17.3631C59.9105 16.8748 59.2802 16.6307 58.4812 16.6307C57.6893 16.6307 57.0598 16.8748 56.5929 17.3631C56.1259 17.8514 55.8924 18.4773 55.8924 19.2408ZM57.1974 19.8054V19.2408C57.1974 18.8146 57.3048 18.4542 57.5197 18.1594C57.7346 17.8647 58.0551 17.7173 58.4812 17.7173C58.9144 17.7173 59.2358 17.8647 59.4453 18.1594C59.6548 18.4542 59.7596 18.8146 59.7596 19.2408V19.8054C59.7596 20.2422 59.6557 20.6035 59.448 20.8894C59.2403 21.1752 58.9251 21.3182 58.5025 21.3182C58.0657 21.3182 57.739 21.1752 57.5224 20.8894C57.3057 20.6035 57.1974 20.2422 57.1974 19.8054ZM50.1662 26.0057C50.5533 26.0057 50.8995 25.9116 51.2049 25.7234C51.5103 25.5352 51.7518 25.2813 51.9293 24.9616C52.1069 24.642 52.1939 24.2834 52.1903 23.8857C52.1939 23.495 52.1087 23.1417 51.9347 22.8256C51.7606 22.5096 51.5236 22.2592 51.2235 22.0746C50.9234 21.8899 50.5799 21.7976 50.1928 21.7976C49.8093 21.7976 49.463 21.8935 49.1541 22.0852C48.8452 22.277 48.6001 22.5318 48.419 22.8496C48.2379 23.1675 48.1456 23.5181 48.142 23.9016C48.1456 24.2816 48.2344 24.6314 48.4084 24.951C48.5824 25.2706 48.8221 25.5263 49.1275 25.718C49.4329 25.9098 49.7791 26.0057 50.1662 26.0057Z" fill="#757575"/>
<defs>
<filter id="filter0_d_42_604" x="0.399986" y="0.896744" width="77" height="48" filterUnits="userSpaceOnUse" color-interpolation-filters="sRGB">
<feFlood flood-opacity="0" result="BackgroundImageFix"/>
<feColorMatrix in="SourceAlpha" type="matrix" values="0 0 0 0 0 0 0 0 0 0 0 0 0 0 0 0 0 0 127 0" result="hardAlpha"/>
<feOffset dy="2"/>
<feGaussianBlur stdDeviation="2"/>
<feColorMatrix type="matrix" values="0 0 0 0 0.392157 0 0 0 0 0.392157 0 0 0 0 0.392157 0 0 0 0.498039 0"/>
<feBlend mode="normal" in2="BackgroundImageFix" result="effect1_dropShadow_42_604"/>
<feBlend mode="normal" in="SourceGraphic" in2="effect1_dropShadow_42_604" result="shape"/>
</filter>
</defs>
</svg>
